<?xml version="1.0" standalone="no"?>
<!DOCTYPE svg PUBLIC "-//W3C//DTD SVG 1.1//EN" "http://www.w3.org/Graphics/SVG/1.1/DTD/svg11.dtd" >
<svg xmlns="http://www.w3.org/2000/svg" xmlns:xlink="http://www.w3.org/1999/xlink" version="1.1">
<metadata>
Created by FontForge 20161003 at Wed Feb  1 11:04:29 2017
 By www-data
Copyright (c) 2013, Natanael Gama (www.ndiscovered.com . info(at)ndiscovered.com), with Reserved Font Name Exo. This Font Software is licensed under the SIL Open Font License, Version 1.1.
</metadata>
<defs>
<font id="Exo2Regular" horiz-adv-x="570" >
  <font-face 
    font-family="Exo2Regular"
    font-weight="400"
    font-stretch="normal"
    units-per-em="1000"
    panose-1="0 0 5 0 0 0 0 0 0 0"
    ascent="800"
    descent="-200"
    x-height="487"
    cap-height="690"
    bbox="-174 -275 1218 935"
    underline-thickness="50"
    underline-position="-150"
    unicode-range="U+0020-FB02"
  />
<missing-glyph horiz-adv-x="600" 
 />
    <glyph glyph-name=".notdef" horiz-adv-x="600" 
 />
    <glyph glyph-name=".null" horiz-adv-x="0" 
 />
    <glyph glyph-name="nonmarkingreturn" horiz-adv-x="333" 
 />
    <glyph glyph-name="space" unicode=" " horiz-adv-x="223" 
 />
    <glyph glyph-name="exclam" unicode="!" horiz-adv-x="273" 
d="M179 389l-8 -178h-68l-9 178v306h85v-306zM126 118h22q17 0 24.5 -7t7.5 -25v-54q0 -18 -7.5 -25t-24.5 -7h-22q-17 0 -24 7t-7 25v54q0 18 7 25t24 7z" />
    <glyph glyph-name="quotedbl" unicode="&#x22;" horiz-adv-x="353" 
d="M134 475h-59l-5 215h70zM278 475h-58l-6 215h69z" />
    <glyph glyph-name="numbersign" unicode="#" horiz-adv-x="685" 
d="M520 448l-31 -180h109l-11 -55h-108l-37 -213h-68l37 213h-183l-37 -213h-68l37 213h-116l11 55h115l31 180h-115l11 55h113l33 187h68l-33 -187h183l33 187h68l-33 -187h111l-11 -55h-109zM452 448h-183l-31 -180h183z" />
    <glyph glyph-name="dollar" unicode="$" horiz-adv-x="564" 
d="M314 385l59 -15q77 -19 108.5 -65t31.5 -129q0 -114 -51.5 -151t-180.5 -37h-2l-9 -115h-46l9 116q-89 4 -166 18l6 67q32 -1 69 -2t58.5 -1.5t38.5 -0.5l19 242l-64 16q-73 18 -105 64.5t-32 127.5q0 60 12.5 96.5t43 55t68 24.5t100.5 6h12l7 97h45l-7 -99
q83 -3 148 -18l-6 -64q-81 4 -148 5zM146 518q0 -55 19.5 -78t68.5 -35l35 -9l18 227h-2q-44 0 -65 -2t-41 -12t-26.5 -31.5t-6.5 -59.5zM302 301l-17 -231q81 0 109.5 20.5t28.5 87.5q0 57 -19 79.5t-68 34.5z" />
    <glyph glyph-name="percent" unicode="%" horiz-adv-x="894" 
d="M207 703q89 0 125 -47t36 -158t-36 -158t-125 -47q-88 0 -124 47t-36 158t36 158t124 47zM252 0h-60l447 690h60zM207 649q-54 0 -74.5 -33.5t-20.5 -117.5t20.5 -117.5t74.5 -33.5t74.5 33t20.5 118q0 84 -20.5 117.5t-74.5 33.5zM686 400q88 0 124 -47t36 -157
q0 -111 -36 -158t-124 -47t-124 47t-36 158q0 110 36 157t124 47zM685 346q-54 0 -74.5 -32.5t-19.5 -117.5q-1 -85 19.5 -118.5t74.5 -33.5t75 33.5t21 118.5q0 84 -21 117t-75 33z" />
    <glyph glyph-name="ampersand" unicode="&#x26;" horiz-adv-x="772" 
d="M715 66l10 -62q-45 -13 -106 -13q-104 0 -120 86q-44 -47 -97 -67t-133 -20q-110 0 -156 41t-46 144q0 83 31 129t104 52v4q-61 6 -88 45.5t-27 115.5q0 60 14 95.5t49 54t78.5 24t119.5 5.5q92 0 159 -10l-10 -65q-41 3 -152 3q-99 0 -134 -22t-35 -97q0 -69 29 -93.5
t105 -24.5h189l7 128h71v-128h126l-1 -67h-125v-193q0 -35 14.5 -50t49.5 -15h74zM289 66q132 1 208 80v178h-191q-83 0 -115 -28.5t-32 -106.5q0 -70 28 -96.5t102 -26.5z" />
    <glyph glyph-name="quotesingle" unicode="'" horiz-adv-x="209" 
d="M134 475h-59l-5 215h70z" />
    <glyph glyph-name="parenleft" unicode="(" horiz-adv-x="359" 
d="M317 790l11 -41q-99 -48 -145 -155.5t-46 -280.5q0 -339 191 -437l-11 -41q-136 52 -199.5 168t-63.5 309q0 194 63.5 310t199.5 168z" />
    <glyph glyph-name="parenright" unicode=")" horiz-adv-x="359" 
d="M32 749l10 41q136 -52 200 -167.5t64 -310.5q0 -193 -64 -309t-200 -168l-10 41q98 51 144 159t46 278q0 173 -46 280.5t-144 155.5z" />
    <glyph glyph-name="asterisk" unicode="*" horiz-adv-x="450" 
d="M243 530l100 -129l-41 -30l-77 123l-77 -122l-42 30l100 128l-7 161h52zM190 555l-1 -22l-11 -14l-124 33l17 49zM397 551l-125 -32l-12 14v22l120 46z" />
    <glyph glyph-name="plus" unicode="+" horiz-adv-x="551" 
d="M494 267h-187v-177h-64v177h-187v64h186v176h66v-176h186v-64z" />
    <glyph glyph-name="comma" unicode="," horiz-adv-x="228" 
d="M102 118h25q18 0 24.5 -7t6.5 -25v-64q-1 -85 -35 -154l-40 12q10 59 10 120q-24 0 -24 28v58q1 32 33 32z" />
    <glyph glyph-name="hyphen" unicode="-" horiz-adv-x="449" 
d="M377 220h-305v65h305v-65z" />
    <glyph glyph-name="period" unicode="." horiz-adv-x="229" 
d="M100 118h28q18 0 25 -7t7 -25v-54q0 -18 -7 -25t-25 -7h-28q-17 0 -24.5 7t-7.5 25v54q0 18 7.5 25t24.5 7z" />
    <glyph glyph-name="slash" unicode="/" horiz-adv-x="517" 
d="M97 -66h-70l393 756h70z" />
    <glyph glyph-name="zero" unicode="0" horiz-adv-x="603" 
d="M301 703q131 0 184.5 -83t53.5 -275t-53.5 -275t-184.5 -83t-184 83t-53 275t53 275t184 83zM301 626q-85 0 -118 -63t-33 -218t33 -218t118 -63t118.5 63t33.5 218t-33.5 218t-118.5 63z" />
    <glyph glyph-name="one" unicode="1" horiz-adv-x="398" 
d="M286 0h-88v547q0 35 5 60l-169 -53l-12 65l176 71h88v-690z" />
    <glyph glyph-name="two" unicode="2" horiz-adv-x="562" 
d="M271 702q109 0 160.5 -30.5t51.5 -118.5q0 -65 -27 -119.5t-96 -131.5l-198 -221q47 4 112 4h234v-85h-453v55q0 24 13 38l200 226q68 73 98 127.5t28 102.5q-1 47 -31.5 61t-97.5 14q-100 0 -198 -16l-6 68q111 26 210 26z" />
    <glyph glyph-name="three" unicode="3" horiz-adv-x="556" 
d="M258 703q116 0 164.5 -35t48.5 -125q0 -154 -101 -174v-4q64 -11 91 -54t29 -119q2 -107 -48.5 -156t-170.5 -49q-93 0 -219 18l6 71q113 -10 191 -10q84 0 119 30t35 105q0 63 -28.5 95t-108.5 32h-128v69h128q74 1 97.5 34t23.5 92q-1 63 -30 82.5t-111 19.5
q-83 0 -175 -8l-7 68q102 18 194 18z" />
    <glyph glyph-name="four" unicode="4" horiz-adv-x="615" 
d="M571 178l-89 -9v-169h-83v169h-286q-42 0 -62.5 34t-3.5 73l196 414h87l-193 -408q-8 -20 -0.5 -30.5t25.5 -10.5h237v203l15 114h68v-317h89v-63z" />
    <glyph glyph-name="five" unicode="5" horiz-adv-x="536" 
d="M456 615h-290l-10 -188l74 -6q138 -10 194.5 -57t55.5 -157q0 -36 -5 -65.5t-19.5 -59t-38.5 -49.5t-64.5 -32.5t-95.5 -12.5q-96 0 -205 25l10 71q101 -18 175 -18q92 0 123.5 33t33.5 108q1 32 -3.5 54.5t-19 38t-28 24t-47 14.5t-59.5 8.5t-79 5.5l-46 3
q-15 2 -24.5 12.5t-8.5 26.5l16 296h365z" />
    <glyph glyph-name="six" unicode="6" horiz-adv-x="572" 
d="M328 450q108 0 148.5 -50t40.5 -177q0 -58 -8 -97.5t-30.5 -72.5t-67 -49t-112.5 -16q-60 0 -99.5 11t-66.5 33t-41.5 64t-20 96t-5.5 136q0 97 11 163.5t30.5 108t54 64t74 30.5t98.5 8q83 0 139 -15l-8 -64q-44 4 -131 4q-51 0 -81.5 -9t-53.5 -35.5t-33 -75
t-12 -129.5q36 40 75.5 56t98.5 16zM300 63q83 0 108 37t25 123q0 87 -26.5 121.5t-101.5 34.5q-44 0 -77 -13.5t-75 -49.5q0 -64 2.5 -101.5t10.5 -70.5t24.5 -48.5t42.5 -24t67 -8.5z" />
    <glyph glyph-name="seven" unicode="7" horiz-adv-x="512" 
d="M39 690h390q31 0 43 -16t3 -45l-215 -629h-88l194 564q9 27 21 51h-344z" />
    <glyph glyph-name="eight" unicode="8" horiz-adv-x="607" 
d="M304 700q127 0 173 -41.5t46 -140.5q0 -147 -98 -158v-4q62 -6 87.5 -52t25.5 -132q0 -98 -48.5 -139.5t-185.5 -42.5q-135 -1 -185 41t-50 141q0 86 26 132t88 52v4q-99 11 -99 158q0 98 46.5 140t173.5 42zM305 629q-84 0 -112 -25t-28 -94q0 -71 27.5 -94t113.5 -23
t111.5 23t25.5 94q0 69 -27 94t-111 25zM306 323q-94 -1 -124 -27t-30 -106q0 -71 31 -97.5t122 -26.5q89 0 119 26t30 98q0 82 -28.5 107.5t-119.5 25.5z" />
    <glyph glyph-name="nine" unicode="9" horiz-adv-x="572" 
d="M276 702q51 0 86.5 -7t61.5 -25t41 -42t23.5 -66.5t11.5 -89.5t3 -119q0 -116 -14 -187.5t-48.5 -111t-81 -53t-123.5 -13.5q-87 0 -149 15l8 65q48 -4 141 -4q69 0 105.5 20t55 74t21.5 157q-37 -42 -76.5 -58.5t-99.5 -16.5q-187 0 -187 225q0 123 50 180t171 57z
M265 310q43 0 76.5 14t76.5 51q0 55 -1.5 87t-6.5 64.5t-14 48.5t-25 29.5t-39 18t-57 4.5q-81 0 -109 -39t-27 -123q-1 -79 27 -117t99 -38z" />
    <glyph glyph-name="colon" unicode=":" horiz-adv-x="236" 
d="M101 440h28q17 0 24.5 -7t7.5 -24v-55q0 -18 -7.5 -25t-24.5 -7h-28q-17 0 -24.5 7t-7.5 25v55q0 17 7.5 24t24.5 7zM101 118h28q17 0 24.5 -7t7.5 -25v-54q0 -18 -7.5 -25t-24.5 -7h-28q-17 0 -24.5 7t-7.5 25v54q0 18 7.5 25t24.5 7z" />
    <glyph glyph-name="semicolon" unicode=";" horiz-adv-x="237" 
d="M105 440h29q17 0 24 -7t7 -24v-55q0 -18 -7 -25t-24 -7h-29q-17 0 -24 7t-7 25v55q0 17 7 24t24 7zM107 118h25q18 0 24.5 -7t6.5 -25v-64q-1 -84 -34 -154l-41 12q10 59 10 120q-24 0 -24 28v58q1 18 8.5 25t24.5 7z" />
    <glyph glyph-name="less" unicode="&#x3c;" horiz-adv-x="530" 
d="M459 438l-332 -140l332 -137v-68l-406 171v68l406 174v-68z" />
    <glyph glyph-name="equal" unicode="=" horiz-adv-x="585" 
d="M512 367h-438v63h438v-63zM512 155h-438v64h438v-64z" />
    <glyph glyph-name="greater" unicode="&#x3e;" horiz-adv-x="530" 
d="M477 332v-68l-406 -171v68l332 137l-332 140v68z" />
    <glyph glyph-name="question" unicode="?" horiz-adv-x="505" 
d="M260 712q202 0 202 -155q0 -35 -13 -65.5t-33 -52t-43 -47t-43 -48.5t-34.5 -58t-15.5 -75h-73q-1 51 15.5 94t40.5 71.5t48.5 54t42 53.5t18.5 58q2 50 -29.5 74t-100.5 24q-85 0 -197 -10l-5 61q7 1 31 5.5t31 5.5l28 4t36 3.5t40 1.5t54 1zM232 118h23q17 0 24 -7
t7 -25v-54q0 -18 -7 -25t-24 -7h-23q-17 0 -24 7t-7 25v54q0 18 7 25t24 7z" />
    <glyph glyph-name="at" unicode="@" horiz-adv-x="718" 
d="M352 585h143q75 0 113 -33.5t38 -108.5v-311h-64l-8 75q-31 -32 -86.5 -57.5t-112.5 -25.5q-60 0 -95.5 30.5t-35.5 88.5v51q0 49 29.5 76t85.5 27h207v43q0 41 -18.5 57.5t-67.5 16.5h-128q-49 0 -75 -1.5t-52 -10.5t-36.5 -22.5t-19.5 -44t-11 -68.5t-2 -101
q0 -49 1 -81.5t6.5 -61t10.5 -45t20 -30t28 -19.5t41.5 -10t52.5 -4.5t69 -0.5h258v-64q-136 -8 -257 -8q-75 -1 -121 2.5t-84 17t-56 33t-31 60t-16 87t-3 124.5q0 76 3 121.5t14 84.5t27.5 58t50.5 33t74.5 17.5t107.5 4.5zM566 345l-178 -4q-35 -1 -49.5 -14.5
t-14.5 -42.5v-26q0 -66 66 -66q44 0 93.5 17.5t82.5 48.5v87z" />
    <glyph glyph-name="A" unicode="A" horiz-adv-x="622" 
d="M453 216h-284l-68 -216h-91l222 666q6 24 33 24h92q27 0 33 -24l222 -666h-91zM429 292l-87 274q-9 26 -17 56h-28q-8 -30 -17 -56l-87 -274h236z" />
    <glyph glyph-name="B" unicode="B" horiz-adv-x="620" 
d="M424 360v-4q75 -7 106.5 -52.5t31.5 -131.5q0 -104 -49 -142t-171 -38q-166 0 -255 8v690q79 8 224 8q129 0 179.5 -37.5t50.5 -142.5q0 -75 -28 -113.5t-89 -44.5zM307 623h-134v-232h148q77 1 106 25t29 92q0 69 -31.5 92t-117.5 23zM328 67q84 0 114.5 24t30.5 96
q0 79 -32.5 107t-118.5 30h-149v-256q41 -1 155 -1z" />
    <glyph glyph-name="C" unicode="C" 
d="M332 702q107 0 188 -20l-9 -67q-90 9 -179 9q-101 0 -139.5 -60.5t-38.5 -218.5t38.5 -218.5t139.5 -60.5q116 0 193 11l9 -66q-83 -23 -202 -23q-149 0 -210 80t-61 277t61 277t210 80z" />
    <glyph glyph-name="D" unicode="D" horiz-adv-x="664" 
d="M333 699q149 0 209 -77.5t60 -276.5t-60 -276.5t-209 -77.5q-116 0 -246 9v690q130 9 246 9zM333 68q99 0 138 60.5t39 216.5t-39 217t-138 61q-64 0 -158 -2v-551q90 -2 158 -2z" />
    <glyph glyph-name="E" unicode="E" horiz-adv-x="560" 
d="M506 73l4 -68q-92 -6 -296 -6q-61 0 -96.5 32.5t-36.5 87.5v452q1 55 36.5 87.5t96.5 32.5q204 0 296 -6l-4 -69h-277q-60 0 -60 -66v-150h298v-71h-298v-189q0 -67 60 -67h277z" />
    <glyph glyph-name="F" unicode="F" horiz-adv-x="539" 
d="M499 616h-259q-35 0 -51 -15.5t-16 -50.5v-160h288v-71h-288v-319h-88v567q0 59 36 91.5t97 32.5q197 0 286 -7z" />
    <glyph glyph-name="G" unicode="G" horiz-adv-x="628" 
d="M560 399v-399h-64l-10 73q-86 -86 -206 -86q-115 0 -166.5 86t-51.5 274q0 203 63 279.5t225 76.5q109 0 192 -21l-9 -66q-84 8 -178 8q-79 0 -119.5 -20.5t-60.5 -81.5t-20 -181q0 -153 33 -215t116 -62q78 0 170 67v268h86z" />
    <glyph glyph-name="H" unicode="H" horiz-adv-x="668" 
d="M581 690v-690h-88v331h-318v-331h-88v690h88v-283h318v283h88z" />
    <glyph glyph-name="I" unicode="I" horiz-adv-x="262" 
d="M175 0h-88v690h88v-690z" />
    <glyph glyph-name="J" unicode="J" horiz-adv-x="340" 
d="M256 690v-545q0 -76 -34.5 -115t-99.5 -39q-56 0 -92 13l10 62h50q78 0 78 76v548h88z" />
    <glyph glyph-name="K" unicode="K" horiz-adv-x="591" 
d="M253 324h-85q6 -38 6 -73v-251h-87v690h87v-216q0 -40 -6 -79h84l210 295h96l-201 -286q-12 -18 -38 -44v-2q28 -27 43 -48l210 -310h-99z" />
    <glyph glyph-name="L" unicode="L" horiz-adv-x="514" 
d="M172 690v-550q0 -66 67 -66h249l4 -68q-87 -7 -267 -7q-140 0 -140 130v561h87z" />
    <glyph glyph-name="M" unicode="M" horiz-adv-x="877" 
d="M640 690h99q36 0 36 -37l29 -653h-88l-25 617h-21l-154 -509q-8 -30 -38 -30h-79q-31 0 -40 30l-154 509h-20l-24 -617h-88l27 653q2 37 37 37h100q28 0 37 -30l129 -421q6 -18 15.5 -53.5t10.5 -39.5h18q3 11 11.5 43.5t14.5 51.5l129 419q8 30 38 30z" />
    <glyph glyph-name="N" unicode="N" horiz-adv-x="705" 
d="M618 690v-655q0 -35 -34 -35h-86q-27 0 -39 28l-233 489q-34 74 -39 91h-16q4 -40 4 -91v-517h-88v655q0 35 35 35h83q27 0 39 -28l226 -477q24 -49 47 -100h17q-3 54 -3 105v500h87z" />
    <glyph glyph-name="O" unicode="O" horiz-adv-x="668" 
d="M334 703q152 0 212 -78.5t60 -279.5t-60 -279.5t-212 -78.5t-212.5 78.5t-60.5 279.5t60.5 279.5t212.5 78.5zM334 624q-102 0 -141 -60.5t-39 -218.5t39 -218.5t141 -60.5t141 60.5t39 218.5t-39 218.5t-141 60.5z" />
    <glyph glyph-name="P" unicode="P" horiz-adv-x="590" 
d="M324 699q126 0 174 -45.5t48 -170.5t-46.5 -170.5t-165.5 -45.5q-73 0 -159 8v-275h-88v690q84 9 237 9zM175 343h148q77 1 105.5 29.5t28.5 110.5t-29 111t-105 29q-109 0 -148 -1v-279z" />
    <glyph glyph-name="Q" unicode="Q" horiz-adv-x="669" 
d="M335 703q152 0 212 -78.5t60 -279.5t-60 -279.5t-212 -78.5t-212.5 78.5t-60.5 279.5t60.5 279.5t212.5 78.5zM335 624q-102 0 -141 -60.5t-39 -218.5t39 -218.5t141 -60.5q101 0 140.5 60.5t39.5 218.5t-39.5 218.5t-140.5 60.5zM269 -96l25 53q110 -48 265 -70l-28 -88
q-130 26 -262 105z" />
    <glyph glyph-name="R" unicode="R" horiz-adv-x="618" 
d="M573 0h-94l-61 216q-13 39 -35 55.5t-57 16.5t-85.5 0.5t-66.5 0.5v-289h-87v690q84 9 238 9q123 0 173 -42.5t50 -156.5q0 -85 -29.5 -127t-97.5 -51v-5q28 -7 51 -32.5t34 -66.5zM174 364h149q78 1 107 28t29 103q0 75 -29 101.5t-107 26.5q-32 0 -82 -0.5t-67 -0.5
v-258z" />
    <glyph glyph-name="S" unicode="S" horiz-adv-x="561" 
d="M279 702q122 -2 205 -20l-6 -64q-97 5 -195 5q-44 0 -65 -2t-41 -12t-26.5 -31.5t-6.5 -59.5q0 -55 19.5 -78t67.5 -35l140 -35q77 -19 108 -65t31 -129q0 -114 -51.5 -151t-179.5 -37q-109 0 -214 19l6 65q168 -6 211 -5q82 0 110.5 21t28.5 90q0 57 -19.5 79.5
t-67.5 34.5l-143 36q-73 18 -104.5 64.5t-31.5 127.5q0 60 12.5 96.5t43 55t68 24.5t100.5 6z" />
    <glyph glyph-name="T" unicode="T" horiz-adv-x="581" 
d="M557 612h-223v-612h-88v612h-222v78h533v-78z" />
    <glyph glyph-name="U" unicode="U" horiz-adv-x="666" 
d="M584 690v-426q0 -151 -56 -214t-191 -63q-140 0 -197.5 63t-57.5 214v426h88v-426q0 -111 36 -154.5t127 -43.5q90 0 126.5 43.5t36.5 154.5v426h88z" />
    <glyph glyph-name="V" unicode="V" horiz-adv-x="609" 
d="M592 690l-209 -665q-9 -25 -34 -25h-89q-27 0 -34 25l-209 665h91l163 -547q14 -50 20 -75h27q10 42 21 76l162 546h91z" />
    <glyph glyph-name="W" unicode="W" horiz-adv-x="948" 
d="M917 690l-140 -664q-7 -26 -35 -26h-100q-29 0 -34 27l-108 519q-6 26 -16 78h-21l-15 -78l-107 -519q-7 -27 -35 -27h-101q-13 0 -22.5 7.5t-11.5 18.5l-140 664h93l108 -538q2 -9 14 -85h23q8 47 16 85l107 509q5 29 34 29h96q27 0 34 -29l107 -509q10 -49 14 -85h25
q9 60 13 84l109 539h93z" />
    <glyph glyph-name="X" unicode="X" horiz-adv-x="611" 
d="M318 324h-25l-172 -324h-96l194 357l-181 333h95l158 -298h29l158 298h95l-182 -333l195 -357h-96z" />
    <glyph glyph-name="Y" unicode="Y" horiz-adv-x="569" 
d="M328 242v-242h-88v244l-229 446h94l145 -291q12 -24 31 -78h7q16 44 31 77l145 292h93z" />
    <glyph glyph-name="Z" unicode="Z" horiz-adv-x="566" 
d="M519 75v-75h-471v75l367 540h-361v75h458v-75l-366 -540h373z" />
    <glyph glyph-name="bracketleft" unicode="[" horiz-adv-x="329" 
d="M288 712h-102q-14 0 -14 -16v-789q0 -16 14 -16h102v-56h-143q-54 0 -54 54v825q0 24 15.5 39t38.5 15h143v-56z" />
    <glyph glyph-name="backslash" unicode="\" horiz-adv-x="518" 
d="M491 -66h-71l-393 756h71z" />
    <glyph glyph-name="bracketright" unicode="]" horiz-adv-x="329" 
d="M41 768h142q24 0 39 -15t15 -39v-825q0 -24 -15 -39t-39 -15h-142v56h101q15 0 15 16v789q0 16 -15 16h-101v56z" />
    <glyph glyph-name="asciicircum" unicode="^" horiz-adv-x="426" 
d="M396 390l-34 -22l-144 174h-8l-145 -174l-35 22l153 210h61z" />
    <glyph glyph-name="underscore" unicode="_" horiz-adv-x="578" 
d="M508 -65h-438v65h438v-65z" />
    <glyph glyph-name="grave" unicode="`" horiz-adv-x="315" 
d="M250 577l-29 -39l-192 120l48 65z" />
    <glyph glyph-name="a" unicode="a" horiz-adv-x="549" 
d="M308 499q85 0 126 -35.5t41 -120.5v-343h-67l-10 81q-88 -90 -201 -90q-67 0 -106.5 35.5t-39.5 100.5v53q0 57 35.5 88.5t99.5 31.5h203v43q0 46 -21 65t-78 19q-72 0 -209 -13l-8 63q134 22 235 22zM214 64q38 -1 86 18t89 55v99l-188 -1q-34 -1 -48.5 -18t-14.5 -49
v-31q0 -38 18 -55.5t58 -17.5z" />
    <glyph glyph-name="b" unicode="b" 
d="M340 499q91 0 133.5 -59.5t42.5 -194.5q0 -132 -48 -194.5t-168 -62.5q-125 0 -224 35v677h85v-182q0 -69 -9 -108q87 89 188 89zM298 60q71 1 100 41.5t30 143.5q-1 103 -25 141.5t-93 38.5q-35 0 -68.5 -17.5t-81.5 -55.5l1 -276q69 -18 137 -16z" />
    <glyph glyph-name="c" unicode="c" horiz-adv-x="489" 
d="M286 499q96 0 157 -23l-11 -55q-66 6 -132 6q-88 0 -122 -39t-34 -144q0 -106 34 -145t122 -39q80 0 143 10l9 -57q-72 -25 -167 -25q-126 0 -178.5 57.5t-52.5 198.5t52.5 198t179.5 57z" />
    <glyph glyph-name="d" unicode="d" horiz-adv-x="573" 
d="M494 700v-700h-66l-8 70q-94 -82 -193 -82q-90 0 -130.5 63.5t-40.5 193.5q0 139 44 196.5t140 57.5q91 0 173 -44q-4 41 -4 95v150h85zM143 246q0 -105 25.5 -144.5t86.5 -39.5q38 0 69 14.5t85 52.5v269q-96 27 -149 27q-65 0 -91 -37t-26 -142z" />
    <glyph glyph-name="e" unicode="e" horiz-adv-x="537" 
d="M298 60q83 0 169 12l9 -57q-65 -27 -189 -27q-126 0 -179.5 58.5t-53.5 198.5q0 141 52 197.5t172 56.5q109 0 159 -39.5t50 -119.5q2 -138 -116 -138h-226q6 -84 40 -113t113 -29zM282 427q-76 0 -106.5 -34t-32.5 -125h206q53 0 53 72q-1 47 -28 67t-92 20z" />
    <glyph glyph-name="f" unicode="f" horiz-adv-x="380" 
d="M388 647h-100q-48 0 -67.5 -18.5t-19.5 -63.5v-78h156v-67h-156v-420h-85v420h-88v62l88 5v87q0 71 33 107t109 36q84 0 137 -7z" />
    <glyph glyph-name="g" unicode="g" horiz-adv-x="558" 
d="M531 440l-72 -6q20 -33 20 -90q0 -82 -47 -118.5t-162 -36.5q-62 0 -101 10q-19 -24 -11 -51t45 -33l182 -29q68 -10 95.5 -42.5t27.5 -94.5q0 -85 -50.5 -118t-181.5 -33q-132 0 -183.5 32.5t-51.5 115.5q0 43 18 69t62 49q-38 29 -35 77.5t38 73.5q-62 34 -62 128
q0 84 46.5 120t162.5 36q67 0 111 -12h154zM270 254q72 0 101 20.5t29 69.5t-28.5 69.5t-101.5 20.5q-72 0 -101 -20.5t-29 -69.5t29 -69.5t101 -20.5zM425 -47q0 36 -15.5 49t-68.5 21l-166 23q-51 -39 -51 -93q0 -51 30 -67t121 -16q89 0 119.5 16.5t30.5 66.5z" />
    <glyph glyph-name="h" unicode="h" horiz-adv-x="581" 
d="M374 499q132 0 132 -134v-365h-86v341q0 48 -15.5 67t-53.5 19q-41 0 -82.5 -18t-105.5 -58v-351h-85v700h85l1 -193q0 -56 -6 -95q120 87 216 87z" />
    <glyph glyph-name="i" unicode="i" horiz-adv-x="248" 
d="M104 694h40q26 0 26 -26v-57q0 -26 -26 -26h-40q-26 0 -26 26v57q0 26 26 26zM166 0h-84v487h84v-487z" />
    <glyph glyph-name="j" unicode="j" horiz-adv-x="250" 
d="M106 694h40q25 0 25 -26v-57q0 -26 -25 -26h-40q-26 0 -26 26v57q0 26 26 26zM168 487v-499q0 -58 -25 -108t-69 -83l-47 37q56 69 56 154v499h85z" />
    <glyph glyph-name="k" unicode="k" horiz-adv-x="509" 
d="M224 244h-66q5 -45 5 -78v-166h-85v700h85l1 -311q0 -38 -5 -83h64l154 181h99l-153 -179q-15 -21 -34 -33v-2q20 -15 34 -39l169 -234h-99z" />
    <glyph glyph-name="l" unicode="l" horiz-adv-x="297" 
d="M164 700l-1 -566q0 -65 67 -65h47l10 -65q-27 -13 -89 -13q-55 0 -87 32.5t-32 91.5v585h85z" />
    <glyph glyph-name="m" unicode="m" horiz-adv-x="876" 
d="M671 499q63 0 96.5 -34t33.5 -100v-365h-84v341q-1 45 -18.5 65.5t-57.5 20.5q-35 0 -67.5 -16t-92.5 -59v-352h-82v341q0 46 -18.5 66t-57.5 20q-35 0 -67.5 -16t-92.5 -59v-352h-85v487h70l5 -77q103 89 199 89q102 0 123 -87q101 87 196 87z" />
    <glyph glyph-name="n" unicode="n" horiz-adv-x="581" 
d="M374 499q132 0 132 -134v-365h-85v341q0 48 -16 67t-54 19q-40 0 -80 -17.5t-108 -58.5v-351h-85v487h72l6 -77q116 89 218 89z" />
    <glyph glyph-name="o" unicode="o" horiz-adv-x="568" 
d="M284 499q126 0 177.5 -58t51.5 -198t-51.5 -198t-177.5 -58q-125 0 -177 58t-52 198t52 198t177 58zM284 427q-80 0 -110 -39t-30 -145t30 -145t110 -39t110.5 39t30.5 145t-30.5 145t-110.5 39z" />
    <glyph glyph-name="p" unicode="p" horiz-adv-x="580" 
d="M357 499q87 0 127 -64t40 -194q0 -138 -44 -195.5t-140 -57.5t-180 50q3 -34 3 -98v-141h-85v688h70l7 -78q39 42 94 66t108 24zM319 62q66 0 92 37t26 142q0 102 -24.5 143t-83.5 41q-38 0 -75.5 -17.5t-90.5 -56.5v-260q111 -29 156 -29z" />
    <glyph glyph-name="q" unicode="q" 
d="M274 499q120 0 220 -34v-666h-85l-1 167q0 57 8 100q-95 -79 -194 -79q-85 0 -126 61.5t-41 193.5q0 133 48 195t171 62zM142 236q0 -93 23 -133.5t85 -40.5q40 0 74 15t85 50v284q-69 18 -136 16q-74 -2 -102.5 -41.5t-28.5 -149.5z" />
    <glyph glyph-name="r" unicode="r" horiz-adv-x="401" 
d="M383 499l-10 -80h-28q-38 0 -77 -14.5t-105 -47.5v-357h-85v487h66l9 -77q111 89 208 89h22z" />
    <glyph glyph-name="s" unicode="s" horiz-adv-x="508" 
d="M240 499q117 -2 205 -15l-7 -62q-153 5 -185 5q-74 1 -97 -9t-23 -53q0 -35 15.5 -48t55.5 -22l142 -32q60 -15 86.5 -44.5t26.5 -89.5q0 -85 -47 -112.5t-161 -27.5q-102 0 -191 14l6 62q85 -5 168 -4q85 0 114 13t29 55q0 33 -17.5 45.5t-59.5 22.5l-140 32
q-60 14 -85 45t-25 91q0 81 42.5 108.5t147.5 25.5z" />
    <glyph glyph-name="t" unicode="t" horiz-adv-x="381" 
d="M200 420v-286q0 -35 15 -50t51 -15h74l10 -65q-46 -13 -110 -13q-61 0 -93 34t-32 98v297h-88v62l88 5v144h85v-144h155v-67h-155z" />
    <glyph glyph-name="u" unicode="u" 
d="M492 487v-487h-68l-6 71q-111 -84 -210 -84q-133 0 -133 134v366h85v-342q-1 -46 17 -65t60 -19q37 0 75 16.5t95 53.5v356h85z" />
    <glyph glyph-name="v" unicode="v" horiz-adv-x="530" 
d="M511 487l-178 -466q-8 -21 -30 -21h-77q-22 0 -30 21l-178 466h91l120 -341q10 -28 29 -85h13l30 85l120 341h90z" />
    <glyph glyph-name="w" unicode="w" horiz-adv-x="824" 
d="M799 487l-142 -463q-6 -24 -33 -24h-77q-12 0 -21.5 7.5t-11.5 19.5l-80 331q-3 14 -8 39.5t-8 37.5h-12q-16 -72 -17 -77l-79 -331q-7 -27 -34 -27h-76q-27 0 -33 24l-142 463h88l101 -359q9 -31 16 -73h13l18 73l81 332q5 27 32 27h77q25 0 32 -28l80 -331
q2 -11 8 -35.5t9 -37.5h13q1 5 6.5 31.5t10.5 41.5l101 359h88z" />
    <glyph glyph-name="x" unicode="x" horiz-adv-x="528" 
d="M274 220h-20l-138 -220h-93l163 251l-151 236h92l125 -201h24l125 201h92l-151 -236l163 -251h-92z" />
    <glyph glyph-name="y" unicode="y" horiz-adv-x="529" 
d="M510 487l-195 -514q-64 -172 -213 -179l-8 56q57 18 89.5 49.5t52.5 79.5l9 21h-20q-24 0 -30 22l-177 465h91l129 -363q14 -41 18 -59h14l21 59l127 363h92z" />
    <glyph glyph-name="z" unicode="z" horiz-adv-x="510" 
d="M461 69v-69h-412v69l313 348h-310v70h406v-70l-313 -348h316z" />
    <glyph glyph-name="braceleft" unicode="{" horiz-adv-x="319" 
d="M276 768v-54q-51 0 -70.5 -19t-19.5 -66v-179q1 -61 -17.5 -86t-71.5 -36q55 -17 73.5 -41t19.5 -77v-237q0 -46 19.5 -65t70.5 -19v-54q-90 -7 -131 27t-41 106v256q0 19 -2.5 30t-13 19.5t-17.5 12t-29 11.5v62q39 12 48.5 22.5t9.5 54.5v199q0 72 41 106t131 27z" />
    <glyph glyph-name="bar" unicode="|" horiz-adv-x="246" 
d="M154 -169h-62v950h62v-950z" />
    <glyph glyph-name="braceright" unicode="}" horiz-adv-x="320" 
d="M44 714v54q90 7 131 -27t41 -106v-199q0 -44 9.5 -54.5t48.5 -22.5v-62q-28 -10 -37.5 -15.5t-17 -19t-7.5 -38.5v-256q0 -72 -41 -106t-131 -27v54q51 0 70.5 19t19.5 65v237q1 53 19.5 77t73.5 41q-53 11 -71.5 36t-17.5 86v179q0 47 -19.5 66t-70.5 19z" />
    <glyph glyph-name="asciitilde" unicode="~" horiz-adv-x="525" 
d="M154 348q37 -2 107 -29t99 -30q26 -3 35.5 9.5t9.5 44.5h44q7 -58 -15 -89t-62 -29q-43 2 -112 29t-94 30q-26 3 -35.5 -10t-9.5 -46h-44q-7 60 15 91t62 29z" />
    <glyph glyph-name="uni00A0" unicode="&#xa0;" horiz-adv-x="223" 
 />
    <glyph glyph-name="exclamdown" unicode="&#xa1;" horiz-adv-x="256" 
d="M118 493h22q17 0 24 -7t7 -25v-55q0 -17 -7 -24t-24 -7h-22q-17 0 -24.5 7t-7.5 24v55q0 18 7.5 25t24.5 7zM171 104v-300h-85v300l8 178h68z" />
    <glyph glyph-name="cent" unicode="&#xa2;" horiz-adv-x="508" 
d="M442 176l9 -57q-69 -23 -159 -25l-9 -94h-45l9 95q-105 7 -149 65.5t-44 188.5q0 140 52.5 198t178.5 58h6l8 85h46l-8 -87q68 -8 105 -22l-11 -57q-51 6 -101 8l-30 -367q75 0 142 11zM138 349q0 -91 26 -132t90 -49l30 364q-82 -3 -114 -42.5t-32 -140.5z" />
    <glyph glyph-name="sterling" unicode="&#xa3;" horiz-adv-x="569" 
d="M518 75v-75h-456v75q87 44 78 188l-4 75h-79l-1 50h77l-8 133q-5 110 41 145.5t150 35.5q78 0 179 -10l-5 -70q-71 4 -176 4q-61 0 -83.5 -23t-19.5 -83l8 -132h212l-2 -50h-207l5 -75q3 -71 -13 -114t-59 -77q22 3 67 3h296z" />
    <glyph glyph-name="currency" unicode="&#xa4;" horiz-adv-x="594" 
d="M492 351q0 -65 -40 -118l74 -73l-38 -37l-73 73q-52 -41 -119 -41t-118 40l-72 -72l-40 40l72 72q-38 51 -38 116q0 67 40 120l-71 71l37 38l71 -72q53 40 119 40q68 0 120 -41l72 73l38 -38l-73 -72q39 -54 39 -119zM296 208q59 -1 101 41.5t42 102.5t-42 102.5
t-101 42.5t-101.5 -42.5t-42.5 -102.5t42.5 -102.5t101.5 -41.5z" />
    <glyph glyph-name="yen" unicode="&#xa5;" horiz-adv-x="618" 
d="M385 323h146v-52h-173l-5 -9v-52h178v-51h-178v-159h-88v159h-173l-1 51h174v52l-5 9h-168l-1 52h142l-197 367h91l145 -275q8 -14 20.5 -45t13.5 -33h7q20 49 33 77l144 276h92z" />
    <glyph glyph-name="brokenbar" unicode="&#xa6;" horiz-adv-x="248" 
d="M155 381h-62v400h62v-400zM155 -169h-62v400h62v-400z" />
    <glyph glyph-name="section" unicode="&#xa7;" horiz-adv-x="544" 
d="M260 703q124 -2 217 -12l-6 -66q-74 5 -189 5q-47 1 -70 -1.5t-41 -15.5t-18 -40q-1 -33 15.5 -53.5t50.5 -39.5l162 -91q69 -37 88 -95.5t-2 -139.5h-62q5 66 -9.5 104t-59.5 64l-173 99q-52 30 -76.5 63.5t-24.5 90.5q0 76 47.5 102t150.5 26zM78 388h62
q-5 -67 9 -103.5t60 -62.5l173 -98q51 -30 76 -64.5t25 -91.5q0 -34 -9.5 -58t-25 -38t-42.5 -22t-53.5 -10t-66.5 -2q-110 2 -218 12l7 67q96 -6 190 -7q29 0 43.5 0.5t33.5 3.5t28 9.5t15.5 18t6.5 29.5q1 33 -15.5 54t-48.5 39l-162 90q-70 37 -89 94.5t1 139.5z" />
    <glyph glyph-name="dieresis" unicode="&#xa8;" horiz-adv-x="411" 
d="M103 693h29q23 0 23 -24v-55q0 -24 -23 -24h-29q-23 0 -23 24v55q0 24 23 24zM281 693h28q24 0 24 -24v-55q0 -24 -24 -24h-28q-24 0 -24 24v55q0 24 24 24z" />
    <glyph glyph-name="copyright" unicode="&#xa9;" horiz-adv-x="836" 
d="M418 703q152 0 255.5 -101.5t103.5 -256.5t-103.5 -256.5t-255.5 -101.5q-151 0 -255 102t-104 256t104 256t255 102zM418 657q-130 0 -221 -89.5t-91 -222.5t91 -222.5t221 -89.5t221 89t91 223t-91 223t-221 89zM423 568q79 0 135 -14l-8 -48q-65 3 -128 3
q-72 0 -99.5 -35t-27.5 -127t27.5 -127t99.5 -35q91 0 140 6l6 -49q-62 -15 -145 -15q-107 0 -151 49.5t-44 170.5q0 122 44 171.5t151 49.5z" />
    <glyph glyph-name="ordfeminine" unicode="&#xaa;" horiz-adv-x="441" 
d="M254 607q57 0 85.5 -25t28.5 -83v-227h-51l-8 61q-65 -67 -147 -67q-45 0 -71.5 22.5t-26.5 64.5v38q0 38 24.5 59.5t68.5 21.5h147v28q0 53 -63 53q-51 0 -155 -8l-7 48q112 14 175 14zM127 385v-18q0 -46 55 -46q58 0 122 49v65l-127 -8q-50 -3 -50 -42z" />
    <glyph glyph-name="guillemotleft" unicode="&#xab;" horiz-adv-x="485" 
d="M249 429l-126 -178l127 -182l-44 -30l-162 202v20l161 198zM431 429l-126 -178l127 -182l-45 -30l-161 202v20l160 198z" />
    <glyph glyph-name="logicalnot" unicode="&#xac;" horiz-adv-x="590" 
d="M512 330v-198h-66v133h-372v65h438z" />
    <glyph glyph-name="softhyphen" unicode="&#xad;" horiz-adv-x="448" 
d="M376 220h-304v65h304v-65z" />
    <glyph glyph-name="registered" unicode="&#xae;" horiz-adv-x="553" 
d="M277 702q92 0 157 -65t65 -157q0 -93 -65 -158t-157 -65q-93 0 -158 65t-65 158q0 92 65 157t158 65zM277 287q79 0 135 56.5t56 136.5t-56 136.5t-135 56.5t-135.5 -56.5t-56.5 -136.5t56 -136.5t136 -56.5zM330 473v-2q29 -4 39 -38l30 -82h-42l-28 80q-11 27 -42 27
h-70v-107h-40v259q34 3 109 3q56 0 79.5 -16t23.5 -59q0 -30 -13.5 -45.5t-45.5 -19.5zM217 487h68q36 1 50 11t13 36q1 28 -12.5 37.5t-50.5 9.5h-68v-94z" />
    <glyph glyph-name="macron" unicode="&#xaf;" horiz-adv-x="400" 
d="M339 609h-278v63h278v-63z" />
    <glyph glyph-name="degree" unicode="&#xb0;" horiz-adv-x="363" 
d="M182 703q53 0 91 -37.5t38 -89.5t-38 -90t-91 -38t-91.5 38t-38.5 90t38 89.5t92 37.5zM182 651q-32 0 -54 -21t-22 -54q0 -32 22 -54t54 -22q31 0 53 22t22 54t-22 53.5t-53 21.5z" />
    <glyph glyph-name="plusminus" unicode="&#xb1;" horiz-adv-x="588" 
d="M513 391v-64h-187v-134h-65v134h-186v64h186v133h66v-133h186zM75 134h438v-64h-438v64z" />
    <glyph glyph-name="twosuperior" unicode="&#xb2;" horiz-adv-x="435" 
d="M206 781q80 0 115 -19t35 -76q0 -62 -82 -144l-127 -124q24 2 69 2l157 -1v-59h-312v38q0 17 11 28l129 125q81 79 82 129q1 28 -18.5 36t-62.5 8q-67 0 -133 -8l-4 50q74 15 141 15z" />
    <glyph glyph-name="threesuperior" unicode="&#xb3;" horiz-adv-x="417" 
d="M200 782q83 0 115 -20.5t32 -75.5q0 -94 -75 -105v-2q47 -6 66 -32t20 -72q2 -65 -32.5 -94t-117.5 -29q-62 0 -148 11l4 50q59 -5 128 -5q55 0 76.5 16.5t21.5 58.5q0 32 -18.5 50t-68.5 18h-85v50h85q49 1 64.5 19.5t15.5 49.5q-1 33 -20 44.5t-72 11.5q-78 0 -119 -4
l-4 49q71 11 132 11z" />
    <glyph glyph-name="acute" unicode="&#xb4;" horiz-adv-x="314" 
d="M276 658l-192 -120l-29 39l172 146z" />
    <glyph glyph-name="paragraph" unicode="&#xb6;" horiz-adv-x="593" 
d="M346 702q90 0 151 -17v-685h-65v641q-57 5 -98 5v-856h-65v411q-123 11 -176 69t-53 180q0 138 70 195t236 57z" />
    <glyph glyph-name="periodcentered" unicode="&#xb7;" horiz-adv-x="236" 
d="M104 317h28q17 0 24.5 -7.5t7.5 -24.5v-55q0 -17 -7.5 -24t-24.5 -7h-28q-17 0 -24.5 7t-7.5 24v55q0 17 7.5 24.5t24.5 7.5z" />
    <glyph glyph-name="cedilla" unicode="&#xb8;" horiz-adv-x="234" 
d="M81 -83l9 40q61 6 86.5 -8t24.5 -57q-1 -63 -48 -97t-119 -24l13 45q41 -1 66.5 18.5t26.5 50.5q1 18 -11 24.5t-48 7.5z" />
    <glyph glyph-name="onesuperior" unicode="&#xb9;" horiz-adv-x="294" 
d="M218 360h-67v315q0 26 3 39l-111 -29l-9 46l117 43h67v-414z" />
    <glyph glyph-name="ordmasculine" unicode="&#xba;" horiz-adv-x="444" 
d="M222 607q90 0 126.5 -38.5t36.5 -133.5q0 -94 -36.5 -132.5t-126.5 -38.5t-126.5 38.5t-36.5 132.5q0 95 36.5 133.5t126.5 38.5zM222 554q-54 0 -75 -25.5t-21 -93.5t20.5 -92.5t75.5 -24.5q54 0 74.5 24.5t20.5 92.5q0 69 -20.5 94t-74.5 25z" />
    <glyph glyph-name="guillemotright" unicode="&#xbb;" horiz-adv-x="485" 
d="M259 261v-20l-161 -202l-45 30l127 182l-126 178l45 30zM440 261v-20l-161 -202l-45 30l128 182l-127 178l45 30z" />
    <glyph glyph-name="onequarter" unicode="&#xbc;" horiz-adv-x="863" 
d="M155 276v315q0 22 4 39l-113 -29l-8 46l117 43h66v-414h-66zM645 690l-447 -690h-61l447 690h61zM821 103l-48 -5v-98h-63v97h-195q-27 0 -39.5 17.5t0.5 47.5l127 252h64l-122 -242q-4 -9 1 -15.5t16 -6.5h148v117l12 68h51v-185h48v-47z" />
    <glyph glyph-name="onehalf" unicode="&#xbd;" horiz-adv-x="887" 
d="M221 276h-66v315q0 22 4 39l-113 -29l-8 46l117 43h66v-414zM192 0h-62l448 690h61zM670 421q80 0 115 -19t35 -76q0 -62 -82 -144l-127 -124q25 2 69 2l158 -1l-1 -59h-311v38q0 18 10 28l129 125q82 80 83 129q0 28 -19.5 36t-62.5 8q-67 0 -132 -8l-4 50q74 15 140 15
z" />
    <glyph glyph-name="threequarters" unicode="&#xbe;" horiz-adv-x="954" 
d="M355 389q2 -65 -32.5 -94t-117.5 -29q-63 0 -149 11l4 50q59 -5 129 -5q54 0 76 16.5t22 58.5q0 32 -18.5 50t-68.5 18l-86 2v45l86 3q48 1 63.5 19.5t15.5 48.5q0 33 -19.5 45t-72.5 12q-76 0 -119 -4l-4 49q66 10 133 10q83 0 115 -20.5t32 -74.5q0 -94 -76 -105v-2
q47 -6 66.5 -32t20.5 -72zM746 690l-447 -690h-61l447 690h61zM912 103l-51 -5v-98h-62v97h-193q-27 0 -39.5 17.5t0.5 47.5l127 252h64l-122 -242q-4 -9 1 -15.5t17 -6.5h145v117l11 68h51v-185h51v-47z" />
    <glyph glyph-name="questiondown" unicode="&#xbf;" horiz-adv-x="500" 
d="M250 499h21q18 0 25 -7t7 -24v-56q0 -17 -7 -24t-25 -7h-21q-18 0 -25 7t-7 24v56q0 17 7 24t25 7zM223 288h73q1 -51 -15.5 -94t-40.5 -71.5t-48.5 -53.5t-42 -54t-18.5 -59q-2 -49 29.5 -72.5t100.5 -23.5q97 0 197 9l5 -61q-7 -1 -31 -5.5t-31 -5.5l-28 -4t-36 -3.5
t-40 -1.5t-54 -1q-202 0 -202 155q0 41 18 76.5t44.5 62t53 54t45.5 67t21 86.5z" />
    <glyph glyph-name="Agrave" unicode="&#xc0;" horiz-adv-x="622" 
d="M332 728l-192 120l48 65l173 -146zM453 216h-284l-69 -216h-90l222 666q6 24 32 24h93q27 0 33 -24l221 -666h-90zM429 292l-87 274q-14 41 -17 56h-28q-9 -26 -17 -56l-87 -274h236z" />
    <glyph glyph-name="Aacute" unicode="&#xc1;" horiz-adv-x="622" 
d="M275 728l-29 39l172 146l49 -65zM453 216h-284l-69 -216h-90l222 666q6 24 32 24h93q27 0 33 -24l221 -666h-90zM429 292l-87 274q-14 41 -17 56h-28q-9 -26 -17 -56l-87 -274h236z" />
    <glyph glyph-name="Acircumflex" unicode="&#xc2;" horiz-adv-x="622" 
d="M177 733l-29 37l132 127h61l133 -127l-30 -37l-129 97h-8zM453 216h-284l-69 -216h-90l222 666q6 24 32 24h93q27 0 33 -24l221 -666h-90zM429 292l-87 274q-14 41 -17 56h-28q-9 -26 -17 -56l-87 -274h236z" />
    <glyph glyph-name="Atilde" unicode="&#xc3;" horiz-adv-x="622" 
d="M193 765h-40q-6 58 16.5 87.5t61.5 26.5q32 -3 77 -27.5t72 -27.5q28 -4 38.5 8t10.5 42h40q6 -55 -16 -85t-62 -27q-37 3 -83.5 28.5t-67.5 28.5q-27 3 -37 -10t-10 -44zM453 216h-284l-69 -216h-90l222 666q6 24 32 24h93q27 0 33 -24l221 -666h-90zM429 292l-87 274
q-14 41 -17 56h-28q-9 -26 -17 -56l-87 -274h236z" />
    <glyph glyph-name="Adieresis" unicode="&#xc4;" horiz-adv-x="622" 
d="M237 767h-29q-23 0 -23 24v55q0 24 23 24h29q23 0 23 -24v-55q0 -24 -23 -24zM414 767h-28q-24 0 -24 24v55q0 24 24 24h28q24 0 24 -24v-55q0 -24 -24 -24zM453 216h-284l-69 -216h-90l222 666q6 24 32 24h93q27 0 33 -24l221 -666h-90zM429 292l-87 274q-14 41 -17 56
h-28q-9 -26 -17 -56l-87 -274h236z" />
    <glyph glyph-name="Aring" unicode="&#xc5;" horiz-adv-x="622" 
d="M311 715q-45 0 -76 30t-31 75q0 44 31.5 74.5t75.5 30.5t75.5 -30.5t31.5 -74.5q0 -45 -31 -75t-76 -30zM311 881q-26 0 -42.5 -17t-16.5 -44q0 -28 17 -44.5t42 -16.5q26 0 43 16.5t17 44.5q0 27 -17 44t-43 17zM453 216h-284l-69 -216h-90l222 666q6 24 32 24h93
q27 0 33 -24l221 -666h-90zM429 292l-87 274q-14 41 -17 56h-28q-9 -26 -17 -56l-87 -274h236z" />
    <glyph glyph-name="AE" unicode="&#xc6;" horiz-adv-x="913" 
d="M859 74l3 -69q-95 -6 -293 -6q-52 0 -84 33.5t-32 86.5v106h-232l-130 -225h-92l343 582q35 63 83.5 86t141.5 23q189 0 295 -6l-3 -70h-255q-31 0 -49.5 -18.5t-18.5 -50.5v-145l283 -1v-71l-283 -1v-187q0 -67 68 -67h255zM453 298v260q0 21 9.5 42t22.5 30h-8
q-29 -16 -58 -63l-156 -269h190z" />
    <glyph glyph-name="Ccedilla" unicode="&#xc7;" 
d="M331 702q108 0 189 -20l-10 -67q-88 9 -179 9q-100 0 -139 -60.5t-39 -218.5t39 -218.5t139 -60.5q117 0 193 11l10 -66q-83 -23 -203 -23q-149 0 -209.5 80t-60.5 277t60.5 277t209.5 80zM273 -95l9 40q61 6 86.5 -8t24.5 -57q-1 -63 -48 -97t-119 -24l13 45
q41 -1 66.5 18.5t26.5 50.5q1 18 -11 24.5t-48 7.5z" />
    <glyph glyph-name="Egrave" unicode="&#xc8;" horiz-adv-x="560" 
d="M331 749l-192 120l48 65l173 -146zM506 73l4 -68q-92 -6 -296 -6q-61 0 -96.5 32.5t-36.5 87.5v452q1 55 36.5 87.5t96.5 32.5q204 0 296 -6l-4 -69h-277q-60 0 -60 -66v-150h298v-71h-298v-189q0 -67 60 -67h277z" />
    <glyph glyph-name="Eacute" unicode="&#xc9;" horiz-adv-x="560" 
d="M274 749l-29 39l172 146l49 -65zM506 73l4 -68q-92 -6 -296 -6q-61 0 -96.5 32.5t-36.5 87.5v452q1 55 36.5 87.5t96.5 32.5q204 0 296 -6l-4 -69h-277q-60 0 -60 -66v-150h298v-71h-298v-189q0 -67 60 -67h277z" />
    <glyph glyph-name="Ecircumflex" unicode="&#xca;" horiz-adv-x="560" 
d="M176 753l-29 37l132 127h61l133 -127l-30 -37l-129 97h-8zM506 73l4 -68q-92 -6 -296 -6q-61 0 -96.5 32.5t-36.5 87.5v452q1 55 36.5 87.5t96.5 32.5q204 0 296 -6l-4 -69h-277q-60 0 -60 -66v-150h298v-71h-298v-189q0 -67 60 -67h277z" />
    <glyph glyph-name="Edieresis" unicode="&#xcb;" horiz-adv-x="560" 
d="M235 788h-29q-23 0 -23 24v55q0 24 23 24h29q23 0 23 -24v-55q0 -24 -23 -24zM412 788h-28q-24 0 -24 24v55q0 24 24 24h28q24 0 24 -24v-55q0 -24 -24 -24zM506 73l4 -68q-92 -6 -296 -6q-61 0 -96.5 32.5t-36.5 87.5v452q1 55 36.5 87.5t96.5 32.5q204 0 296 -6l-4 -69
h-277q-60 0 -60 -66v-150h298v-71h-298v-189q0 -67 60 -67h277z" />
    <glyph glyph-name="Igrave" unicode="&#xcc;" horiz-adv-x="262" 
d="M181 767l-29 -39l-192 120l48 65zM175 0h-88v690h88v-690z" />
    <glyph glyph-name="Iacute" unicode="&#xcd;" horiz-adv-x="262" 
d="M287 848l-192 -120l-29 39l172 146zM175 0h-88v690h88v-690z" />
    <glyph glyph-name="Icircumflex" unicode="&#xce;" horiz-adv-x="262" 
d="M294 770l-30 -37l-129 97h-8l-130 -97l-29 37l132 127h61zM175 0h-88v690h88v-690z" />
    <glyph glyph-name="Idieresis" unicode="&#xcf;" horiz-adv-x="262" 
d="M28 870h29q23 0 23 -24v-55q0 -24 -23 -24h-29q-23 0 -23 24v55q0 24 23 24zM206 870h28q24 0 24 -24v-55q0 -24 -24 -24h-28q-24 0 -24 24v55q0 24 24 24zM175 0h-88v690h88v-690z" />
    <glyph glyph-name="Eth" unicode="&#xd0;" horiz-adv-x="669" 
d="M337 699q149 0 209 -77.5t60 -276.5t-60 -276.5t-209 -77.5q-115 0 -246 9v342h-69v49h69v299q130 9 246 9zM337 68q100 0 138.5 60t38.5 217t-38.5 217.5t-138.5 60.5q-64 0 -158 -2v-230h151v-49h-151v-272q92 -2 158 -2z" />
    <glyph glyph-name="Ntilde" unicode="&#xd1;" horiz-adv-x="705" 
d="M281 879q32 -3 77 -27.5t72 -27.5q28 -4 38.5 8t10.5 42h40q6 -55 -16 -85t-62 -27q-37 3 -83.5 28.5t-67.5 28.5q-27 3 -37 -10t-10 -44h-40q-6 58 16.5 87.5t61.5 26.5zM618 690v-655q0 -35 -34 -35h-86q-27 0 -39 28l-232 489q-37 80 -40 91h-16q4 -40 4 -91v-517h-88
v655q0 35 35 35h83q27 0 39 -28l227 -477q38 -81 46 -100h18q-4 48 -4 105v500h87z" />
    <glyph glyph-name="Ograve" unicode="&#xd2;" horiz-adv-x="668" 
d="M383 767l-29 -39l-192 120l48 65zM334 703q152 0 212 -78.5t60 -279.5t-60 -279.5t-212 -78.5t-212.5 78.5t-60.5 279.5t60.5 279.5t212.5 78.5zM334 624q-102 0 -141 -60.5t-39 -218.5t39 -218.5t141 -60.5t141 60.5t39 218.5t-39 218.5t-141 60.5z" />
    <glyph glyph-name="Oacute" unicode="&#xd3;" horiz-adv-x="668" 
d="M489 848l-192 -120l-29 39l172 146zM334 703q152 0 212 -78.5t60 -279.5t-60 -279.5t-212 -78.5t-212.5 78.5t-60.5 279.5t60.5 279.5t212.5 78.5zM334 624q-102 0 -141 -60.5t-39 -218.5t39 -218.5t141 -60.5t141 60.5t39 218.5t-39 218.5t-141 60.5z" />
    <glyph glyph-name="Ocircumflex" unicode="&#xd4;" horiz-adv-x="668" 
d="M496 770l-30 -37l-129 97h-8l-130 -97l-29 37l132 127h61zM334 703q152 0 212 -78.5t60 -279.5t-60 -279.5t-212 -78.5t-212.5 78.5t-60.5 279.5t60.5 279.5t212.5 78.5zM334 624q-102 0 -141 -60.5t-39 -218.5t39 -218.5t141 -60.5t141 60.5t39 218.5t-39 218.5
t-141 60.5z" />
    <glyph glyph-name="Otilde" unicode="&#xd5;" horiz-adv-x="668" 
d="M253 879q32 -3 77 -27.5t72 -27.5q28 -4 38.5 8t10.5 42h40q6 -55 -16 -85t-62 -27q-37 3 -83.5 28.5t-67.5 28.5q-27 3 -37 -10t-10 -44h-40q-6 58 16.5 87.5t61.5 26.5zM334 703q152 0 212 -78.5t60 -279.5t-60 -279.5t-212 -78.5t-212.5 78.5t-60.5 279.5t60.5 279.5
t212.5 78.5zM334 624q-102 0 -141 -60.5t-39 -218.5t39 -218.5t141 -60.5t141 60.5t39 218.5t-39 218.5t-141 60.5z" />
    <glyph glyph-name="Odieresis" unicode="&#xd6;" horiz-adv-x="668" 
d="M230 870h29q23 0 23 -24v-55q0 -24 -23 -24h-29q-23 0 -23 24v55q0 24 23 24zM408 870h28q24 0 24 -24v-55q0 -24 -24 -24h-28q-24 0 -24 24v55q0 24 24 24zM334 703q152 0 212 -78.5t60 -279.5t-60 -279.5t-212 -78.5t-212.5 78.5t-60.5 279.5t60.5 279.5t212.5 78.5z
M334 624q-102 0 -141 -60.5t-39 -218.5t39 -218.5t141 -60.5t141 60.5t39 218.5t-39 218.5t-141 60.5z" />
    <glyph glyph-name="multiply" unicode="&#xd7;" horiz-adv-x="484" 
d="M294 290l150 -135l-42 -51l-157 141l-157 -141l-42 51l150 135l-150 134l42 51l157 -141l157 141l42 -50z" />
    <glyph glyph-name="Oslash" unicode="&#xd8;" horiz-adv-x="668" 
d="M539 731l-32 -69q53 -36 76 -112t23 -205q0 -201 -60 -279.5t-212 -78.5q-81 0 -134 20l-30 -65l-46 20l32 69q-50 37 -72.5 112t-22.5 202q0 201 60.5 279.5t212.5 78.5q76 0 128 -18l31 65zM154 345q0 -167 44 -226l228 488q-34 17 -92 17q-102 0 -141 -60.5
t-39 -218.5zM334 66q102 0 141 60.5t39 218.5q0 173 -48 231l-229 -491q37 -19 97 -19z" />
    <glyph glyph-name="Ugrave" unicode="&#xd9;" horiz-adv-x="666" 
d="M384 767l-29 -39l-192 120l48 65zM584 690v-426q0 -151 -56 -214t-191 -63q-140 0 -197.5 63t-57.5 214v426h88v-426q0 -111 36 -154.5t127 -43.5q90 0 126.5 43.5t36.5 154.5v426h88z" />
    <glyph glyph-name="Uacute" unicode="&#xda;" horiz-adv-x="666" 
d="M490 848l-192 -120l-29 39l172 146zM584 690v-426q0 -151 -56 -214t-191 -63q-140 0 -197.5 63t-57.5 214v426h88v-426q0 -111 36 -154.5t127 -43.5q90 0 126.5 43.5t36.5 154.5v426h88z" />
    <glyph glyph-name="Ucircumflex" unicode="&#xdb;" horiz-adv-x="666" 
d="M497 770l-30 -37l-129 97h-8l-130 -97l-29 37l132 127h61zM584 690v-426q0 -151 -56 -214t-191 -63q-140 0 -197.5 63t-57.5 214v426h88v-426q0 -111 36 -154.5t127 -43.5q90 0 126.5 43.5t36.5 154.5v426h88z" />
    <glyph glyph-name="Udieresis" unicode="&#xdc;" horiz-adv-x="666" 
d="M231 870h29q23 0 23 -24v-55q0 -24 -23 -24h-29q-23 0 -23 24v55q0 24 23 24zM409 870h28q24 0 24 -24v-55q0 -24 -24 -24h-28q-24 0 -24 24v55q0 24 24 24zM584 690v-426q0 -151 -56 -214t-191 -63q-140 0 -197.5 63t-57.5 214v426h88v-426q0 -111 36 -154.5t127 -43.5
q90 0 126.5 43.5t36.5 154.5v426h88z" />
    <glyph glyph-name="Yacute" unicode="&#xdd;" horiz-adv-x="569" 
d="M248 728l-29 39l172 146l49 -65zM328 242v-242h-88v244l-229 446h94l145 -291q12 -24 31 -78h7q16 44 31 77l145 292h93z" />
    <glyph glyph-name="Thorn" unicode="&#xde;" horiz-adv-x="592" 
d="M325 567q125 0 173 -45.5t48 -172.5t-46.5 -172.5t-165.5 -45.5q-73 0 -159 8v-139h-88v690h88v-125q41 2 150 2zM175 207h148q77 1 105.5 29.5t28.5 112.5q0 85 -28.5 114t-105.5 29q-109 0 -148 -1v-284z" />
    <glyph glyph-name="germandbls" unicode="&#xdf;" horiz-adv-x="675" 
d="M446 302l104 -46q48 -22 68 -49.5t20 -80.5q0 -81 -41.5 -109t-135.5 -28q-82 0 -160 11l5 64q64 -5 139 -5q64 1 87 13.5t23 57.5q0 31 -14.5 45t-52.5 31l-106 47q-82 38 -82 112q0 16 2.5 29t10.5 24.5t13.5 18.5t20.5 17t21.5 14t27.5 15t27 15q37 21 50.5 39
t13.5 49q0 34 -30.5 49.5t-111.5 15.5q-84 0 -114 -23.5t-30 -93.5v-534h-85v419h-88v66l88 2v56q0 57 14.5 93.5t46 54.5t69 24t95.5 6q123 0 174.5 -29t51.5 -103q0 -43 -18 -72t-69 -59q-13 -8 -33.5 -18.5t-29 -16t-19 -14t-14 -18.5t-3.5 -24q0 -24 14.5 -36.5
t50.5 -28.5z" />
    <glyph glyph-name="agrave" unicode="&#xe0;" horiz-adv-x="549" 
d="M290 548l-192 120l48 65l173 -146zM309 499q85 0 125.5 -35.5t40.5 -120.5v-343h-67l-10 81q-34 -35 -87.5 -62.5t-114.5 -27.5q-67 0 -106 35.5t-39 100.5v53q0 57 35.5 88.5t99.5 31.5h204v43q-1 46 -22 65t-77 19q-71 0 -210 -13l-8 63q136 22 236 22zM213 64
q39 -1 87.5 18.5t89.5 56.5v97l-189 -1q-64 -3 -64 -67v-31q0 -38 18.5 -55.5t57.5 -17.5z" />
    <glyph glyph-name="aacute" unicode="&#xe1;" horiz-adv-x="549" 
d="M233 548l-29 39l172 146l49 -65zM309 499q85 0 125.5 -35.5t40.5 -120.5v-343h-67l-10 81q-34 -35 -87.5 -62.5t-114.5 -27.5q-67 0 -106 35.5t-39 100.5v53q0 57 35.5 88.5t99.5 31.5h204v43q-1 46 -22 65t-77 19q-71 0 -210 -13l-8 63q136 22 236 22zM213 64
q39 -1 87.5 18.5t89.5 56.5v97l-189 -1q-64 -3 -64 -67v-31q0 -38 18.5 -55.5t57.5 -17.5z" />
    <glyph glyph-name="acircumflex" unicode="&#xe2;" horiz-adv-x="549" 
d="M135 553l-29 37l132 127h61l133 -127l-30 -37l-129 97h-8zM309 499q85 0 125.5 -35.5t40.5 -120.5v-343h-67l-10 81q-34 -35 -87.5 -62.5t-114.5 -27.5q-67 0 -106 35.5t-39 100.5v53q0 57 35.5 88.5t99.5 31.5h204v43q-1 46 -22 65t-77 19q-71 0 -210 -13l-8 63
q136 22 236 22zM213 64q39 -1 87.5 18.5t89.5 56.5v97l-189 -1q-64 -3 -64 -67v-31q0 -38 18.5 -55.5t57.5 -17.5z" />
    <glyph glyph-name="atilde" unicode="&#xe3;" horiz-adv-x="549" 
d="M151 586h-40q-6 58 16.5 87.5t61.5 26.5q32 -3 77 -27.5t72 -27.5q28 -4 38.5 8t10.5 42h40q6 -55 -16 -85t-62 -27q-37 3 -83.5 28.5t-67.5 28.5q-27 3 -37 -10t-10 -44zM309 499q85 0 125.5 -35.5t40.5 -120.5v-343h-67l-10 81q-34 -35 -87.5 -62.5t-114.5 -27.5
q-67 0 -106 35.5t-39 100.5v53q0 57 35.5 88.5t99.5 31.5h204v43q-1 46 -22 65t-77 19q-71 0 -210 -13l-8 63q136 22 236 22zM213 64q39 -1 87.5 18.5t89.5 56.5v97l-189 -1q-64 -3 -64 -67v-31q0 -38 18.5 -55.5t57.5 -17.5z" />
    <glyph glyph-name="adieresis" unicode="&#xe4;" horiz-adv-x="549" 
d="M195 587h-29q-23 0 -23 24v55q0 24 23 24h29q23 0 23 -24v-55q0 -24 -23 -24zM372 587h-28q-24 0 -24 24v55q0 24 24 24h28q24 0 24 -24v-55q0 -24 -24 -24zM309 499q85 0 125.5 -35.5t40.5 -120.5v-343h-67l-10 81q-34 -35 -87.5 -62.5t-114.5 -27.5q-67 0 -106 35.5
t-39 100.5v53q0 57 35.5 88.5t99.5 31.5h204v43q-1 46 -22 65t-77 19q-71 0 -210 -13l-8 63q136 22 236 22zM213 64q39 -1 87.5 18.5t89.5 56.5v97l-189 -1q-64 -3 -64 -67v-31q0 -38 18.5 -55.5t57.5 -17.5z" />
    <glyph glyph-name="aring" unicode="&#xe5;" horiz-adv-x="549" 
d="M269 535q-45 0 -76 30t-31 75q0 44 31.5 74.5t75.5 30.5t75.5 -30.5t31.5 -74.5q0 -45 -31 -75t-76 -30zM269 701q-26 0 -42.5 -17t-16.5 -44q0 -28 17 -44.5t42 -16.5q26 0 43 16.5t17 44.5q0 27 -17 44t-43 17zM309 499q85 0 125.5 -35.5t40.5 -120.5v-343h-67l-10 81
q-34 -35 -87.5 -62.5t-114.5 -27.5q-67 0 -106 35.5t-39 100.5v53q0 57 35.5 88.5t99.5 31.5h204v43q-1 46 -22 65t-77 19q-71 0 -210 -13l-8 63q136 22 236 22zM213 64q39 -1 87.5 18.5t89.5 56.5v97l-189 -1q-64 -3 -64 -67v-31q0 -38 18.5 -55.5t57.5 -17.5z" />
    <glyph glyph-name="ae" unicode="&#xe6;" horiz-adv-x="871" 
d="M632 60q83 0 170 12l8 -57q-64 -27 -189 -27q-84 0 -134 25t-74 81q-33 -39 -91 -71t-125 -32t-106.5 35.5t-39.5 100.5v53q0 57 35.5 88.5t99.5 31.5h203v43q0 46 -21 65t-78 19q-72 0 -209 -13l-8 63q134 22 235 22q102 0 139 -50q50 50 165 50q109 0 159 -39.5
t51 -119.5q0 -138 -127 -138h-216q6 -84 40 -113t113 -29zM616 427q-76 0 -106.5 -34t-32.5 -125h196q65 0 63 72q0 46 -27.5 66.5t-92.5 20.5zM214 64q40 -1 91 19.5t93 59.5q-9 41 -9 93l-188 -1q-34 -1 -48.5 -18t-14.5 -49v-31q0 -38 18 -55.5t58 -17.5z" />
    <glyph glyph-name="ccedilla" unicode="&#xe7;" horiz-adv-x="489" 
d="M285 499q96 0 157 -23l-11 -55q-66 6 -131 6q-88 0 -122.5 -39t-34.5 -144q0 -106 34.5 -145t122.5 -39q80 0 143 10l8 -57q-71 -25 -166 -25q-127 0 -179 57.5t-52 198.5q0 140 52.5 197.5t178.5 57.5zM226 -95l9 40q61 6 86.5 -8t24.5 -57q-1 -63 -48 -97t-119 -24
l13 45q41 -1 66.5 18.5t26.5 50.5q1 18 -11 24.5t-48 7.5z" />
    <glyph glyph-name="egrave" unicode="&#xe8;" horiz-adv-x="537" 
d="M301 548l-192 120l48 65l173 -146zM297 60q84 0 170 12l8 -57q-64 -27 -189 -27q-126 0 -179 58.5t-53 198.5q0 141 52 197.5t172 56.5q108 0 158 -39.5t51 -119.5q0 -138 -116 -138h-227q6 -84 40 -113t113 -29zM281 427q-76 0 -106.5 -34t-32.5 -125h207q54 0 52 72
q0 47 -27 67t-93 20z" />
    <glyph glyph-name="eacute" unicode="&#xe9;" horiz-adv-x="537" 
d="M244 548l-29 39l172 146l49 -65zM297 60q84 0 170 12l8 -57q-64 -27 -189 -27q-126 0 -179 58.5t-53 198.5q0 141 52 197.5t172 56.5q108 0 158 -39.5t51 -119.5q0 -138 -116 -138h-227q6 -84 40 -113t113 -29zM281 427q-76 0 -106.5 -34t-32.5 -125h207q54 0 52 72
q0 47 -27 67t-93 20z" />
    <glyph glyph-name="ecircumflex" unicode="&#xea;" horiz-adv-x="537" 
d="M146 553l-29 37l132 127h61l133 -127l-30 -37l-129 97h-8zM297 60q84 0 170 12l8 -57q-64 -27 -189 -27q-126 0 -179 58.5t-53 198.5q0 141 52 197.5t172 56.5q108 0 158 -39.5t51 -119.5q0 -138 -116 -138h-227q6 -84 40 -113t113 -29zM281 427q-76 0 -106.5 -34
t-32.5 -125h207q54 0 52 72q0 47 -27 67t-93 20z" />
    <glyph glyph-name="edieresis" unicode="&#xeb;" horiz-adv-x="537" 
d="M205 587h-29q-23 0 -23 24v55q0 24 23 24h29q23 0 23 -24v-55q0 -24 -23 -24zM382 587h-28q-24 0 -24 24v55q0 24 24 24h28q24 0 24 -24v-55q0 -24 -24 -24zM297 60q84 0 170 12l8 -57q-64 -27 -189 -27q-126 0 -179 58.5t-53 198.5q0 141 52 197.5t172 56.5
q108 0 158 -39.5t51 -119.5q0 -138 -116 -138h-227q6 -84 40 -113t113 -29zM281 427q-76 0 -106.5 -34t-32.5 -125h207q54 0 52 72q0 47 -27 67t-93 20z" />
    <glyph glyph-name="igrave" unicode="&#xec;" horiz-adv-x="249" 
d="M175 587l-29 -39l-192 120l48 65zM167 0h-85v487h85v-487z" />
    <glyph glyph-name="iacute" unicode="&#xed;" horiz-adv-x="249" 
d="M281 668l-192 -120l-29 39l172 146zM167 0h-85v487h85v-487z" />
    <glyph glyph-name="icircumflex" unicode="&#xee;" horiz-adv-x="249" 
d="M288 590l-30 -37l-129 97h-8l-130 -97l-29 37l132 127h61zM167 0h-85v487h85v-487z" />
    <glyph glyph-name="idieresis" unicode="&#xef;" horiz-adv-x="249" 
d="M22 690h29q23 0 23 -24v-55q0 -24 -23 -24h-29q-23 0 -23 24v55q0 24 23 24zM200 690h28q24 0 24 -24v-55q0 -24 -24 -24h-28q-24 0 -24 24v55q0 24 24 24zM167 0h-85v487h85v-487z" />
    <glyph glyph-name="eth" unicode="&#xf0;" horiz-adv-x="559" 
d="M443 673l-67 -51q119 -106 119 -339q0 -71 -9 -121.5t-32.5 -92t-68 -62t-110.5 -20.5q-113 0 -166.5 55.5t-53.5 176.5q0 114 47.5 171.5t157.5 57.5q79 0 137 -36q-21 108 -80 164l-78 -60l-31 38l67 52q-62 34 -156 30l10 62q119 7 206 -46l78 60zM276 59
q42 0 68.5 14t40 46t18 69.5t4.5 98.5q0 36 -3 66q-61 24 -131 24t-99 -39.5t-29 -118.5q0 -87 31 -123.5t100 -36.5z" />
    <glyph glyph-name="ntilde" unicode="&#xf1;" horiz-adv-x="581" 
d="M179 586h-40q-6 58 16.5 87.5t61.5 26.5q32 -3 77 -27.5t72 -27.5q28 -4 38.5 8t10.5 42h40q6 -55 -16 -85t-62 -27q-37 3 -83.5 28.5t-67.5 28.5q-27 3 -37 -10t-10 -44zM374 499q132 0 132 -134v-365h-86v341q0 48 -15.5 67t-53.5 19q-40 0 -80 -17.5t-108 -58.5v-351
h-85v487h72l6 -77q116 89 218 89z" />
    <glyph glyph-name="ograve" unicode="&#xf2;" horiz-adv-x="568" 
d="M333 587l-29 -39l-192 120l48 65zM285 499q125 0 177 -58t52 -198t-52 -198t-177 -58q-126 0 -178 58t-52 198t52 198t178 58zM285 427q-81 0 -111 -39t-30 -145t30 -145t111 -39q80 0 110 39t30 145t-30 145t-110 39z" />
    <glyph glyph-name="oacute" unicode="&#xf3;" horiz-adv-x="568" 
d="M439 668l-192 -120l-29 39l172 146zM285 499q125 0 177 -58t52 -198t-52 -198t-177 -58q-126 0 -178 58t-52 198t52 198t178 58zM285 427q-81 0 -111 -39t-30 -145t30 -145t111 -39q80 0 110 39t30 145t-30 145t-110 39z" />
    <glyph glyph-name="ocircumflex" unicode="&#xf4;" horiz-adv-x="568" 
d="M446 590l-30 -37l-129 97h-8l-130 -97l-29 37l132 127h61zM285 499q125 0 177 -58t52 -198t-52 -198t-177 -58q-126 0 -178 58t-52 198t52 198t178 58zM285 427q-81 0 -111 -39t-30 -145t30 -145t111 -39q80 0 110 39t30 145t-30 145t-110 39z" />
    <glyph glyph-name="otilde" unicode="&#xf5;" horiz-adv-x="568" 
d="M203 700q32 -3 77 -27.5t72 -27.5q28 -4 38.5 8t10.5 42h40q6 -55 -16 -85t-62 -27q-37 3 -83.5 28.5t-67.5 28.5q-27 3 -37 -10t-10 -44h-40q-6 58 16.5 87.5t61.5 26.5zM285 499q125 0 177 -58t52 -198t-52 -198t-177 -58q-126 0 -178 58t-52 198t52 198t178 58z
M285 427q-81 0 -111 -39t-30 -145t30 -145t111 -39q80 0 110 39t30 145t-30 145t-110 39z" />
    <glyph glyph-name="odieresis" unicode="&#xf6;" horiz-adv-x="568" 
d="M180 690h29q23 0 23 -24v-55q0 -24 -23 -24h-29q-23 0 -23 24v55q0 24 23 24zM358 690h28q24 0 24 -24v-55q0 -24 -24 -24h-28q-24 0 -24 24v55q0 24 24 24zM285 499q125 0 177 -58t52 -198t-52 -198t-177 -58q-126 0 -178 58t-52 198t52 198t178 58zM285 427
q-81 0 -111 -39t-30 -145t30 -145t111 -39q80 0 110 39t30 145t-30 145t-110 39z" />
    <glyph glyph-name="divide" unicode="&#xf7;" horiz-adv-x="571" 
d="M273 525h22q17 0 24.5 -7.5t7.5 -24.5v-49q0 -17 -7.5 -24t-24.5 -7h-22q-18 0 -24.5 7t-6.5 24v49q0 18 6.5 25t24.5 7zM504 263h-438v64h438v-64zM273 176h22q17 0 24.5 -7t7.5 -25v-48q0 -18 -7.5 -25t-24.5 -7h-22q-18 0 -24.5 7t-6.5 25v48q0 18 6.5 25t24.5 7z" />
    <glyph glyph-name="oslash" unicode="&#xf8;" horiz-adv-x="568" 
d="M444 541l-30 -65q53 -24 76.5 -80.5t23.5 -152.5q0 -140 -52 -198t-177 -58q-57 0 -94 10l-34 -72l-39 19l32 68q-50 26 -72.5 81.5t-22.5 149.5q0 140 52 198t178 58q49 0 88 -9l32 70zM144 243q0 -120 41 -156l155 334q-22 6 -55 6q-81 0 -111 -39t-30 -145zM285 59
q80 0 110 39t30 145q0 126 -45 160l-157 -337q24 -7 62 -7z" />
    <glyph glyph-name="ugrave" unicode="&#xf9;" 
d="M308 552l-192 120l48 65l173 -146zM492 487v-487h-68l-7 70q-109 -83 -209 -83q-133 0 -133 134v366h85v-342q0 -46 17.5 -65t59.5 -19q37 0 75 16.5t95 53.5v356h85z" />
    <glyph glyph-name="uacute" unicode="&#xfa;" 
d="M251 552l-29 39l172 146l49 -65zM492 487v-487h-68l-7 70q-109 -83 -209 -83q-133 0 -133 134v366h85v-342q0 -46 17.5 -65t59.5 -19q37 0 75 16.5t95 53.5v356h85z" />
    <glyph glyph-name="ucircumflex" unicode="&#xfb;" 
d="M153 556l-29 37l132 127h61l133 -127l-30 -37l-129 97h-8zM492 487v-487h-68l-7 70q-109 -83 -209 -83q-133 0 -133 134v366h85v-342q0 -46 17.5 -65t59.5 -19q37 0 75 16.5t95 53.5v356h85z" />
    <glyph glyph-name="udieresis" unicode="&#xfc;" 
d="M213 591h-29q-23 0 -23 24v55q0 24 23 24h29q23 0 23 -24v-55q0 -24 -23 -24zM390 591h-28q-24 0 -24 24v55q0 24 24 24h28q24 0 24 -24v-55q0 -24 -24 -24zM492 487v-487h-68l-7 70q-109 -83 -209 -83q-133 0 -133 134v366h85v-342q0 -46 17.5 -65t59.5 -19
q37 0 75 16.5t95 53.5v356h85z" />
    <glyph glyph-name="yacute" unicode="&#xfd;" horiz-adv-x="529" 
d="M231 548l-29 39l172 146l49 -65zM510 487l-194 -514q-66 -172 -213 -179l-9 56q57 18 89.5 49.5t52.5 79.5l9 21h-20q-24 0 -30 22l-177 465h91l129 -363q11 -33 18 -59h15q3 10 10 30t10 29l128 363h91z" />
    <glyph glyph-name="thorn" unicode="&#xfe;" horiz-adv-x="574" 
d="M342 499q94 0 134.5 -61t40.5 -198q0 -139 -41.5 -196t-136.5 -57q-93 0 -178 44q2 -31 2 -91v-141h-85v901h85v-170q0 -67 -3 -101q86 70 182 70zM312 58q65 0 91 39.5t26 143.5t-26 144.5t-88 40.5q-61 0 -152 -67v-265q89 -36 149 -36z" />
    <glyph glyph-name="ydieresis" unicode="&#xff;" horiz-adv-x="529" 
d="M192 587h-29q-23 0 -23 24v55q0 24 23 24h29q23 0 23 -24v-55q0 -24 -23 -24zM369 587h-28q-24 0 -24 24v55q0 24 24 24h28q24 0 24 -24v-55q0 -24 -24 -24zM510 487l-194 -514q-66 -172 -213 -179l-9 56q57 18 89.5 49.5t52.5 79.5l9 21h-20q-24 0 -30 22l-177 465h91
l129 -363q11 -33 18 -59h15q3 10 10 30t10 29l128 363h91z" />
    <glyph glyph-name="Amacron" unicode="&#x100;" horiz-adv-x="622" 
d="M450 786h-278v63h278v-63zM453 216h-284l-69 -216h-90l222 666q6 24 32 24h93q27 0 33 -24l221 -666h-90zM429 292l-87 274q-14 41 -17 56h-28q-9 -26 -17 -56l-87 -274h236z" />
    <glyph glyph-name="amacron" unicode="&#x101;" horiz-adv-x="549" 
d="M408 606h-278v63h278v-63zM309 499q85 0 125.5 -35.5t40.5 -120.5v-343h-67l-10 81q-34 -35 -87.5 -62.5t-114.5 -27.5q-67 0 -106 35.5t-39 100.5v53q0 57 35.5 88.5t99.5 31.5h204v43q-1 46 -22 65t-77 19q-71 0 -210 -13l-8 63q136 22 236 22zM213 64q39 -1 87.5 18.5
t89.5 56.5v97l-189 -1q-64 -3 -64 -67v-31q0 -38 18.5 -55.5t57.5 -17.5z" />
    <glyph glyph-name="Abreve" unicode="&#x102;" horiz-adv-x="622" 
d="M311 745q-72 0 -113 36.5t-37 95.5l44 6q-1 -35 27 -55t80 -20q49 0 77 20t28 55l44 -6q4 -59 -37 -95.5t-113 -36.5zM453 216h-284l-69 -216h-90l222 666q6 24 32 24h93q27 0 33 -24l221 -666h-90zM429 292l-87 274q-14 41 -17 56h-28q-9 -26 -17 -56l-87 -274h236z" />
    <glyph glyph-name="abreve" unicode="&#x103;" horiz-adv-x="549" 
d="M269 566q-72 0 -113 36.5t-37 95.5l44 6q-1 -35 27 -55t80 -20q49 0 77 20t28 55l44 -6q4 -59 -37 -95.5t-113 -36.5zM309 499q85 0 125.5 -35.5t40.5 -120.5v-343h-67l-10 81q-34 -35 -87.5 -62.5t-114.5 -27.5q-67 0 -106 35.5t-39 100.5v53q0 57 35.5 88.5t99.5 31.5
h204v43q-1 46 -22 65t-77 19q-71 0 -210 -13l-8 63q136 22 236 22zM213 64q39 -1 87.5 18.5t89.5 56.5v97l-189 -1q-64 -3 -64 -67v-31q0 -38 18.5 -55.5t57.5 -17.5z" />
    <glyph glyph-name="Aogonek" unicode="&#x104;" horiz-adv-x="622" 
d="M616 -158l10 -35q-92 -35 -130.5 -8.5t-17.5 84.5q19 58 93 117h-50l-68 216h-284l-69 -216h-90l222 666q6 24 32 24h93q27 0 33 -24l221 -666h1q-54 -61 -74 -114q-15 -36 7.5 -48t70.5 4zM429 292l-87 274q-14 41 -17 56h-28q-9 -26 -17 -56l-87 -274h236z" />
    <glyph glyph-name="aogonek" unicode="&#x105;" horiz-adv-x="549" 
d="M479 -158l10 -35q-92 -35 -130.5 -8.5t-17.5 84.5q19 58 93 117h-26l-10 81q-34 -35 -87.5 -62.5t-114.5 -27.5q-67 0 -106 35.5t-39 100.5v53q0 57 35.5 88.5t99.5 31.5h204v43q-1 46 -22 65t-77 19q-71 0 -210 -13l-8 63q136 22 236 22q85 0 125.5 -35.5t40.5 -120.5
v-343q-54 -61 -74 -114q-15 -36 7.5 -48t70.5 4zM213 64q39 -1 87.5 18.5t89.5 56.5v97l-189 -1q-64 -3 -64 -67v-31q0 -38 18.5 -55.5t57.5 -17.5z" />
    <glyph glyph-name="Cacute" unicode="&#x106;" 
d="M476 848l-192 -120l-29 39l172 146zM331 702q108 0 189 -20l-10 -67q-88 9 -179 9q-100 0 -139 -60.5t-39 -218.5t39 -218.5t139 -60.5q117 0 193 11l10 -66q-83 -23 -203 -23q-149 0 -209.5 80t-60.5 277t60.5 277t209.5 80z" />
    <glyph glyph-name="cacute" unicode="&#x107;" horiz-adv-x="489" 
d="M423 668l-192 -120l-29 39l172 146zM285 499q96 0 157 -23l-11 -55q-66 6 -131 6q-88 0 -122.5 -39t-34.5 -144q0 -106 34.5 -145t122.5 -39q80 0 143 10l8 -57q-71 -25 -166 -25q-127 0 -179 57.5t-52 198.5q0 140 52.5 197.5t178.5 57.5z" />
    <glyph glyph-name="Cdotaccent" unicode="&#x10a;" 
d="M307 867h27q26 0 26 -25v-57q0 -26 -26 -26h-27q-26 0 -26 26v57q0 25 26 25zM331 702q108 0 189 -20l-10 -67q-88 9 -179 9q-100 0 -139 -60.5t-39 -218.5t39 -218.5t139 -60.5q117 0 193 11l10 -66q-83 -23 -203 -23q-149 0 -209.5 80t-60.5 277t60.5 277t209.5 80z
" />
    <glyph glyph-name="cdotaccent" unicode="&#x10b;" horiz-adv-x="489" 
d="M255 687h27q26 0 26 -25v-57q0 -26 -26 -26h-27q-26 0 -26 26v57q0 25 26 25zM285 499q96 0 157 -23l-11 -55q-66 6 -131 6q-88 0 -122.5 -39t-34.5 -144q0 -106 34.5 -145t122.5 -39q80 0 143 10l8 -57q-71 -25 -166 -25q-127 0 -179 57.5t-52 198.5q0 140 52.5 197.5
t178.5 57.5z" />
    <glyph glyph-name="Ccaron" unicode="&#x10c;" 
d="M485 872l-143 -128h-40l-143 128l29 36l130 -87h8l129 87zM331 702q108 0 189 -20l-10 -67q-88 9 -179 9q-100 0 -139 -60.5t-39 -218.5t39 -218.5t139 -60.5q117 0 193 11l10 -66q-83 -23 -203 -23q-149 0 -209.5 80t-60.5 277t60.5 277t209.5 80z" />
    <glyph glyph-name="ccaron" unicode="&#x10d;" horiz-adv-x="489" 
d="M432 692l-143 -128h-40l-143 128l29 36l130 -87h8l129 87zM285 499q96 0 157 -23l-11 -55q-66 6 -131 6q-88 0 -122.5 -39t-34.5 -144q0 -106 34.5 -145t122.5 -39q80 0 143 10l8 -57q-71 -25 -166 -25q-127 0 -179 57.5t-52 198.5q0 140 52.5 197.5t178.5 57.5z" />
    <glyph glyph-name="Dcaron" unicode="&#x10e;" horiz-adv-x="664" 
d="M299 744l-143 128l29 36l130 -87h8l129 87l30 -36l-143 -128h-40zM333 699q149 0 209 -77.5t60 -276.5t-60 -276.5t-209 -77.5q-116 0 -246 9v690q130 9 246 9zM333 68q99 0 138 60.5t39 216.5t-39 217t-138 61q-64 0 -158 -2v-551q90 -2 158 -2z" />
    <glyph glyph-name="dcaron" unicode="&#x10f;" horiz-adv-x="573" 
d="M582 703h23q15 0 21 -5.5t6 -19.5v-51q0 -64 -31 -123l-36 10q9 48 9 95q-22 0 -22 22v47q1 25 30 25zM409 700h85v-700h-67l-7 69q-94 -81 -192 -81q-91 0 -131.5 63.5t-40.5 193.5q0 139 44 196.5t140 57.5q91 0 173 -44q-4 41 -4 95v150zM144 246q0 -106 25 -145
t87 -39q38 0 69 14.5t84 51.5v270q-94 27 -148 27q-66 0 -91.5 -37t-25.5 -142z" />
    <glyph glyph-name="Dcroat" unicode="&#x110;" horiz-adv-x="669" 
d="M337 699q149 0 209 -77.5t60 -276.5t-60 -276.5t-209 -77.5q-115 0 -246 9v342h-69v49h69v299q130 9 246 9zM337 68q100 0 138.5 60t38.5 217t-38.5 217.5t-138.5 60.5q-64 0 -158 -2v-230h151v-49h-151v-272q92 -2 158 -2z" />
    <glyph glyph-name="dcroat" unicode="&#x111;" horiz-adv-x="568" 
d="M562 573h-68v-573h-67l-7 69q-94 -81 -192 -81q-91 0 -131.5 63.5t-40.5 193.5q0 139 44 196.5t140 57.5q91 0 173 -44q-4 41 -4 95v23h-153v49h153v78h85v-78h68v-49zM144 246q0 -106 25 -145t87 -39q38 0 69 14.5t84 51.5v270q-94 27 -148 27q-66 0 -91.5 -37
t-25.5 -142z" />
    <glyph glyph-name="Emacron" unicode="&#x112;" horiz-adv-x="560" 
d="M449 806h-278v63h278v-63zM506 73l4 -68q-92 -6 -296 -6q-61 0 -96.5 32.5t-36.5 87.5v452q1 55 36.5 87.5t96.5 32.5q204 0 296 -6l-4 -69h-277q-60 0 -60 -66v-150h298v-71h-298v-189q0 -67 60 -67h277z" />
    <glyph glyph-name="emacron" unicode="&#x113;" horiz-adv-x="537" 
d="M419 606h-278v63h278v-63zM297 60q84 0 170 12l8 -57q-64 -27 -189 -27q-126 0 -179 58.5t-53 198.5q0 141 52 197.5t172 56.5q108 0 158 -39.5t51 -119.5q0 -138 -116 -138h-227q6 -84 40 -113t113 -29zM281 427q-76 0 -106.5 -34t-32.5 -125h207q54 0 52 72
q0 47 -27 67t-93 20z" />
    <glyph glyph-name="Edotaccent" unicode="&#x116;" horiz-adv-x="560" 
d="M324 779h-27q-26 0 -26 26v57q0 25 26 25h27q26 0 26 -25v-57q0 -26 -26 -26zM506 73l4 -68q-92 -6 -296 -6q-61 0 -96.5 32.5t-36.5 87.5v452q1 55 36.5 87.5t96.5 32.5q204 0 296 -6l-4 -69h-277q-60 0 -60 -66v-150h298v-71h-298v-189q0 -67 60 -67h277z" />
    <glyph glyph-name="edotaccent" unicode="&#x117;" horiz-adv-x="537" 
d="M294 579h-27q-26 0 -26 26v57q0 25 26 25h27q26 0 26 -25v-57q0 -26 -26 -26zM297 60q84 0 170 12l8 -57q-64 -27 -189 -27q-126 0 -179 58.5t-53 198.5q0 141 52 197.5t172 56.5q108 0 158 -39.5t51 -119.5q0 -138 -116 -138h-227q6 -84 40 -113t113 -29zM281 427
q-76 0 -106.5 -34t-32.5 -125h207q54 0 52 72q0 47 -27 67t-93 20z" />
    <glyph glyph-name="Eogonek" unicode="&#x118;" horiz-adv-x="560" 
d="M514 -153l10 -35q-92 -35 -130.5 -8.5t-17.5 84.5q20 57 91 115q-81 -4 -253 -4q-61 0 -96.5 32.5t-36.5 87.5v452q1 55 36.5 87.5t96.5 32.5q204 0 296 -6l-4 -69h-277q-60 0 -60 -66v-150h298v-71h-298v-189q0 -67 60 -67h277l4 -68q-54 -61 -74 -114q-15 -36 7.5 -48
t70.5 4z" />
    <glyph glyph-name="eogonek" unicode="&#x119;" horiz-adv-x="537" 
d="M480 -143l10 -35q-92 -35 -130.5 -8.5t-17.5 84.5q17 50 75 101q-59 -11 -131 -11q-126 0 -179 58.5t-53 198.5q0 141 52 197.5t172 56.5q108 0 158 -39.5t51 -119.5q0 -138 -116 -138h-227q6 -84 40 -113t113 -29q84 0 170 12l8 -57h1q-54 -61 -74 -114q-15 -36 7.5 -48
t70.5 4zM281 427q-76 0 -106.5 -34t-32.5 -125h207q54 0 52 72q0 47 -27 67t-93 20z" />
    <glyph glyph-name="Ecaron" unicode="&#x11a;" horiz-adv-x="560" 
d="M291 764l-143 128l29 36l130 -87h8l129 87l30 -36l-143 -128h-40zM506 73l4 -68q-92 -6 -296 -6q-61 0 -96.5 32.5t-36.5 87.5v452q1 55 36.5 87.5t96.5 32.5q204 0 296 -6l-4 -69h-277q-60 0 -60 -66v-150h298v-71h-298v-189q0 -67 60 -67h277z" />
    <glyph glyph-name="ecaron" unicode="&#x11b;" horiz-adv-x="537" 
d="M261 564l-143 128l29 36l130 -87h8l129 87l30 -36l-143 -128h-40zM297 60q84 0 170 12l8 -57q-64 -27 -189 -27q-126 0 -179 58.5t-53 198.5q0 141 52 197.5t172 56.5q108 0 158 -39.5t51 -119.5q0 -138 -116 -138h-227q6 -84 40 -113t113 -29zM281 427q-76 0 -106.5 -34
t-32.5 -125h207q54 0 52 72q0 47 -27 67t-93 20z" />
    <glyph glyph-name="Gbreve" unicode="&#x11e;" horiz-adv-x="628" 
d="M327 745q-72 0 -113 36.5t-37 95.5l44 6q-1 -35 27 -55t80 -20q49 0 77 20t28 55l44 -6q4 -59 -37 -95.5t-113 -36.5zM560 399v-399h-65l-9 73q-88 -86 -206 -86q-115 0 -166.5 86t-51.5 274q0 203 63 279.5t225 76.5q109 0 192 -21l-9 -66q-84 8 -178 8q-60 0 -95 -10
t-60.5 -41t-35.5 -86t-10 -146q0 -153 33.5 -215t116.5 -62q78 0 170 67v268h86z" />
    <glyph glyph-name="gbreve" unicode="&#x11f;" horiz-adv-x="558" 
d="M272 566q-72 0 -113 36.5t-37 95.5l44 6q-1 -35 27 -55t80 -20q49 0 77 20t28 55l44 -6q4 -59 -37 -95.5t-113 -36.5zM532 440l-73 -6q20 -33 20 -90q0 -82 -46.5 -118.5t-161.5 -36.5q-63 0 -102 10q-19 -24 -11 -51t45 -33l182 -29q68 -10 95.5 -42.5t27.5 -94.5
q0 -85 -50.5 -118t-181.5 -33q-132 0 -183.5 32.5t-51.5 115.5q0 43 18 69t62 49q-38 29 -35 77.5t38 74.5q-62 34 -62 127q0 84 47 120t163 36q66 0 110 -12h155zM271 254q72 0 100.5 20.5t28.5 69.5t-28.5 69.5t-100.5 20.5q-73 0 -102 -20.5t-29 -69.5t29.5 -69.5
t101.5 -20.5zM425 -47q0 36 -15.5 49t-68.5 21l-166 23q-51 -39 -51 -93q0 -51 30.5 -67t121.5 -16q88 0 118.5 16.5t30.5 66.5z" />
    <glyph glyph-name="Gdotaccent" unicode="&#x120;" horiz-adv-x="628" 
d="M341 759h-27q-26 0 -26 26v57q0 25 26 25h27q26 0 26 -25v-57q0 -26 -26 -26zM560 399v-399h-65l-9 73q-88 -86 -206 -86q-115 0 -166.5 86t-51.5 274q0 203 63 279.5t225 76.5q109 0 192 -21l-9 -66q-84 8 -178 8q-60 0 -95 -10t-60.5 -41t-35.5 -86t-10 -146
q0 -153 33.5 -215t116.5 -62q78 0 170 67v268h86z" />
    <glyph glyph-name="gdotaccent" unicode="&#x121;" horiz-adv-x="558" 
d="M286 579h-27q-26 0 -26 26v57q0 25 26 25h27q26 0 26 -25v-57q0 -26 -26 -26zM532 440l-73 -6q20 -33 20 -90q0 -82 -46.5 -118.5t-161.5 -36.5q-63 0 -102 10q-19 -24 -11 -51t45 -33l182 -29q68 -10 95.5 -42.5t27.5 -94.5q0 -85 -50.5 -118t-181.5 -33
q-132 0 -183.5 32.5t-51.5 115.5q0 43 18 69t62 49q-38 29 -35 77.5t38 74.5q-62 34 -62 127q0 84 47 120t163 36q66 0 110 -12h155zM271 254q72 0 100.5 20.5t28.5 69.5t-28.5 69.5t-100.5 20.5q-73 0 -102 -20.5t-29 -69.5t29.5 -69.5t101.5 -20.5zM425 -47q0 36 -15.5 49
t-68.5 21l-166 23q-51 -39 -51 -93q0 -51 30.5 -67t121.5 -16q88 0 118.5 16.5t30.5 66.5z" />
    <glyph glyph-name="Gcommaaccent" unicode="&#x122;" horiz-adv-x="628" 
d="M560 399v-399h-65l-9 73q-88 -86 -206 -86q-115 0 -166.5 86t-51.5 274q0 203 63 279.5t225 76.5q109 0 192 -21l-9 -66q-84 8 -178 8q-60 0 -95 -10t-60.5 -41t-35.5 -86t-10 -146q0 -153 33.5 -215t116.5 -62q78 0 170 67v268h86zM314 -59h23q16 0 22 -6t5 -21l1 -55
q-1 -69 -32 -132l-37 10q9 52 9 103q-21 0 -21 24v50q1 27 30 27z" />
    <glyph glyph-name="gcommaaccent" unicode="&#x123;" horiz-adv-x="558" 
d="M295 558h-23q-16 0 -22 6t-5 21l-1 55q1 69 32 132l37 -10q-9 -52 -9 -103q21 0 21 -24v-50q-1 -27 -30 -27zM532 440l-73 -6q20 -33 20 -90q0 -82 -46.5 -118.5t-161.5 -36.5q-63 0 -102 10q-19 -24 -11 -51t45 -33l182 -29q68 -10 95.5 -42.5t27.5 -94.5
q0 -85 -50.5 -118t-181.5 -33q-132 0 -183.5 32.5t-51.5 115.5q0 43 18 69t62 49q-38 29 -35 77.5t38 74.5q-62 34 -62 127q0 84 47 120t163 36q66 0 110 -12h155zM271 254q72 0 100.5 20.5t28.5 69.5t-28.5 69.5t-100.5 20.5q-73 0 -102 -20.5t-29 -69.5t29.5 -69.5
t101.5 -20.5zM425 -47q0 36 -15.5 49t-68.5 21l-166 23q-51 -39 -51 -93q0 -51 30.5 -67t121.5 -16q88 0 118.5 16.5t30.5 66.5z" />
    <glyph glyph-name="Hbar" unicode="&#x126;" horiz-adv-x="676" 
d="M654 519h-69v-519h-88v331h-318v-331h-88v519h-71v47h71v124h88v-124h318v124h88v-124h69v-47zM497 519h-318v-112h318v112z" />
    <glyph glyph-name="hbar" unicode="&#x127;" horiz-adv-x="585" 
d="M378 499q132 0 132 -134v-365h-86v341q0 48 -15.5 67t-53.5 19q-41 0 -82.5 -18t-105.5 -58v-351h-85v573h-76v49h76v78h85v-78h145v-49h-144v-66q0 -56 -6 -95q120 87 216 87z" />
    <glyph glyph-name="Imacron" unicode="&#x12a;" horiz-adv-x="262" 
d="M270 786h-278v63h278v-63zM175 0h-88v690h88v-690z" />
    <glyph glyph-name="imacron" unicode="&#x12b;" horiz-adv-x="249" 
d="M264 606h-278v63h278v-63zM167 0h-85v487h85v-487z" />
    <glyph glyph-name="Iogonek" unicode="&#x12e;" horiz-adv-x="262" 
d="M169 -158l10 -35q-92 -35 -130.5 -8.5t-17.5 84.5q19 58 93 117h-37v690h88v-690h-10q-54 -61 -74 -114q-15 -36 7.5 -48t70.5 4z" />
    <glyph glyph-name="iogonek" unicode="&#x12f;" horiz-adv-x="249" 
d="M139 579h-27q-26 0 -26 26v57q0 25 26 25h27q26 0 26 -25v-57q0 -26 -26 -26zM165 -158l10 -35q-92 -35 -130.5 -8.5t-17.5 84.5q19 58 93 117h-38v487h85v-487h-6q-54 -61 -74 -114q-15 -36 7.5 -48t70.5 4z" />
    <glyph glyph-name="Idotaccent" unicode="&#x130;" horiz-adv-x="262" 
d="M118 867h27q26 0 26 -25v-57q0 -26 -26 -26h-27q-26 0 -26 26v57q0 25 26 25zM175 0h-88v690h88v-690z" />
    <glyph glyph-name="dotlessi" unicode="&#x131;" horiz-adv-x="249" 
d="M167 0h-85v487h85v-487z" />
    <glyph glyph-name="IJ" unicode="&#x132;" horiz-adv-x="602" 
d="M175 0h-88v690h88v-690zM518 690v-545q0 -76 -34.5 -115t-99.5 -39q-56 0 -92 13l10 62h50q78 0 78 76v548h88z" />
    <glyph glyph-name="ij" unicode="&#x133;" horiz-adv-x="498" 
d="M104 694h40q26 0 26 -26v-57q0 -26 -26 -26h-40q-26 0 -26 26v57q0 26 26 26zM354 694h40q25 0 25 -26v-57q0 -26 -25 -26h-40q-26 0 -26 26v57q0 26 26 26zM167 0h-85v487h85v-487zM416 487v-499q0 -58 -25 -108t-69 -83l-47 37q56 69 56 154v499h85z" />
    <glyph glyph-name="Kcommaaccent" unicode="&#x136;" horiz-adv-x="591" 
d="M572 0h-99l-220 324h-85q6 -38 6 -73v-251h-87v690h87v-216q0 -46 -5 -79h83l209 295h97l-201 -286q-12 -18 -38 -44v-2q28 -27 43 -48zM304 -59h23q16 0 22 -6t5 -21l1 -55q-1 -69 -32 -132l-37 10q9 52 9 103q-21 0 -21 24v50q1 27 30 27z" />
    <glyph glyph-name="kcommaaccent" unicode="&#x137;" horiz-adv-x="509" 
d="M492 0h-99l-169 244h-66q5 -45 5 -78v-166h-85v700h85l2 -311q0 -43 -6 -83h64l154 181h99l-153 -179q-15 -21 -34 -33v-2q20 -15 34 -39zM265 -59h23q16 0 22 -6t5 -21l1 -55q-1 -69 -32 -132l-37 10q9 52 9 103q-21 0 -21 24v50q1 27 30 27z" />
    <glyph glyph-name="Lacute" unicode="&#x139;" horiz-adv-x="514" 
d="M286 848l-192 -120l-29 39l172 146zM173 690v-550q0 -34 15.5 -50t50.5 -16h250l3 -68q-86 -7 -267 -7q-140 0 -140 130v561h88z" />
    <glyph glyph-name="lacute" unicode="&#x13a;" horiz-adv-x="297" 
d="M280 870l-192 -120l-29 39l172 146zM164 700v-566q0 -65 66 -65h47l10 -65q-27 -13 -89 -13q-55 0 -87 32.5t-32 91.5v585h85z" />
    <glyph glyph-name="Lcommaaccent" unicode="&#x13b;" horiz-adv-x="514" 
d="M173 690v-550q0 -34 15.5 -50t50.5 -16h250l3 -68q-86 -7 -267 -7q-140 0 -140 130v561h88zM285 -61h23q16 0 22 -6t5 -21l1 -55q-1 -69 -32 -132l-37 10q9 52 9 103q-21 0 -21 24v50q1 27 30 27z" />
    <glyph glyph-name="lcommaaccent" unicode="&#x13c;" horiz-adv-x="297" 
d="M164 700v-566q0 -65 66 -65h47l10 -65q-27 -13 -89 -13q-55 0 -87 32.5t-32 91.5v585h85zM162 -61h23q16 0 22 -6t5 -21l1 -55q-1 -69 -32 -132l-37 10q9 52 9 103q-21 0 -21 24v50q1 27 30 27z" />
    <glyph glyph-name="Lcaron" unicode="&#x13d;" horiz-adv-x="514" 
d="M320 691h23q16 0 22 -6t5 -21l1 -55q-1 -69 -32 -132l-37 10q9 52 9 103q-21 0 -21 24v50q1 27 30 27zM173 690v-550q0 -34 15.5 -50t50.5 -16h250l3 -68q-86 -7 -267 -7q-140 0 -140 130v561h88z" />
    <glyph glyph-name="lcaron" unicode="&#x13e;" horiz-adv-x="297" 
d="M252 703h23q15 0 21 -5.5t6 -19.5v-51q0 -64 -31 -123l-36 10q9 48 9 95q-22 0 -22 22v47q1 25 30 25zM164 700v-566q0 -65 66 -65h47l10 -65q-27 -13 -89 -13q-55 0 -87 32.5t-32 91.5v585h85z" />
    <glyph glyph-name="Ldot" unicode="&#x13f;" horiz-adv-x="514" 
d="M173 690v-550q0 -34 15.5 -50t50.5 -16h250l3 -68q-86 -7 -267 -7q-140 0 -140 130v561h88zM402 339h-27q-26 0 -26 25v57q0 26 26 26h27q26 0 26 -26v-57q0 -25 -26 -25z" />
    <glyph glyph-name="ldot" unicode="&#x140;" horiz-adv-x="322" 
d="M164 700v-566q0 -65 66 -65h47l10 -65q-27 -13 -89 -13q-55 0 -87 32.5t-32 91.5v585h85zM293 335h-28q-26 0 -26 26v57q0 26 26 26h28q26 0 26 -26v-57q0 -26 -26 -26z" />
    <glyph glyph-name="Lslash" unicode="&#x141;" horiz-adv-x="520" 
d="M495 74l3 -68q-87 -7 -267 -7q-140 0 -140 130v206l-71 -30v55l71 30v300h88v-264l115 48v-54l-115 -48v-232q0 -34 15.5 -50t50.5 -16h250z" />
    <glyph glyph-name="lslash" unicode="&#x142;" horiz-adv-x="328" 
d="M299 69l10 -65q-27 -13 -89 -13q-55 0 -87 32.5t-32 91.5v219l-80 -33v55l80 33v311h85v-275l108 45v-55l-109 -45v-236q0 -65 66 -65h48z" />
    <glyph glyph-name="Nacute" unicode="&#x143;" horiz-adv-x="705" 
d="M517 848l-192 -120l-29 39l172 146zM618 690v-655q0 -35 -34 -35h-86q-27 0 -39 28l-232 489q-37 80 -40 91h-16q4 -40 4 -91v-517h-88v655q0 35 35 35h83q27 0 39 -28l227 -477q38 -81 46 -100h18q-4 48 -4 105v500h87z" />
    <glyph glyph-name="nacute" unicode="&#x144;" horiz-adv-x="581" 
d="M261 548l-29 39l172 146l49 -65zM374 499q132 0 132 -134v-365h-86v341q0 48 -15.5 67t-53.5 19q-40 0 -80 -17.5t-108 -58.5v-351h-85v487h72l6 -77q116 89 218 89z" />
    <glyph glyph-name="Ncommaaccent" unicode="&#x145;" horiz-adv-x="705" 
d="M618 690v-655q0 -35 -34 -35h-86q-27 0 -39 28l-232 489q-37 80 -40 91h-16q4 -40 4 -91v-517h-88v655q0 35 35 35h83q27 0 39 -28l227 -477q38 -81 46 -100h18q-4 48 -4 105v500h87zM329 -59h23q16 0 22 -6t5 -21l1 -55q-1 -69 -32 -132l-37 10q9 52 9 103q-21 0 -21 24
v50q1 27 30 27z" />
    <glyph glyph-name="ncommaaccent" unicode="&#x146;" horiz-adv-x="581" 
d="M374 499q132 0 132 -134v-365h-86v341q0 48 -15.5 67t-53.5 19q-40 0 -80 -17.5t-108 -58.5v-351h-85v487h72l6 -77q116 89 218 89zM280 -58h23q16 0 22 -6.5t5 -21.5l1 -55q-1 -69 -32 -132l-37 10q9 52 9 103q-10 0 -16 6.5t-5 17.5v50q1 28 30 28z" />
    <glyph glyph-name="Ncaron" unicode="&#x147;" horiz-adv-x="705" 
d="M525 872l-143 -128h-40l-143 128l29 36l130 -87h8l129 87zM618 690v-655q0 -35 -34 -35h-86q-27 0 -39 28l-232 489q-37 80 -40 91h-16q4 -40 4 -91v-517h-88v655q0 35 35 35h83q27 0 39 -28l227 -477q38 -81 46 -100h18q-4 48 -4 105v500h87z" />
    <glyph glyph-name="ncaron" unicode="&#x148;" horiz-adv-x="581" 
d="M279 564l-143 128l29 36l130 -87h8l129 87l30 -36l-143 -128h-40zM374 499q132 0 132 -134v-365h-86v341q0 48 -15.5 67t-53.5 19q-40 0 -80 -17.5t-108 -58.5v-351h-85v487h72l6 -77q116 89 218 89z" />
    <glyph glyph-name="Eng" unicode="&#x14a;" horiz-adv-x="705" 
d="M618 690v-769q0 -66 -36 -102t-99 -35q-52 0 -88 12l9 56h49q82 0 82 76v72h-35q-14 0 -26 25l-248 477q-18 35 -41 92h-14q4 -31 4 -93v-501h-88v655q0 35 35 35h67q25 0 40 -28l241 -462q19 -37 47 -100h17q-4 68 -4 102v488h88z" />
    <glyph glyph-name="eng" unicode="&#x14b;" horiz-adv-x="581" 
d="M373 499q133 0 133 -134v-433q0 -67 -31.5 -102.5t-92.5 -34.5q-42 0 -86 13l10 54h43q72 0 72 77v402q0 43 -16.5 61.5t-55.5 18.5q-67 0 -186 -71v-350h-85v487h66l8 -80q117 92 221 92z" />
    <glyph glyph-name="Omacron" unicode="&#x14c;" horiz-adv-x="668" 
d="M472 786h-278v63h278v-63zM334 703q152 0 212 -78.5t60 -279.5t-60 -279.5t-212 -78.5t-212.5 78.5t-60.5 279.5t60.5 279.5t212.5 78.5zM334 624q-102 0 -141 -60.5t-39 -218.5t39 -218.5t141 -60.5t141 60.5t39 218.5t-39 218.5t-141 60.5z" />
    <glyph glyph-name="omacron" unicode="&#x14d;" horiz-adv-x="568" 
d="M422 606h-278v63h278v-63zM285 499q125 0 177 -58t52 -198t-52 -198t-177 -58q-126 0 -178 58t-52 198t52 198t178 58zM285 427q-81 0 -111 -39t-30 -145t30 -145t111 -39q80 0 110 39t30 145t-30 145t-110 39z" />
    <glyph glyph-name="Ohungarumlaut" unicode="&#x150;" horiz-adv-x="668" 
d="M374 881l-134 -159l-38 28l110 174zM538 881l-134 -159l-37 28l109 174zM334 703q152 0 212 -78.5t60 -279.5t-60 -279.5t-212 -78.5t-212.5 78.5t-60.5 279.5t60.5 279.5t212.5 78.5zM334 624q-102 0 -141 -60.5t-39 -218.5t39 -218.5t141 -60.5t141 60.5t39 218.5
t-39 218.5t-141 60.5z" />
    <glyph glyph-name="ohungarumlaut" unicode="&#x151;" horiz-adv-x="568" 
d="M324 701l-134 -159l-38 28l110 174zM488 701l-134 -159l-37 28l109 174zM285 499q125 0 177 -58t52 -198t-52 -198t-177 -58q-126 0 -178 58t-52 198t52 198t178 58zM285 427q-81 0 -111 -39t-30 -145t30 -145t111 -39q80 0 110 39t30 145t-30 145t-110 39z" />
    <glyph glyph-name="OE" unicode="&#x152;" horiz-adv-x="913" 
d="M859 73l3 -68q-92 -6 -296 -6q-38 0 -69 21q-75 -33 -163 -33q-152 0 -212.5 78.5t-60.5 279.5t60.5 279.5t212.5 78.5q90 0 168 -32q31 20 71 20q199 0 289 -6l-3 -69h-257q-67 0 -67 -66v-149l284 -1v-71l-284 -1v-188q0 -35 16 -51t51 -16h257zM154 345
q0 -158 39 -218.5t141 -60.5q69 0 120 16q-7 20 -7 47v432q0 24 8 48q-60 15 -121 15q-102 0 -141 -60t-39 -219z" />
    <glyph glyph-name="oe" unicode="&#x153;" horiz-adv-x="907" 
d="M669 60q82 0 168 12l8 -57q-64 -27 -189 -27q-135 0 -186 67q-51 -68 -186 -68q-125 0 -177 58t-52 198t52 198t177 58q132 0 183 -65q49 65 176 65q213 0 215 -150q0 -81 -34.5 -112t-117.5 -31h-192q6 -86 40.5 -116t114.5 -30zM284 59q75 0 106 34t35 124l-1 30v26
q-4 88 -35 121t-105 33q-80 0 -110 -39t-30 -145t30 -145t110 -39zM645 427q-72 0 -101 -34.5t-31 -123.5h188q41 0 57 18t14 63q-4 77 -127 77z" />
    <glyph glyph-name="Racute" unicode="&#x154;" horiz-adv-x="618" 
d="M267 728l-29 39l172 146l49 -65zM573 0h-94l-61 216q-13 39 -35 55.5t-57 16.5t-85.5 0.5t-66.5 0.5v-289h-87v690q84 9 238 9q123 0 173 -42.5t50 -156.5q0 -85 -29.5 -127t-97.5 -51v-5q28 -7 51 -32.5t34 -66.5zM174 364h149q78 1 107 28t29 103q0 75 -29 101.5
t-107 26.5q-32 0 -82 -0.5t-67 -0.5v-258z" />
    <glyph glyph-name="racute" unicode="&#x155;" horiz-adv-x="401" 
d="M191 548l-29 39l172 146l49 -65zM384 499l-10 -80h-28q-38 0 -77 -14t-106 -48v-357h-85v487h66l8 -78q114 90 210 90h22z" />
    <glyph glyph-name="Rcommaaccent" unicode="&#x156;" horiz-adv-x="618" 
d="M573 0h-94l-61 216q-13 39 -35 55.5t-57 16.5t-85.5 0.5t-66.5 0.5v-289h-87v690q84 9 238 9q123 0 173 -42.5t50 -156.5q0 -85 -29.5 -127t-97.5 -51v-5q28 -7 51 -32.5t34 -66.5zM174 364h149q78 1 107 28t29 103q0 75 -29 101.5t-107 26.5q-32 0 -82 -0.5t-67 -0.5
v-258zM317 -59h23q16 0 22 -6t5 -21l1 -55q-1 -69 -32 -132l-37 10q9 52 9 103q-21 0 -21 24v50q1 27 30 27z" />
    <glyph glyph-name="rcommaaccent" unicode="&#x157;" horiz-adv-x="401" 
d="M384 499l-10 -80h-28q-38 0 -77 -14t-106 -48v-357h-85v487h66l8 -78q114 90 210 90h22zM102 -59h23q16 0 22 -6t5 -21l1 -55q-1 -69 -32 -132l-37 10q9 52 9 103q-21 0 -21 24v50q1 27 30 27z" />
    <glyph glyph-name="Rcaron" unicode="&#x158;" horiz-adv-x="618" 
d="M284 744l-143 128l29 36l130 -87h8l129 87l30 -36l-143 -128h-40zM573 0h-94l-61 216q-13 39 -35 55.5t-57 16.5t-85.5 0.5t-66.5 0.5v-289h-87v690q84 9 238 9q123 0 173 -42.5t50 -156.5q0 -85 -29.5 -127t-97.5 -51v-5q28 -7 51 -32.5t34 -66.5zM174 364h149
q78 1 107 28t29 103q0 75 -29 101.5t-107 26.5q-32 0 -82 -0.5t-67 -0.5v-258z" />
    <glyph glyph-name="rcaron" unicode="&#x159;" horiz-adv-x="401" 
d="M209 564l-143 128l29 36l130 -87h8l129 87l30 -36l-143 -128h-40zM144 487l8 -78q114 90 210 90h22l-10 -80h-28q-38 0 -77 -14t-106 -48v-357h-85v487h66z" />
    <glyph glyph-name="Sacute" unicode="&#x15a;" horiz-adv-x="561" 
d="M434 848l-192 -120l-29 39l172 146zM279 702q122 -2 205 -20l-6 -64q-97 5 -195 5q-36 0 -54 -1t-38 -6.5t-28.5 -16.5t-14 -30.5t-5.5 -50.5q0 -55 20 -78t68 -35l139 -35q78 -19 109 -65t31 -129q0 -114 -51.5 -151t-179.5 -37q-109 0 -214 19l6 65q168 -6 210 -5
q83 0 111.5 21t28.5 90q0 57 -19.5 79.5t-67.5 34.5l-143 36q-73 18 -104.5 64.5t-31.5 127.5q0 60 12.5 96.5t43 55t68 24.5t100.5 6z" />
    <glyph glyph-name="sacute" unicode="&#x15b;" horiz-adv-x="508" 
d="M414 668l-192 -120l-29 39l172 146zM240 499q118 -2 204 -15l-6 -62q-153 5 -185 5q-74 1 -97.5 -9t-23.5 -53q0 -35 15.5 -48t56.5 -22l141 -32q60 -15 87 -44.5t27 -89.5q0 -85 -47 -112.5t-161 -27.5q-103 0 -191 14l6 62q84 -5 167 -4q85 0 114 13t29 55
q0 33 -17.5 45.5t-58.5 22.5l-140 32q-60 14 -85 45t-25 91q0 81 42.5 108.5t147.5 25.5z" />
    <glyph glyph-name="Scedilla" unicode="&#x15e;" horiz-adv-x="561" 
d="M279 702q122 -2 205 -20l-6 -64q-97 5 -195 5q-36 0 -54 -1t-38 -6.5t-28.5 -16.5t-14 -30.5t-5.5 -50.5q0 -55 20 -78t68 -35l139 -35q78 -19 109 -65t31 -129q0 -114 -51.5 -151t-179.5 -37q-109 0 -214 19l6 65q168 -6 210 -5q83 0 111.5 21t28.5 90q0 57 -19.5 79.5
t-67.5 34.5l-143 36q-73 18 -104.5 64.5t-31.5 127.5q0 60 12.5 96.5t43 55t68 24.5t100.5 6zM232 -95l9 40q61 6 86.5 -8t24.5 -57q-1 -63 -48 -97t-119 -24l13 45q41 -1 66.5 18.5t26.5 50.5q1 18 -11 24.5t-48 7.5z" />
    <glyph glyph-name="scedilla" unicode="&#x15f;" horiz-adv-x="508" 
d="M240 499q118 -2 204 -15l-6 -62q-153 5 -185 5q-74 1 -97.5 -9t-23.5 -53q0 -35 15.5 -48t56.5 -22l141 -32q60 -15 87 -44.5t27 -89.5q0 -85 -47 -112.5t-161 -27.5q-103 0 -191 14l6 62q84 -5 167 -4q85 0 114 13t29 55q0 33 -17.5 45.5t-58.5 22.5l-140 32
q-60 14 -85 45t-25 91q0 81 42.5 108.5t147.5 25.5zM197 -94l9 40q61 6 86.5 -8t24.5 -57q-1 -63 -48 -97t-119 -24l13 45q41 -1 66.5 18.5t26.5 50.5q1 18 -11 24.5t-48 7.5z" />
    <glyph glyph-name="Scaron" unicode="&#x160;" horiz-adv-x="561" 
d="M443 872l-143 -128h-40l-143 128l29 36l130 -87h8l129 87zM279 702q122 -2 205 -20l-6 -64q-97 5 -195 5q-36 0 -54 -1t-38 -6.5t-28.5 -16.5t-14 -30.5t-5.5 -50.5q0 -55 20 -78t68 -35l139 -35q78 -19 109 -65t31 -129q0 -114 -51.5 -151t-179.5 -37q-109 0 -214 19
l6 65q168 -6 210 -5q83 0 111.5 21t28.5 90q0 57 -19.5 79.5t-67.5 34.5l-143 36q-73 18 -104.5 64.5t-31.5 127.5q0 60 12.5 96.5t43 55t68 24.5t100.5 6z" />
    <glyph glyph-name="scaron" unicode="&#x161;" horiz-adv-x="508" 
d="M422 692l-143 -128h-40l-143 128l29 36l130 -87h8l129 87zM240 499q118 -2 204 -15l-6 -62q-153 5 -185 5q-74 1 -97.5 -9t-23.5 -53q0 -35 15.5 -48t56.5 -22l141 -32q60 -15 87 -44.5t27 -89.5q0 -85 -47 -112.5t-161 -27.5q-103 0 -191 14l6 62q84 -5 167 -4
q85 0 114 13t29 55q0 33 -17.5 45.5t-58.5 22.5l-140 32q-60 14 -85 45t-25 91q0 81 42.5 108.5t147.5 25.5z" />
    <glyph glyph-name="Tcedilla" unicode="&#x162;" horiz-adv-x="581" 
d="M557 690v-78h-223v-612h-88v612h-222v78h533zM235 -83l9 40q61 6 86.5 -8t24.5 -57q-1 -63 -48 -97t-119 -24l13 45q41 -1 66.5 18.5t26.5 50.5q1 18 -11 24.5t-48 7.5z" />
    <glyph glyph-name="tcedilla" unicode="&#x163;" horiz-adv-x="381" 
d="M200 420v-286q0 -35 15 -50t51 -15h74l9 -65q-45 -13 -109 -13q-61 0 -93 34t-32 98v297h-88v62l88 5v144h85v-144h155v-67h-155zM163 -92l9 40q61 6 86.5 -8t24.5 -57q-1 -63 -48 -97t-119 -24l13 45q41 -1 66.5 18.5t26.5 50.5q1 18 -11 24.5t-48 7.5z" />
    <glyph glyph-name="Tcaron" unicode="&#x164;" horiz-adv-x="581" 
d="M272 744l-143 128l29 36l130 -87h8l129 87l30 -36l-143 -128h-40zM557 612h-223v-612h-88v612h-222v78h533v-78z" />
    <glyph glyph-name="tcaron" unicode="&#x165;" horiz-adv-x="381" 
d="M289 669q-21 0 -21 24v50q1 27 30 27h23q16 0 22 -6t5 -21l1 -55q-1 -69 -32 -132l-37 10q9 52 9 103zM200 420v-286q0 -35 15 -50t51 -15h74l9 -65q-45 -13 -109 -13q-61 0 -93 34t-32 98v297h-88v62l88 5v144h85v-144h155v-67h-155z" />
    <glyph glyph-name="Tbar" unicode="&#x166;" horiz-adv-x="581" 
d="M334 612v-191h140v-50h-140v-371h-88v371h-141v50h141v191h-222v78h533v-78h-223z" />
    <glyph glyph-name="tbar" unicode="&#x167;" horiz-adv-x="381" 
d="M200 420v-95h131v-48h-131v-143q0 -35 15 -50t51 -15h74l9 -65q-45 -13 -109 -13q-61 0 -93 34t-32 98v154h-65v48h65v95h-88v62l88 5v144h85v-144h155v-67h-155z" />
    <glyph glyph-name="Umacron" unicode="&#x16a;" horiz-adv-x="666" 
d="M473 786h-278v63h278v-63zM584 690v-426q0 -151 -56 -214t-191 -63q-140 0 -197.5 63t-57.5 214v426h88v-426q0 -111 36 -154.5t127 -43.5q90 0 126.5 43.5t36.5 154.5v426h88z" />
    <glyph glyph-name="umacron" unicode="&#x16b;" 
d="M426 610h-278v63h278v-63zM492 487v-487h-68l-7 70q-109 -83 -209 -83q-133 0 -133 134v366h85v-342q0 -46 17.5 -65t59.5 -19q37 0 75 16.5t95 53.5v356h85z" />
    <glyph glyph-name="Uring" unicode="&#x16e;" horiz-adv-x="666" 
d="M334 925q44 0 75.5 -30.5t31.5 -74.5q0 -45 -31 -75t-76 -30t-76 30t-31 75q0 44 31.5 74.5t75.5 30.5zM334 881q-26 0 -42.5 -17t-16.5 -44q0 -28 17 -44.5t42 -16.5q26 0 43 16.5t17 44.5q0 27 -17 44t-43 17zM584 690v-426q0 -151 -56 -214t-191 -63q-140 0 -197.5 63
t-57.5 214v426h88v-426q0 -111 36 -154.5t127 -43.5q90 0 126.5 43.5t36.5 154.5v426h88z" />
    <glyph glyph-name="uring" unicode="&#x16f;" 
d="M287 538q-45 0 -76 30t-31 75q0 44 31.5 74.5t75.5 30.5t75.5 -30.5t31.5 -74.5q0 -45 -31 -75t-76 -30zM287 704q-26 0 -42.5 -17t-16.5 -44q0 -28 17 -44.5t42 -16.5q26 0 43 16.5t17 44.5q0 27 -17 44t-43 17zM492 487v-487h-68l-7 70q-109 -83 -209 -83
q-133 0 -133 134v366h85v-342q0 -46 17.5 -65t59.5 -19q37 0 75 16.5t95 53.5v356h85z" />
    <glyph glyph-name="Uhungarumlaut" unicode="&#x170;" horiz-adv-x="666" 
d="M375 881l-134 -159l-38 28l110 174zM539 881l-134 -159l-37 28l109 174zM584 690v-426q0 -151 -56 -214t-191 -63q-140 0 -197.5 63t-57.5 214v426h88v-426q0 -111 36 -154.5t127 -43.5q90 0 126.5 43.5t36.5 154.5v426h88z" />
    <glyph glyph-name="uhungarumlaut" unicode="&#x171;" 
d="M194 546l-38 28l110 174l62 -43zM321 574l109 174l62 -43l-134 -159zM407 487h85v-487h-68l-7 70q-109 -83 -209 -83q-133 0 -133 134v366h85v-342q0 -46 17.5 -65t59.5 -19q37 0 75 16.5t95 53.5v356z" />
    <glyph glyph-name="Uogonek" unicode="&#x172;" horiz-adv-x="666" 
d="M584 690v-426q0 -141 -48.5 -205t-164.5 -71q-50 -57 -71 -111q-15 -36 7.5 -48t70.5 4l10 -35q-92 -35 -130.5 -8.5t-17.5 84.5q19 55 89 113q-135 1 -191 64.5t-56 212.5v426h88v-426q0 -111 36 -154.5t127 -43.5q90 0 126.5 43.5t36.5 154.5v426h88z" />
    <glyph glyph-name="uogonek" unicode="&#x173;" 
d="M498 -158l10 -35q-92 -35 -130.5 -8.5t-17.5 84.5q19 58 93 117h-29l-7 70q-109 -83 -209 -83q-133 0 -133 134v366h85v-342q0 -46 17.5 -65t59.5 -19q37 0 75 16.5t95 53.5v356h85v-487h2q-54 -61 -74 -114q-15 -36 7.5 -48t70.5 4z" />
    <glyph glyph-name="Wcircumflex" unicode="&#x174;" horiz-adv-x="948" 
d="M638 769l-30 -37l-129 97h-8l-130 -97l-29 37l132 127h61zM917 690l-140 -664q-7 -26 -35 -26h-100q-29 0 -34 27l-108 519q-3 13 -8 39t-8 39h-21l-15 -78l-107 -519q-7 -27 -35 -27h-101q-13 0 -22.5 7.5t-11.5 18.5l-140 664h93l108 -538q1 -4 14 -85h24q5 42 15 85
l107 509q7 29 34 29h96q27 0 34 -29l107 -509q9 -45 15 -85h24q8 59 14 84l109 539h92z" />
    <glyph glyph-name="wcircumflex" unicode="&#x175;" horiz-adv-x="824" 
d="M576 590l-30 -37l-129 97h-8l-130 -97l-29 37l132 127h61zM800 487l-143 -463q-6 -24 -32 -24h-77q-27 0 -34 27l-80 331q-13 67 -16 77h-11q-6 -27 -18 -77l-79 -331q-5 -27 -34 -27h-75q-28 0 -33 24l-143 463h88l102 -359q5 -19 16 -73h13q11 43 17 73l81 332
q7 27 32 27h77q27 0 32 -28l80 -331l18 -73h13q11 56 16 73l102 359h88z" />
    <glyph glyph-name="Ycircumflex" unicode="&#x176;" horiz-adv-x="569" 
d="M150 733l-29 37l132 127h61l133 -127l-30 -37l-129 97h-8zM328 242v-242h-88v244l-229 446h94l145 -291q12 -24 31 -78h7q16 44 31 77l145 292h93z" />
    <glyph glyph-name="ycircumflex" unicode="&#x177;" horiz-adv-x="529" 
d="M133 553l-29 37l132 127h61l133 -127l-30 -37l-129 97h-8zM510 487l-194 -514q-66 -172 -213 -179l-9 56q57 18 89.5 49.5t52.5 79.5l9 21h-20q-24 0 -30 22l-177 465h91l129 -363q11 -33 18 -59h15q3 10 10 30t10 29l128 363h91z" />
    <glyph glyph-name="Ydieresis" unicode="&#x178;" horiz-adv-x="569" 
d="M210 767h-29q-23 0 -23 24v55q0 24 23 24h29q23 0 23 -24v-55q0 -24 -23 -24zM387 767h-28q-24 0 -24 24v55q0 24 24 24h28q24 0 24 -24v-55q0 -24 -24 -24zM328 242v-242h-88v244l-229 446h94l145 -291q12 -24 31 -78h7q16 44 31 77l145 292h93z" />
    <glyph glyph-name="Zacute" unicode="&#x179;" horiz-adv-x="566" 
d="M249 728l-29 39l172 146l49 -65zM518 75v-75h-470v75l367 540h-361v75h459v-75h-1l-366 -540h372z" />
    <glyph glyph-name="zacute" unicode="&#x17a;" horiz-adv-x="510" 
d="M219 548l-29 39l172 146l49 -65zM462 69v-69h-413v69l314 348h-311v70h405v-70h1l-313 -348h317z" />
    <glyph glyph-name="Zdotaccent" unicode="&#x17b;" horiz-adv-x="566" 
d="M299 759h-27q-26 0 -26 26v57q0 25 26 25h27q26 0 26 -25v-57q0 -26 -26 -26zM518 75v-75h-470v75l367 540h-361v75h459v-75h-1l-366 -540h372z" />
    <glyph glyph-name="zdotaccent" unicode="&#x17c;" horiz-adv-x="510" 
d="M269 579h-27q-26 0 -26 26v57q0 25 26 25h27q26 0 26 -25v-57q0 -26 -26 -26zM462 69v-69h-413v69l314 348h-311v70h405v-70h1l-313 -348h317z" />
    <glyph glyph-name="Zcaron" unicode="&#x17d;" horiz-adv-x="566" 
d="M267 744l-143 128l29 36l130 -87h8l129 87l30 -36l-143 -128h-40zM518 75v-75h-470v75l367 540h-361v75h459v-75h-1l-366 -540h372z" />
    <glyph glyph-name="zcaron" unicode="&#x17e;" horiz-adv-x="510" 
d="M236 564l-143 128l29 36l130 -87h8l129 87l30 -36l-143 -128h-40zM462 69v-69h-413v69l314 348h-311v70h405v-70h1l-313 -348h317z" />
    <glyph glyph-name="florin" unicode="&#x192;" horiz-adv-x="442" 
d="M417 630h-71q-46 0 -66 -17t-24 -65l-14 -150h143l-7 -67h-142l-32 -335q-6 -70 -41 -106t-107 -36q-63 0 -102 7l11 64h67q44 0 63.5 18.5t23.5 62.5l31 325h-98l4 63l100 4l15 160q13 142 155 142q70 0 102 -6z" />
    <glyph glyph-name="Scommaaccent" unicode="&#x218;" horiz-adv-x="561" 
d="M279 702q122 -2 205 -20l-6 -64q-97 5 -195 5q-36 0 -54 -1t-38 -6.5t-28.5 -16.5t-14 -30.5t-5.5 -50.5q0 -55 20 -78t68 -35l139 -35q78 -19 109 -65t31 -129q0 -114 -51.5 -151t-179.5 -37q-109 0 -214 19l6 65q168 -6 210 -5q83 0 111.5 21t28.5 90q0 57 -19.5 79.5
t-67.5 34.5l-143 36q-73 18 -104.5 64.5t-31.5 127.5q0 60 12.5 96.5t43 55t68 24.5t100.5 6zM275 -59h23q16 0 22 -6t5 -21l1 -55q-1 -69 -32 -132l-37 10q9 52 9 103q-21 0 -21 24v50q1 27 30 27z" />
    <glyph glyph-name="scommaaccent" unicode="&#x219;" horiz-adv-x="508" 
d="M240 499q118 -2 204 -15l-6 -62q-153 5 -185 5q-74 1 -97.5 -9t-23.5 -53q0 -35 15.5 -48t56.5 -22l141 -32q60 -15 87 -44.5t27 -89.5q0 -85 -47 -112.5t-161 -27.5q-103 0 -191 14l6 62q84 -5 167 -4q85 0 114 13t29 55q0 33 -17.5 45.5t-58.5 22.5l-140 32
q-60 14 -85 45t-25 91q0 81 42.5 108.5t147.5 25.5zM250 -59h23q16 0 22 -6t5 -21l1 -55q-1 -69 -32 -132l-37 10q9 52 9 103q-21 0 -21 24v50q1 27 30 27z" />
    <glyph glyph-name="uni021A" unicode="&#x21a;" horiz-adv-x="581" 
d="M557 612h-223v-612h-88v612h-222v78h533v-78zM268 -59h23q16 0 22 -6t5 -21l1 -55q-1 -69 -32 -132l-37 10q9 52 9 103q-21 0 -21 24v50q1 27 30 27z" />
    <glyph glyph-name="uni021B" unicode="&#x21b;" horiz-adv-x="381" 
d="M200 420v-286q0 -35 15 -50t51 -15h74l9 -65q-45 -13 -109 -13q-61 0 -93 34t-32 98v297h-88v62l88 5v144h85v-144h155v-67h-155zM219 -59h23q16 0 22 -6t5 -21l1 -55q-1 -69 -32 -132l-37 10q9 52 9 103q-21 0 -21 24v50q1 27 30 27z" />
    <glyph glyph-name="circumflex" unicode="&#x2c6;" horiz-adv-x="420" 
d="M374 586l-30 -37l-129 97h-8l-130 -97l-29 37l132 127h61z" />
    <glyph glyph-name="caron" unicode="&#x2c7;" horiz-adv-x="420" 
d="M374 688l-143 -128h-40l-143 128l29 36l130 -87h8l129 87z" />
    <glyph glyph-name="breve" unicode="&#x2d8;" horiz-adv-x="375" 
d="M294 696l44 -6q4 -59 -37 -95.5t-113 -36.5t-113 36.5t-37 95.5l44 6q-1 -35 27 -55t80 -20q49 0 77 20t28 55z" />
    <glyph glyph-name="dotaccent" unicode="&#x2d9;" horiz-adv-x="221" 
d="M97 685h27q26 0 26 -25v-57q0 -26 -26 -26h-27q-26 0 -26 26v57q0 25 26 25z" />
    <glyph glyph-name="ring" unicode="&#x2da;" horiz-adv-x="300" 
d="M150 742q44 0 75.5 -30.5t31.5 -74.5q0 -45 -31 -75t-76 -30t-76 30t-31 75q0 44 31.5 74.5t75.5 30.5zM150 698q-26 0 -42.5 -17t-16.5 -44q0 -28 17 -44.5t42 -16.5q26 0 43 16.5t17 44.5q0 27 -17 44t-43 17z" />
    <glyph glyph-name="ogonek" unicode="&#x2db;" horiz-adv-x="252" 
d="M144 2l38 -2q-54 -61 -74 -114q-15 -36 7.5 -48t70.5 4l10 -35q-92 -35 -130.5 -8.5t-17.5 84.5q20 59 96 119z" />
    <glyph glyph-name="tilde" unicode="&#x2dc;" horiz-adv-x="420" 
d="M130 699q32 -3 77 -27.5t72 -27.5q28 -4 38.5 8t10.5 42h40q6 -55 -16 -85t-62 -27q-37 3 -83.5 28.5t-67.5 28.5q-27 3 -37 -10t-10 -44h-40q-6 58 16.5 87.5t61.5 26.5z" />
    <glyph glyph-name="hungarumlaut" unicode="&#x2dd;" horiz-adv-x="455" 
d="M228 691l-134 -159l-38 28l110 174zM392 691l-134 -159l-37 28l109 174z" />
    <glyph glyph-name="Delta" unicode="&#x394;" horiz-adv-x="626" 
d="M601 37v-37h-576v37l244 653h88zM314 605q-20 -67 -24 -79l-164 -454h372l-162 455q-4 11 -22 78z" />
    <glyph glyph-name="Omega" unicode="&#x3a9;" horiz-adv-x="719" 
d="M360 703q147 0 214 -82t67 -249q0 -110 -33.5 -177t-111.5 -124q36 6 66 6h104l1 -77h-251l-1 74q75 52 104.5 117t30.5 170q-1 140 -45 202t-146 62q-104 0 -147 -61.5t-43 -204.5q0 -108 30 -168.5t104 -116.5v-74h-251v77h104q38 0 66 -6q-78 57 -111.5 125.5
t-32.5 175.5q0 168 66 249.5t216 81.5z" />
    <glyph glyph-name="mu" unicode="&#x3bc;" horiz-adv-x="594" 
d="M505 487v-487h-66l-8 76q-103 -89 -196 -89q-45 0 -80 19q6 -32 6 -66v-141h-75v688h85v-342q-1 -39 20 -58t64 -19q65 0 165 61v358h85z" />
    <glyph glyph-name="pi" unicode="&#x3c0;" horiz-adv-x="643" 
d="M615 418h-94v-418h-85v418h-230v-418h-84v418h-95v69h589z" />
    <glyph glyph-name="uni0401" unicode="&#x401;" horiz-adv-x="560" 
d="M235 788h-29q-23 0 -23 24v54q0 24 23 24h29q23 0 23 -24v-54q0 -24 -23 -24zM412 788h-28q-24 0 -24 24v54q0 24 24 24h28q24 0 24 -24v-54q0 -24 -24 -24zM505 73l4 -68q-92 -6 -295 -6q-62 0 -97.5 32.5t-35.5 87.5v452q0 55 36 87.5t97 32.5q203 0 295 -6l-4 -69
h-277q-31 0 -45 -16t-14 -50v-150h297v-71h-297v-189q0 -35 14 -51t45 -16h277z" />
    <glyph glyph-name="uni0402" unicode="&#x402;" horiz-adv-x="752" 
d="M537 442q81 0 126 -45t45 -165q0 -130 -66 -185.5t-190 -50.5l-8 64q94 6 135.5 40t41.5 124q0 87 -25.5 114.5t-86.5 27.5q-82 0 -175 -53v-313h-88v612h-222v78h533v-78h-223v-228q95 58 203 58z" />
    <glyph glyph-name="uni0403" unicode="&#x403;" horiz-adv-x="518" 
d="M450 848l-192 -120l-29 39l172 146zM211 691q196 0 287 -7l-5 -68h-253q-35 0 -51 -16.5t-16 -54.5v-545h-88v561q0 57 35.5 93.5t90.5 36.5z" />
    <glyph glyph-name="uni0404" unicode="&#x404;" horiz-adv-x="577" 
d="M526 78l10 -67q-82 -23 -197 -23q-154 0 -216 80t-62 277t62 277t216 80q109 0 190 -20l-9 -68q-77 9 -182 9q-96 0 -137 -49.5t-48 -172.5l295 -1v-68l-296 -1q1 -148 42 -206t144 -58q112 0 188 11z" />
    <glyph glyph-name="uni0405" unicode="&#x405;" horiz-adv-x="561" 
d="M279 702q122 -2 205 -20l-6 -64q-97 5 -195 5q-44 0 -65 -2t-41 -12t-26.5 -31.5t-6.5 -59.5q0 -55 19.5 -78t67.5 -35l140 -35q77 -19 108 -65t31 -129q0 -114 -51.5 -151t-179.5 -37q-109 0 -214 19l6 65q168 -6 211 -5q82 0 110.5 21t28.5 90q0 57 -19.5 79.5
t-67.5 34.5l-143 36q-73 18 -104.5 64.5t-31.5 127.5q0 60 12.5 96.5t43 55t68 24.5t100.5 6z" />
    <glyph glyph-name="uni0406" unicode="&#x406;" horiz-adv-x="262" 
d="M175 0h-88v690h88v-690z" />
    <glyph glyph-name="uni0407" unicode="&#x407;" horiz-adv-x="262" 
d="M28 869h29q23 0 23 -24v-55q0 -24 -23 -24h-29q-24 0 -24 24v55q0 24 24 24zM205 869h29q23 0 23 -24v-55q0 -24 -23 -24h-29q-24 0 -24 24v55q0 24 24 24zM175 0h-88v690h88v-690z" />
    <glyph glyph-name="uni0408" unicode="&#x408;" horiz-adv-x="340" 
d="M256 690v-545q0 -76 -34.5 -115t-99.5 -39q-56 0 -92 13l10 62h50q78 0 78 76v548h88z" />
    <glyph glyph-name="uni0409" unicode="&#x409;" horiz-adv-x="970" 
d="M555 412h142q128 0 177.5 -46.5t49.5 -164.5q0 -120 -48 -164.5t-166 -44.5q-155 0 -242 8v618h-130q-33 0 -48 -17.5t-18 -52.5q-18 -201 -30 -277t-41 -141t-69 -96t-103 -35l-7 60q58 24 96 96q21 41 33.5 95.5t17.5 101t14 159.5q3 33 4 50q7 129 143 129h225v-278z
M697 69q82 0 110 26.5t28 107.5q0 77 -27.5 106t-110.5 29h-142v-268q38 -1 142 -1z" />
    <glyph glyph-name="uni040A" unicode="&#x40a;" horiz-adv-x="979" 
d="M563 410h143q127 0 176.5 -46t49.5 -164q0 -120 -47.5 -164t-165.5 -44q-156 0 -243 8v338h-301v-338h-88v690h88v-280h301v280h87v-280zM706 69q82 0 110 26t28 106q0 78 -28 107.5t-110 29.5h-143v-268q38 -1 143 -1z" />
    <glyph glyph-name="uni040B" unicode="&#x40b;" horiz-adv-x="776" 
d="M562 442q80 0 119 -38.5t39 -117.5v-286h-88v269q0 53 -22.5 74.5t-77.5 21.5q-97 0 -198 -54v-311h-88v612h-222v78h533v-78h-223v-229q114 59 228 59z" />
    <glyph glyph-name="uni040C" unicode="&#x40c;" horiz-adv-x="600" 
d="M267 728l-29 39l172 146l49 -65zM326 362v-4q35 -3 63 -19t47.5 -38t40 -64t35 -79.5t37.5 -101.5q13 -37 20 -56h-92q-6 16 -17 47q-20 57 -30 83.5t-27.5 66t-31 57t-33.5 37t-43 26.5t-52 7h-75q6 -38 6 -73v-251h-87v690h87v-216q0 -42 -6 -79h76q21 0 39.5 5
t34.5 17t28.5 23.5t26 35t22 39.5t21 48.5t19.5 51.5t21 58q1 4 2 6t2 5l2 6h89q-58 -165 -83 -213q-53 -100 -131 -113q-5 -1 -11 -2z" />
    <glyph glyph-name="uni040D" unicode="&#x40d;" horiz-adv-x="691" 
d="M398 767l-29 -39l-192 120l48 65zM604 0h-85v503q0 47 5 79h-5q-14 -34 -36 -75l-306 -507h-90v690h85v-498q0 -37 -5 -82h4q15 33 39 75l303 505h91v-690z" />
    <glyph glyph-name="uni040E" unicode="&#x40e;" horiz-adv-x="563" 
d="M281 745q-72 0 -113 36.5t-37 95.5l44 6q-1 -35 27 -55t80 -20q49 0 77 20t28 55l44 -6q4 -59 -37 -95.5t-113 -36.5zM552 690l-187 -520q-29 -82 -63 -127t-92 -50q-60 -4 -124 14l10 65q37 -3 56.5 -4.5t39.5 2t28.5 8t20 19t17.5 29t18 44.5l12 31h-39q-51 0 -69 47
l-159 442h90l140 -399q6 -16 22 -16h41l147 415h91z" />
    <glyph glyph-name="uni040F" unicode="&#x40f;" horiz-adv-x="674" 
d="M587 690v-690h-213l-4 -151h-60l-6 151h-217v690h88v-618h324v618h88z" />
    <glyph glyph-name="uni0410" unicode="&#x410;" horiz-adv-x="622" 
d="M453 216h-284l-68 -216h-91l222 666q6 24 33 24h92q27 0 33 -24l222 -666h-91zM429 292l-87 274q-9 26 -17 56h-28q-8 -30 -17 -56l-87 -274h236z" />
    <glyph glyph-name="uni0411" unicode="&#x411;" horiz-adv-x="599" 
d="M175 393h146q128 0 177.5 -44.5t49.5 -158.5q0 -66 -14 -106t-47 -60.5t-73 -26.5t-108 -6q-118 0 -217 9h-2v690q108 6 214 6q105 0 210 -6l-8 -73h-328v-224zM321 67q83 0 110.5 25t27.5 102q0 75 -27.5 102.5t-110.5 27.5h-146v-256q38 -1 146 -1z" />
    <glyph glyph-name="uni0412" unicode="&#x412;" horiz-adv-x="620" 
d="M424 360v-4q75 -7 106.5 -52.5t31.5 -131.5q0 -104 -49 -142t-171 -38q-166 0 -255 8v690q79 8 224 8q129 0 179.5 -37.5t50.5 -142.5q0 -75 -28 -113.5t-89 -44.5zM307 623h-134v-232h148q77 1 106 25t29 92q0 69 -31.5 92t-117.5 23zM328 67q84 0 114.5 24t30.5 96
q0 79 -32.5 107t-118.5 30h-149v-256q41 -1 155 -1z" />
    <glyph glyph-name="uni0413" unicode="&#x413;" horiz-adv-x="518" 
d="M211 691q196 0 286 -7l-4 -68h-253q-36 0 -52 -16.5t-16 -54.5v-545h-87v561q0 57 35.5 93.5t90.5 36.5z" />
    <glyph glyph-name="uni0414" unicode="&#x414;" horiz-adv-x="693" 
d="M661 72v-223h-61l-8 151h-500l-9 -151h-61v223h67q85 181 101 489q2 61 39 95t101 34h246v-618h85zM488 72v546h-142q-37 0 -53.5 -16t-18.5 -54q-9 -155 -31 -267.5t-69 -208.5h314z" />
    <glyph glyph-name="uni0415" unicode="&#x415;" horiz-adv-x="560" 
d="M505 73l4 -68q-92 -6 -295 -6q-62 0 -97.5 32.5t-35.5 87.5v452q0 55 36 87.5t97 32.5q203 0 295 -6l-4 -69h-277q-31 0 -45 -16t-14 -50v-150h297v-71h-297v-189q0 -35 14 -51t45 -16h277z" />
    <glyph glyph-name="uni0416" unicode="&#x416;" horiz-adv-x="908" 
d="M633 362v-4q36 -3 65.5 -21.5t48.5 -38t42.5 -70t35.5 -82t39 -109.5q9 -24 13 -37h-93q-65 175 -83 211q-43 88 -100 106q-20 7 -44 7h-65q6 -37 6 -73v-251h-84v251q0 29 7 73h-71q-51 0 -89 -37t-57.5 -80.5t-60.5 -153.5q-13 -35 -20 -53h-92q64 183 88 231
q48 96 116 119q18 6 39 8v4q-33 4 -61 21t-47 40t-38.5 64t-33.5 77t-34 94q-2 7 -3.5 11t-3.5 10t-4 11h90q57 -157 83 -203q53 -91 127 -92h71q-6 39 -6 79v216h84v-216q0 -48 -6 -79h66q25 0 46 8t39.5 28.5t31.5 38.5t30 56.5t26 62t28 74.5q2 6 3.5 9t3 8.5t3.5 9.5h90
q-58 -165 -83 -213q-53 -100 -132 -113q-5 -1 -11 -2z" />
    <glyph glyph-name="uni0417" unicode="&#x417;" horiz-adv-x="550" 
d="M243 698q128 0 177.5 -37.5t49.5 -142.5q0 -75 -27.5 -113.5t-88.5 -44.5v-4q74 -7 105 -52.5t31 -131.5q0 -104 -48.5 -142t-168.5 -38q-143 0 -236 22l7 64q113 -13 215 -13q81 0 111 24.5t30 97.5q0 79 -32 107.5t-116 28.5h-116v69h116q74 0 102 24t28 92
q0 70 -31 94t-113 24q-60 0 -178 -11l-7 67q89 16 190 16z" />
    <glyph glyph-name="uni0418" unicode="&#x418;" horiz-adv-x="691" 
d="M604 0h-85v503q0 47 5 79h-5q-14 -34 -36 -75l-306 -507h-90v690h85v-498q0 -37 -5 -82h4q15 33 39 75l303 505h91v-690z" />
    <glyph glyph-name="uni0419" unicode="&#x419;" horiz-adv-x="691" 
d="M433 882h65q4 -59 -37 -98t-112 -39q-72 0 -113.5 39t-37.5 98h65q0 -43 22.5 -66.5t63.5 -23.5q40 0 62 23.5t22 66.5zM604 0h-85v503q0 47 5 79h-5q-14 -34 -36 -75l-306 -507h-90v690h85v-498q0 -37 -5 -82h4q15 33 39 75l303 505h91v-690z" />
    <glyph glyph-name="uni041A" unicode="&#x41a;" horiz-adv-x="600" 
d="M325 362v-4q19 -2 36.5 -8t31.5 -12.5t28 -21.5t23.5 -26t22 -35t19.5 -38t20 -46.5t19.5 -50.5t21 -58.5t22.5 -61.5h-93l-15 42q-18 50 -26.5 73.5t-23.5 60.5t-25.5 53.5t-27 39t-32.5 32t-37 16.5t-46 7h-75q6 -38 6 -73v-251h-87v690h87v-216q0 -42 -6 -79h75
q34 0 62 16t46 34.5t40 65t32 72.5t33 93q3 9 5 14h90q-3 -10 -10 -28q-55 -159 -88 -211q-51 -81 -128 -89z" />
    <glyph glyph-name="uni041B" unicode="&#x41b;" horiz-adv-x="651" 
d="M564 690v-690h-88v618h-138q-68 0 -74 -70q-13 -148 -19 -201t-19 -113t-34 -104q-60 -131 -174 -131l-8 68q69 21 99 87q28 63 41 139.5t28 270.5q12 126 137 126h249z" />
    <glyph glyph-name="uni041C" unicode="&#x41c;" horiz-adv-x="877" 
d="M640 690h99q36 0 36 -37l29 -653h-88l-25 617h-21l-154 -509q-8 -30 -38 -30h-79q-31 0 -40 30l-154 509h-20l-24 -617h-88l27 653q2 37 37 37h100q28 0 37 -30l129 -421q6 -18 15.5 -53.5t10.5 -39.5h18q3 11 11.5 43.5t14.5 51.5l129 419q8 30 38 30z" />
    <glyph glyph-name="uni041D" unicode="&#x41d;" horiz-adv-x="668" 
d="M581 690v-690h-88v331h-318v-331h-88v690h88v-283h318v283h88z" />
    <glyph glyph-name="uni041E" unicode="&#x41e;" horiz-adv-x="668" 
d="M334 703q152 0 212 -78.5t60 -279.5t-60 -279.5t-212 -78.5t-212.5 78.5t-60.5 279.5t60.5 279.5t212.5 78.5zM334 624q-102 0 -141 -60.5t-39 -218.5t39 -218.5t141 -60.5t141 60.5t39 218.5t-39 218.5t-141 60.5z" />
    <glyph glyph-name="uni041F" unicode="&#x41f;" horiz-adv-x="669" 
d="M582 690v-690h-88v618h-319v-618h-88v690h495z" />
    <glyph glyph-name="uni0420" unicode="&#x420;" horiz-adv-x="590" 
d="M325 699q125 0 173 -45.5t48 -170.5t-46.5 -170.5t-165.5 -45.5q-73 0 -159 8v-275h-88v690q84 9 238 9zM175 343h148q77 1 105.5 29.5t28.5 110.5t-29 111t-105 29q-109 0 -148 -1v-279z" />
    <glyph glyph-name="uni0421" unicode="&#x421;" 
d="M332 702q107 0 188 -20l-9 -67q-90 9 -179 9q-101 0 -139.5 -60.5t-38.5 -218.5t38.5 -218.5t139.5 -60.5q116 0 193 11l9 -66q-83 -23 -202 -23q-149 0 -210 80t-61 277t61 277t210 80z" />
    <glyph glyph-name="uni0422" unicode="&#x422;" horiz-adv-x="581" 
d="M557 612h-223v-612h-88v612h-222v78h533v-78z" />
    <glyph glyph-name="uni0423" unicode="&#x423;" horiz-adv-x="563" 
d="M551 690l-186 -520q-30 -83 -64 -127.5t-91 -49.5q-60 -4 -124 14l10 65q37 -3 56.5 -4.5t39.5 2t28 7.5t19.5 19t18 29.5t18.5 44.5l12 31h-38q-53 0 -69 47l-160 442h91l139 -399q6 -16 23 -16h40l147 415h90z" />
    <glyph glyph-name="uni0424" unicode="&#x424;" horiz-adv-x="822" 
d="M771 352q-1 -156 -71.5 -221t-244.5 -71v-97h-88v97q-175 6 -245.5 71t-70.5 221q0 159 70.5 225t245.5 72v97h87l1 -97q174 -6 244.5 -72t71.5 -225zM141 352q0 -120 49 -166.5t180 -51.5v441q-131 -5 -180 -52.5t-49 -170.5zM451 575v-441q131 5 180 51.5t50 166.5
q-1 123 -50 170.5t-180 52.5z" />
    <glyph glyph-name="uni0425" unicode="&#x425;" horiz-adv-x="613" 
d="M319 324h-26l-172 -324h-95l194 357l-181 333h95l158 -298h29l158 298h95l-182 -333l195 -357h-96z" />
    <glyph glyph-name="uni0426" unicode="&#x426;" horiz-adv-x="691" 
d="M659 72v-223h-61l-9 151h-502v690h88v-618h311v618h88v-618h85z" />
    <glyph glyph-name="uni0427" unicode="&#x427;" horiz-adv-x="625" 
d="M538 690v-690h-87v316q-115 -65 -237 -65q-79 0 -116.5 38t-37.5 118v283h88v-265q-1 -50 22 -72.5t75 -22.5q95 0 206 54v306h87z" />
    <glyph glyph-name="uni0428" unicode="&#x428;" horiz-adv-x="929" 
d="M842 690v-690h-755v690h86v-618h249v618h85v-618h249v618h86z" />
    <glyph glyph-name="uni0429" unicode="&#x429;" horiz-adv-x="952" 
d="M920 72v-223h-61l-9 151h-763v690h86v-618h245v618h86v-618h246v618h85v-618h85z" />
    <glyph glyph-name="uni042A" unicode="&#x42a;" horiz-adv-x="748" 
d="M331 412h144q127 0 176.5 -47t49.5 -165q0 -120 -47.5 -164t-165.5 -44q-158 0 -246 8v612h-219v78h308v-278zM475 69q82 0 110 26t28 106q0 78 -28 107.5t-110 29.5h-144v-268q38 -1 144 -1z" />
    <glyph glyph-name="uni042B" unicode="&#x42b;" horiz-adv-x="846" 
d="M175 412h146q127 0 176.5 -47t49.5 -165q0 -120 -47.5 -164t-165.5 -44q-158 0 -245 8h-2v690h88v-278zM759 690v-690h-87v690h87zM321 69q82 0 110 26t28 106q0 78 -28 107.5t-110 29.5h-146v-268q39 -1 146 -1z" />
    <glyph glyph-name="uni042C" unicode="&#x42c;" horiz-adv-x="594" 
d="M175 412h146q127 0 176.5 -47t49.5 -165q0 -120 -47.5 -164t-165.5 -44q-158 0 -245 8h-2v690h88v-278zM321 69q82 0 110 26t28 106q0 78 -28 107.5t-110 29.5h-146v-268q39 -1 146 -1z" />
    <glyph glyph-name="uni042D" unicode="&#x42d;" horiz-adv-x="577" 
d="M238 702q154 0 215.5 -80t61.5 -277t-61.5 -277t-215.5 -80q-116 0 -197 23l9 67q76 -11 188 -11q103 0 144 58t42 206l-296 1v68l295 1q-6 123 -47.5 172.5t-137.5 49.5q-105 0 -181 -9l-10 68q81 20 191 20z" />
    <glyph glyph-name="uni042E" unicode="&#x42e;" horiz-adv-x="927" 
d="M591 703q152 0 212.5 -78.5t60.5 -279.5t-60.5 -279.5t-212.5 -78.5q-141 0 -198.5 74t-60.5 262h-156v-323h-88v690h88v-296h157q6 172 64 240.5t194 68.5zM591 66q102 0 141 60.5t40 218.5q-1 158 -40 218.5t-141 60.5q-98 0 -135 -60.5t-37 -218.5t37 -218.5
t135 -60.5z" />
    <glyph glyph-name="uni042F" unicode="&#x42f;" horiz-adv-x="613" 
d="M291 699q152 0 235 -9v-690h-88v281q-16 0 -65.5 -0.5t-84.5 -0.5q-69 0 -91 -73l-60 -207h-94l64 211q24 80 94 97l-1 5q-130 18 -128 184q0 109 51 155.5t168 46.5zM438 356v266q-39 1 -146 1q-73 0 -102 -28t-30 -103q0 -69 29 -102.5t99 -33.5h150z" />
    <glyph glyph-name="uni0430" unicode="&#x430;" horiz-adv-x="552" 
d="M310 499q85 0 125.5 -35.5t40.5 -120.5v-343h-67l-10 80q-34 -35 -87 -62t-114 -27q-67 0 -106 35.5t-39 100.5v53q0 57 35.5 88.5t99.5 31.5h203v43q-1 46 -22 65t-77 19q-71 0 -210 -13l-8 63q136 22 236 22zM215 64q39 -1 87 18.5t89 55.5v98l-188 -1q-64 -3 -64 -67
v-31q0 -38 18.5 -55.5t57.5 -17.5z" />
    <glyph glyph-name="uni0431" unicode="&#x431;" horiz-adv-x="574" 
d="M473 737l20 -66q-36 -22 -69 -33t-75.5 -19t-65.5 -14q-70 -20 -100 -62t-39 -103q-6 -30 -9 -71h2q20 47 60.5 75t125.5 28q107 0 150.5 -54t43.5 -181q0 -125 -48 -187t-175 -62q-61 0 -103.5 16t-65.5 40t-35.5 67.5t-15.5 82t-3 100.5q0 69 3.5 116t14.5 93
t31.5 75.5t53.5 53.5t81 38q27 8 69.5 15.5t77.5 18.5t71 33zM301 400q-85 0 -113.5 -38.5t-28.5 -124.5q0 -100 30 -138.5t106 -38.5q74 0 103.5 38t29.5 139q0 94 -27 128.5t-100 34.5z" />
    <glyph glyph-name="uni0432" unicode="&#x432;" horiz-adv-x="554" 
d="M377 252v-3q66 -5 94 -36.5t28 -92.5q0 -73 -43.5 -100t-151.5 -27q-142 0 -225 6v487q73 6 198 6q116 0 160.5 -27t44.5 -103q0 -52 -25 -79t-80 -31zM274 425q-69 1 -115 0v-144h128q64 0 89 15.5t25 58.5q0 41 -27.5 55.5t-99.5 14.5zM159 61l133 -1q69 0 95.5 16
t26.5 62t-28 64t-99 18h-128v-159z" />
    <glyph glyph-name="uni0433" unicode="&#x433;" horiz-adv-x="462" 
d="M185 489q175 0 255 -8l-3 -60h-217q-31 0 -45 -14.5t-14 -45.5v-361h-84v383q0 106 108 106z" />
    <glyph glyph-name="uni0434" unicode="&#x434;" horiz-adv-x="587" 
d="M549 68v-212h-56l-8 144h-393l-8 -144h-55v212h56q61 126 73 307q8 112 124 112h200v-419h67zM401 68v352h-105q-56 0 -61 -59q-15 -183 -74 -293h240z" />
    <glyph glyph-name="uni0435" unicode="&#x435;" horiz-adv-x="540" 
d="M299 60q84 0 170 12l8 -57q-64 -27 -189 -27q-126 0 -179 58.5t-53 198.5q0 141 52 197.5t171 56.5q109 0 159 -39.5t51 -119.5q0 -138 -116 -138h-227q6 -84 40 -113t113 -29zM283 427q-76 0 -106.5 -34t-32.5 -125h207q54 0 52 72q0 47 -27 67t-93 20z" />
    <glyph glyph-name="uni0436" unicode="&#x436;" horiz-adv-x="789" 
d="M563 255v-2q26 -3 46 -10t37.5 -24.5t28.5 -31.5t27 -50.5t24.5 -59t28.5 -77.5h-87q-53 134 -73 165q-35 54 -91 56h-4h-71q5 -28 5 -48v-173h-75v173q0 20 5 48h-76q-54 -1 -82 -40.5t-75 -155.5q-6 -16 -10 -25h-87q20 55 28.5 77.5t24.5 59t27 50.5t28.5 31.5
t37.5 24.5t46 10v2q-46 5 -78.5 36.5t-47 63t-47.5 120.5q-3 8 -5 12h85q19 -48 28.5 -70.5t25.5 -53.5t29 -44.5t32.5 -23.5t43.5 -10h72q-5 22 -5 57v145h75v-145q0 -34 -5 -57h67q55 0 85.5 44.5t73.5 157.5h86q-21 -56 -30 -79.5t-26 -59t-32 -50t-38 -27.5t-52 -16z
" />
    <glyph glyph-name="uni0437" unicode="&#x437;" horiz-adv-x="496" 
d="M204 495q124 0 171.5 -26.5t47.5 -103.5q0 -54 -23 -81t-79 -32v-3q63 -5 91.5 -36t28.5 -93q0 -75 -47 -102t-162 -27q-111 0 -194 15l7 65q90 -8 181 -8q74 0 100.5 15.5t26.5 59.5q0 45 -27.5 62t-98.5 17h-116v62l116 1q65 0 88.5 15.5t23.5 58.5q0 42 -27.5 55.5
t-106.5 13.5q-86 0 -145 -8l-6 65q62 15 150 15z" />
    <glyph glyph-name="uni0438" unicode="&#x438;" horiz-adv-x="587" 
d="M507 0h-77v323q0 12 1.5 35.5t1.5 29.5h-2q-11 -27 -34 -57l-248 -331h-70v487h77v-323q0 -29 -3 -65h2q16 33 35 56l248 332h69v-487z" />
    <glyph glyph-name="uni0439" unicode="&#x439;" horiz-adv-x="587" 
d="M374 703h65q4 -59 -37 -98t-112 -39q-72 0 -113.5 39t-37.5 98h65q0 -43 22.5 -66.5t63.5 -23.5q40 0 62 23.5t22 66.5zM507 0h-77v323q0 29 3 65h-3q-10 -23 -33 -57l-249 -331h-69v487h77v-323q0 -29 -3 -65h2q16 33 35 56l248 332h69v-487z" />
    <glyph glyph-name="uni043A" unicode="&#x43a;" horiz-adv-x="536" 
d="M302 255v-3q27 -2 48 -9t39 -24t30 -32t28 -49.5t25.5 -59.5t29.5 -78h-89q-51 133 -82.5 176t-98.5 44h-72q4 -21 4 -47v-173h-85v487h85v-145q0 -26 -5 -56h68q65 0 98 44.5t75 156.5h88q-12 -33 -17.5 -46.5t-16 -39.5t-16.5 -36.5t-16 -29.5t-18 -27t-20 -19.5
t-23.5 -17t-26.5 -10t-32 -6.5z" />
    <glyph glyph-name="uni043B" unicode="&#x43b;" horiz-adv-x="562" 
d="M482 487v-487h-85v420h-106q-31 0 -44.5 -13.5t-18.5 -47.5q-24 -194 -47 -256q-37 -107 -153 -108l-9 65q39 9 57 24.5t29 43.5q24 61 43 245q7 58 37 86t90 28h207z" />
    <glyph glyph-name="uni043C" unicode="&#x43c;" horiz-adv-x="748" 
d="M537 487h89q32 0 32 -32l21 -455h-79l-19 422h-17l-124 -341q-9 -28 -34 -28h-66q-25 0 -34 28l-124 341h-17l-18 -422h-78l20 455q0 32 33 32h88q25 0 33 -28l101 -280q10 -28 21 -70h16q14 49 21 70l101 280q9 28 34 28z" />
    <glyph glyph-name="uni043D" unicode="&#x43d;" horiz-adv-x="582" 
d="M503 487v-487h-84v226h-256v-226h-84v487h84v-196h256v196h84z" />
    <glyph glyph-name="uni043E" unicode="&#x43e;" horiz-adv-x="571" 
d="M286 499q125 0 177 -58t52 -198t-52 -198t-177 -58q-126 0 -178 58t-52 198t52 198t178 58zM286 427q-81 0 -111 -39t-30 -145t30 -145t111 -39q80 0 110 39t30 145t-30 145t-110 39z" />
    <glyph glyph-name="uni043F" unicode="&#x43f;" horiz-adv-x="575" 
d="M496 487v-487h-84v418h-250v-418h-83v487h417z" />
    <glyph glyph-name="uni0440" unicode="&#x440;" horiz-adv-x="583" 
d="M358 499q88 0 128 -64t40 -194q0 -138 -44 -195.5t-140 -57.5q-99 0 -181 50q4 -49 3 -98v-141h-84v688h69l8 -77q40 41 94 65t107 24zM320 62q66 0 92 37t26 142q0 102 -24.5 143t-82.5 41q-39 0 -77 -17.5t-90 -57.5v-259q111 -29 156 -29z" />
    <glyph glyph-name="uni0441" unicode="&#x441;" horiz-adv-x="492" 
d="M287 499q96 0 157 -23l-11 -55q-66 6 -132 6q-87 0 -121.5 -39t-34.5 -144q0 -106 34 -145t122 -39q81 0 144 10l8 -57q-71 -25 -166 -25q-127 0 -179 57.5t-52 198.5q0 140 52.5 197.5t178.5 57.5z" />
    <glyph glyph-name="uni0442" unicode="&#x442;" horiz-adv-x="490" 
d="M464 417h-176v-417h-85v417h-177v70h438v-70z" />
    <glyph glyph-name="uni0443" unicode="&#x443;" horiz-adv-x="532" 
d="M511 487l-194 -514q-39 -102 -92 -142q-64 -48 -181 -32l8 59q79 -4 117 22q41 29 68 99l9 21h-19q-23 0 -31 22l-176 465h91l129 -363q11 -33 18 -59h14q4 10 10.5 30t9.5 29l128 363h91z" />
    <glyph glyph-name="uni0444" unicode="&#x444;" horiz-adv-x="719" 
d="M664 243q0 -131 -60.5 -189.5t-204.5 -64.5v-190h-79v190q-144 6 -204.5 64.5t-60.5 189.5t60.5 190t204.5 65v202h79v-202q143 -6 204 -65t61 -190zM137 243q0 -97 41.5 -137t144.5 -45v365q-103 -5 -144.5 -45t-41.5 -138zM396 426v-365q103 5 144 45t41 137
q0 98 -41 138t-144 45z" />
    <glyph glyph-name="uni0445" unicode="&#x445;" horiz-adv-x="531" 
d="M276 220h-20l-139 -220h-93l163 251l-150 236h92l125 -201h24l125 201h92l-151 -236l163 -251h-93z" />
    <glyph glyph-name="uni0446" unicode="&#x446;" horiz-adv-x="594" 
d="M556 68v-212h-56l-9 144h-411v487h83v-419h242v419h85l-1 -419h67z" />
    <glyph glyph-name="uni0447" unicode="&#x447;" horiz-adv-x="532" 
d="M453 487l-2 -487h-84v205q-100 -36 -190 -36q-122 0 -122 107v211h84v-183q0 -36 15 -50.5t51 -14.5q81 0 162 34v214h86z" />
    <glyph glyph-name="uni0448" unicode="&#x448;" horiz-adv-x="806" 
d="M726 487v-487h-647v487h83v-419h202v419h77v-419h203v419h82z" />
    <glyph glyph-name="uni0449" unicode="&#x449;" horiz-adv-x="831" 
d="M794 68v-212h-57l-9 144h-648v487h82v-419h202v419h77v-419h204v419h82v-419h67z" />
    <glyph glyph-name="uni044A" unicode="&#x44a;" horiz-adv-x="632" 
d="M280 298h113q112 0 154 -33t42 -119q0 -87 -41.5 -119.5t-141.5 -32.5q-132 0 -209 6v419h-171v68h254v-189zM280 62l113 -1q62 0 85.5 17.5t23.5 70.5q0 49 -22.5 67.5t-86.5 18.5h-113v-173z" />
    <glyph glyph-name="uni044B" unicode="&#x44b;" horiz-adv-x="721" 
d="M162 298h115q108 0 149 -33t41 -119q0 -87 -40 -119.5t-137 -32.5q-131 0 -208 6h-3v487h83v-189zM642 487v-487h-86v487h86zM162 62l115 -1q59 0 81.5 17.5t22.5 70.5q0 49 -22 67.5t-82 18.5h-115v-173z" />
    <glyph glyph-name="uni044C" unicode="&#x44c;" horiz-adv-x="516" 
d="M162 298h115q112 0 154 -33t42 -119q0 -87 -41.5 -119.5t-141.5 -32.5q-131 0 -208 6h-3v487h83v-189zM162 62l115 -1q62 0 85.5 17.5t23.5 70.5q0 49 -22.5 67.5t-86.5 18.5h-115v-173z" />
    <glyph glyph-name="uni044D" unicode="&#x44d;" horiz-adv-x="506" 
d="M212 493q132 0 185 -55.5t53 -196.5q0 -139 -53 -195t-185 -56q-104 0 -171 19l9 60q84 -7 162 -7q83 0 115.5 32.5t36.5 121.5h-248v64h247q-5 81 -38.5 111.5t-112.5 30.5q-70 0 -157 -5l-9 59q61 17 166 17z" />
    <glyph glyph-name="uni044E" unicode="&#x44e;" horiz-adv-x="795" 
d="M508 499q129 0 180 -54.5t51 -200.5q0 -144 -51 -198.5t-180 -54.5q-118 0 -167 49.5t-53 177.5h-124v-218h-84v487h84v-203h125q6 122 55 168.5t164 46.5zM507 63q81 0 112 39t32 143q-1 105 -32 143.5t-112 38.5q-79 0 -108 -38.5t-29 -143.5q0 -104 29 -143t108 -39z
" />
    <glyph glyph-name="uni044F" unicode="&#x44f;" horiz-adv-x="543" 
d="M249 492q143 0 215 -7v-485h-83v180h-131q-71 0 -85 -50l-37 -130h-88l44 146q17 54 95 62v4q-59 8 -85 41.5t-26 94.5q0 72 40.5 108t140.5 36zM381 244v179q-34 1 -130 1q-59 0 -79.5 -19.5t-20.5 -68.5q0 -51 21.5 -71.5t81.5 -20.5h127z" />
    <glyph glyph-name="uni0451" unicode="&#x451;" horiz-adv-x="540" 
d="M207 587h-29q-23 0 -23 24v55q0 24 23 24h29q23 0 23 -24v-55q0 -24 -23 -24zM384 587h-28q-24 0 -24 24v55q0 24 24 24h28q24 0 24 -24v-55q0 -24 -24 -24zM299 60q84 0 170 12l8 -57q-64 -27 -189 -27q-126 0 -179 58.5t-53 198.5q0 141 52 197.5t171 56.5
q109 0 159 -39.5t51 -119.5q0 -138 -116 -138h-227q6 -84 40 -113t113 -29zM283 427q-76 0 -106.5 -34t-32.5 -125h207q54 0 52 72q0 47 -27 67t-93 20z" />
    <glyph glyph-name="uni0452" unicode="&#x452;" horiz-adv-x="585" 
d="M397 402q131 0 133 -134v-280q0 -58 -25 -108t-69 -83l-47 37q56 69 56 154v257q0 44 -19.5 62.5t-65.5 18.5q-67 0 -173 -65v-261h-85v494h-75v49h75v157h85l1 -157h186v-49h-186v-84q0 -44 -5 -86q112 78 214 78z" />
    <glyph glyph-name="uni0453" unicode="&#x453;" horiz-adv-x="462" 
d="M423 668l-192 -120l-29 39l172 146zM185 489q175 0 255 -8l-3 -60h-217q-31 0 -44.5 -14t-13.5 -46v-361h-85v383q0 106 108 106z" />
    <glyph glyph-name="uni0454" unicode="&#x454;" horiz-adv-x="507" 
d="M457 69l8 -60q-65 -19 -170 -19q-132 0 -185.5 56t-53.5 195q0 141 53.5 196.5t185.5 55.5q105 0 165 -17l-8 -59q-87 5 -157 5q-79 0 -112.5 -30.5t-38.5 -111.5h248v-64h-249q4 -89 37 -121.5t115 -32.5q78 0 162 7z" />
    <glyph glyph-name="uni0455" unicode="&#x455;" horiz-adv-x="511" 
d="M242 499q116 -2 204 -15l-6 -62q-155 5 -186 5q-74 1 -97 -9t-23 -53q0 -35 15.5 -48t55.5 -22l142 -32q60 -15 86.5 -44.5t26.5 -89.5q0 -85 -47 -112.5t-161 -27.5q-102 0 -190 14l6 62q84 -5 167 -4q85 0 114 13t29 55q0 33 -17.5 45.5t-58.5 22.5l-140 32
q-60 14 -85 45t-25 91q0 81 42.5 108.5t147.5 25.5z" />
    <glyph glyph-name="uni0456" unicode="&#x456;" horiz-adv-x="251" 
d="M106 694h40q25 0 25 -26v-57q0 -26 -25 -26h-40q-26 0 -26 26v57q0 26 26 26zM168 0h-85v487h85v-487z" />
    <glyph glyph-name="uni0457" unicode="&#x457;" horiz-adv-x="251" 
d="M22 690h29q23 0 23 -24v-55q0 -24 -23 -24h-29q-23 0 -23 24v55q0 24 23 24zM200 690h28q24 0 24 -24v-55q0 -24 -24 -24h-28q-24 0 -24 24v55q0 24 24 24zM168 0h-85v487h85v-487z" />
    <glyph glyph-name="uni0458" unicode="&#x458;" horiz-adv-x="252" 
d="M106 694h40q26 0 26 -26v-57q0 -26 -26 -26h-40q-25 0 -25 26v57q0 26 25 26zM169 487v-499q0 -58 -25 -108t-69 -83l-47 37q55 68 55 154v499h86z" />
    <glyph glyph-name="uni0459" unicode="&#x459;" horiz-adv-x="803" 
d="M458 301h109q110 0 151 -33.5t41 -120.5q0 -90 -42 -121.5t-144 -31.5q-122 0 -196 6v422h-82q-28 0 -41 -11t-16 -37q-13 -120 -23 -175.5t-30 -100.5q-40 -101 -150 -101l-7 58q57 22 79 64q21 40 29.5 87.5t23.5 182.5q9 98 112 98h186v-186zM458 62l102 -1
q65 0 89 17t24 72q0 50 -22.5 69.5t-83.5 19.5h-109v-177z" />
    <glyph glyph-name="uni045A" unicode="&#x45a;" horiz-adv-x="810" 
d="M464 300h111q110 0 151 -33t41 -120q0 -88 -40.5 -120.5t-138.5 -32.5q-128 0 -204 6v238h-226v-238h-78v487h78v-188h226v188h80v-187zM464 62l111 -1q60 0 83 18t23 71q0 50 -22 69t-84 19h-111v-176z" />
    <glyph glyph-name="uni045B" unicode="&#x45b;" horiz-adv-x="585" 
d="M397 402q133 0 133 -134v-268h-85v245q0 44 -19.5 62.5t-65.5 18.5q-67 0 -173 -65v-261h-85v494h-75v49h75v157h85l1 -157h186v-49h-186v-84q0 -44 -5 -86q112 78 214 78z" />
    <glyph glyph-name="uni045C" unicode="&#x45c;" horiz-adv-x="536" 
d="M243 548l-29 39l172 146l49 -65zM303 255v-3q27 -2 47.5 -9t38.5 -24t30 -32t28 -49.5t25.5 -59.5t29.5 -78h-89q-51 133 -82.5 176t-98.5 44h-73q5 -27 5 -47v-173h-85v487h85v-145q0 -26 -5 -56h68q65 0 98.5 45t74.5 156h88q-18 -48 -26 -68t-23 -53t-26 -46.5
t-28.5 -30.5t-37 -24t-44.5 -10z" />
    <glyph glyph-name="uni045D" unicode="&#x45d;" horiz-adv-x="587" 
d="M340 587l-29 -39l-192 120l48 65zM507 0h-77v323q0 29 3 65h-3q-10 -23 -33 -57l-249 -331h-69v487h77v-323q0 -29 -3 -65h2q16 33 35 56l248 332h69v-487z" />
    <glyph glyph-name="uni045E" unicode="&#x45e;" horiz-adv-x="532" 
d="M266 566q-72 0 -113.5 39t-37.5 98h65q0 -43 22.5 -66.5t63.5 -23.5q40 0 62 23.5t22 66.5h65q4 -59 -37 -98t-112 -39zM511 487l-195 -514q-36 -101 -91 -142q-64 -49 -181 -32l8 59q79 -4 117 22q38 27 68 99l9 21h-19q-24 0 -30 22l-177 465h91l129 -363
q11 -33 18 -59h14q4 10 10.5 30t9.5 29l127 363h92z" />
    <glyph glyph-name="uni045F" unicode="&#x45f;" horiz-adv-x="580" 
d="M500 487v-487h-175l-7 -165h-57l-8 165h-173v487h84l1 -419h249l1 419h85z" />
    <glyph glyph-name="uni0490" unicode="&#x490;" horiz-adv-x="523" 
d="M502 842v-165l-4 -61h-258q-36 0 -52 -16.5t-16 -54.5v-545h-87v561q0 57 35.5 93.5t90.5 36.5q151 0 224 -6l10 157h57z" />
    <glyph glyph-name="uni0491" unicode="&#x491;" horiz-adv-x="464" 
d="M442 633v-152l-4 -60h-218q-30 1 -44 -13.5t-14 -46.5v-361h-85v383q0 106 108 106q128 0 191 -3l9 147h57z" />
    <glyph glyph-name="uni04B0" unicode="&#x4b0;" horiz-adv-x="580" 
d="M485 223h-150v-223h-88v223h-150v52h134l-213 415h93l145 -291q5 -10 32 -78h7q19 54 31 77l145 292h92l-211 -415h132z" />
    <glyph glyph-name="uni04B1" unicode="&#x4b1;" horiz-adv-x="584" 
d="M353 74h133v-54h-150v-221h-87v221h-151v54h134l-213 413h93l145 -289q9 -17 31 -77h8q22 60 31 77l145 289h93z" />
    <glyph glyph-name="uni04B6" unicode="&#x4b6;" horiz-adv-x="653" 
d="M621 61v-212h-60l-10 151h-100v310q-115 -59 -232 -59q-81 0 -120 38.5t-39 117.5v283h89v-265q-1 -51 22.5 -74t76.5 -23q97 0 203 53v309h89v-629h81z" />
    <glyph glyph-name="uni04B7" unicode="&#x4b7;" horiz-adv-x="556" 
d="M519 68v-212h-57l-9 144h-86v205q-100 -36 -190 -36q-122 0 -122 107v211h84v-183q0 -36 15 -50.5t51 -14.5q81 0 162 34v214h86l-2 -419h68z" />
    <glyph glyph-name="uni04BA" unicode="&#x4ba;" horiz-adv-x="626" 
d="M408 439q80 0 119 -38.5t39 -117.5v-283h-88v265q1 51 -22.5 74t-77.5 23q-100 0 -203 -53v-309h-88v690h88v-310q112 59 233 59z" />
    <glyph glyph-name="uni04C0" unicode="&#x4c0;" horiz-adv-x="263" 
d="M175 0h-87v690h87v-690z" />
    <glyph glyph-name="Wgrave" unicode="&#x1e80;" horiz-adv-x="948" 
d="M525 767l-29 -39l-192 120l48 65zM917 690l-140 -664q-7 -26 -35 -26h-100q-29 0 -34 27l-108 519q-3 13 -8 39t-8 39h-21l-15 -78l-107 -519q-7 -27 -35 -27h-101q-13 0 -22.5 7.5t-11.5 18.5l-140 664h93l108 -538q1 -4 14 -85h24q5 42 15 85l107 509q7 29 34 29h96
q27 0 34 -29l107 -509q9 -45 15 -85h24q8 59 14 84l109 539h92z" />
    <glyph glyph-name="wgrave" unicode="&#x1e81;" horiz-adv-x="824" 
d="M462 587l-29 -39l-192 120l48 65zM800 487l-143 -463q-6 -24 -32 -24h-77q-27 0 -34 27l-80 331q-13 67 -16 77h-11q-6 -27 -18 -77l-79 -331q-5 -27 -34 -27h-75q-28 0 -33 24l-143 463h88l102 -359q5 -19 16 -73h13q11 43 17 73l81 332q7 27 32 27h77q27 0 32 -28
l80 -331l18 -73h13q11 56 16 73l102 359h88z" />
    <glyph glyph-name="Wacute" unicode="&#x1e82;" horiz-adv-x="948" 
d="M630 848l-192 -120l-29 39l172 146zM917 690l-140 -664q-7 -26 -35 -26h-100q-29 0 -34 27l-108 519q-3 13 -8 39t-8 39h-21l-15 -78l-107 -519q-7 -27 -35 -27h-101q-13 0 -22.5 7.5t-11.5 18.5l-140 664h93l108 -538q1 -4 14 -85h24q5 42 15 85l107 509q7 29 34 29h96
q27 0 34 -29l107 -509q9 -45 15 -85h24q8 59 14 84l109 539h92z" />
    <glyph glyph-name="wacute" unicode="&#x1e83;" horiz-adv-x="824" 
d="M568 668l-192 -120l-29 39l172 146zM800 487l-143 -463q-6 -24 -32 -24h-77q-27 0 -34 27l-80 331q-13 67 -16 77h-11q-6 -27 -18 -77l-79 -331q-5 -27 -34 -27h-75q-28 0 -33 24l-143 463h88l102 -359q5 -19 16 -73h13q11 43 17 73l81 332q7 27 32 27h77q27 0 32 -28
l80 -331l18 -73h13q11 56 16 73l102 359h88z" />
    <glyph glyph-name="Wdieresis" unicode="&#x1e84;" horiz-adv-x="948" 
d="M371 869h29q23 0 23 -24v-55q0 -24 -23 -24h-29q-23 0 -23 24v55q0 24 23 24zM549 869h28q24 0 24 -24v-55q0 -24 -24 -24h-28q-24 0 -24 24v55q0 24 24 24zM917 690l-140 -664q-7 -26 -35 -26h-100q-29 0 -34 27l-108 519q-3 13 -8 39t-8 39h-21l-15 -78l-107 -519
q-7 -27 -35 -27h-101q-13 0 -22.5 7.5t-11.5 18.5l-140 664h93l108 -538q1 -4 14 -85h24q5 42 15 85l107 509q7 29 34 29h96q27 0 34 -29l107 -509q9 -45 15 -85h24q8 59 14 84l109 539h92z" />
    <glyph glyph-name="wdieresis" unicode="&#x1e85;" horiz-adv-x="824" 
d="M309 690h29q23 0 23 -24v-55q0 -24 -23 -24h-29q-23 0 -23 24v55q0 24 23 24zM487 690h28q24 0 24 -24v-55q0 -24 -24 -24h-28q-24 0 -24 24v55q0 24 24 24zM800 487l-143 -463q-6 -24 -32 -24h-77q-27 0 -34 27l-80 331q-13 67 -16 77h-11q-6 -27 -18 -77l-79 -331
q-5 -27 -34 -27h-75q-28 0 -33 24l-143 463h88l102 -359q5 -19 16 -73h13q11 43 17 73l81 332q7 27 32 27h77q27 0 32 -28l80 -331l18 -73h13q11 56 16 73l102 359h88z" />
    <glyph glyph-name="Ygrave" unicode="&#x1ef2;" horiz-adv-x="569" 
d="M305 728l-192 120l48 65l173 -146zM328 242v-242h-88v244l-229 446h94l145 -291q12 -24 31 -78h7q16 44 31 77l145 292h93z" />
    <glyph glyph-name="ygrave" unicode="&#x1ef3;" horiz-adv-x="529" 
d="M288 548l-192 120l48 65l173 -146zM510 487l-194 -514q-66 -172 -213 -179l-9 56q57 18 89.5 49.5t52.5 79.5l9 21h-20q-24 0 -30 22l-177 465h91l129 -363q11 -33 18 -59h15q3 10 10 30t10 29l128 363h91z" />
    <glyph glyph-name="endash" unicode="&#x2013;" horiz-adv-x="592" 
d="M520 220h-448v65h448v-65z" />
    <glyph glyph-name="emdash" unicode="&#x2014;" horiz-adv-x="896" 
d="M824 220h-752v65h752v-65z" />
    <glyph glyph-name="quoteleft" unicode="&#x2018;" horiz-adv-x="217" 
d="M121 496h-25q-17 0 -24 7t-6 23l-1 60q1 77 35 144l40 -11q-10 -54 -10 -112q24 0 24 -26l-1 -55q-1 -30 -32 -30z" />
    <glyph glyph-name="quoteright" unicode="&#x2019;" horiz-adv-x="214" 
d="M95 723h25q17 0 24 -6.5t6 -23.5l1 -60q-1 -78 -35 -143l-40 10q10 54 10 112q-24 0 -24 26l1 55q1 30 32 30z" />
    <glyph glyph-name="quotesinglbase" unicode="&#x201a;" horiz-adv-x="228" 
d="M103 111h25q17 0 24 -6.5t6 -23.5l1 -59q-1 -77 -35 -144l-41 11q10 54 10 112q-24 0 -24 25l1 55q1 30 33 30z" />
    <glyph glyph-name="quotedblleft" unicode="&#x201c;" horiz-adv-x="369" 
d="M121 496h-25q-17 0 -24 7t-6 23l-1 60q1 77 35 144l40 -11q-10 -54 -10 -112q24 0 24 -26l-1 -55q-1 -30 -32 -30zM273 496h-24q-17 0 -24 6.5t-7 23.5v60q1 79 34 144l41 -11q-10 -54 -10 -112q25 0 23 -26v-55q-1 -30 -33 -30z" />
    <glyph glyph-name="quotedblright" unicode="&#x201d;" horiz-adv-x="367" 
d="M95 723h25q17 0 24 -6.5t6 -23.5l1 -60q-1 -78 -35 -143l-40 10q10 54 10 112q-24 0 -24 26l1 55q1 30 32 30zM248 723h25q17 0 23.5 -6.5t6.5 -23.5v-60q-2 -80 -34 -143l-40 10q9 57 9 112q-23 0 -23 26v55q1 30 33 30z" />
    <glyph glyph-name="quotedblbase" unicode="&#x201e;" horiz-adv-x="381" 
d="M102 111h25q17 0 24 -6.5t6 -23.5l1 -59q-1 -77 -35 -144l-40 11q10 54 10 112q-24 0 -24 25l1 55q1 30 32 30zM255 111h25q17 0 23.5 -6.5t6.5 -23.5v-59q-1 -79 -34 -144l-40 11q10 54 10 112q-24 0 -24 25v55q1 16 8.5 23t24.5 7z" />
    <glyph glyph-name="dagger" unicode="&#x2020;" horiz-adv-x="453" 
d="M265 -110h-77l4 544v48l-4 209h77l-3 -209v-48zM43 412v75h130v-65zM411 487v-75l-131 10v65h131z" />
    <glyph glyph-name="daggerdbl" unicode="&#x2021;" horiz-adv-x="491" 
d="M280 485v-390l4 -205h-78l4 205v390l-4 206h78zM192 422l-131 -10v75h131v-65zM429 412l-130 10v65h130v-75zM192 159v-65h-131v75zM429 94h-130v65l130 10v-75z" />
    <glyph glyph-name="bullet" unicode="&#x2022;" horiz-adv-x="363" 
d="M177 358h12q47 0 65 -18t18 -65v-12q0 -49 -18 -67.5t-65 -18.5h-12q-49 0 -67.5 18.5t-18.5 67.5v12q0 47 18.5 65t67.5 18z" />
    <glyph glyph-name="ellipsis" unicode="&#x2026;" horiz-adv-x="845" 
d="M97 118h29q17 0 24 -7t7 -25v-54q0 -18 -7 -25t-24 -7h-29q-17 0 -24 7t-7 25v54q0 18 7 25t24 7zM406 118h28q17 0 24 -7t7 -25v-54q0 -18 -7 -25t-24 -7h-28q-18 0 -25 7t-7 25v54q0 18 7 25t25 7zM714 118h28q17 0 24.5 -7t7.5 -25v-54q0 -18 -7.5 -25t-24.5 -7h-28
q-18 0 -25 7t-7 25v54q0 18 7 25t25 7z" />
    <glyph glyph-name="perthousand" unicode="&#x2030;" horiz-adv-x="1267" 
d="M207 703q89 0 125 -47t36 -158t-36 -158t-125 -47q-88 0 -124 47t-36 158t36 158t124 47zM252 0h-60l447 690h60zM207 649q-54 0 -74.5 -33t-20.5 -118t20.5 -118t74.5 -33t74.5 33t20.5 118t-20.5 118t-74.5 33zM686 400q88 0 124 -47t36 -157q0 -111 -36 -158t-124 -47
t-124 47t-36 158q0 110 36 157t124 47zM1057 400q89 0 125 -47t36 -157q0 -111 -36 -158t-125 -47q-88 0 -124 47t-36 158q0 110 36 157t124 47zM685 346q-54 0 -74.5 -32.5t-19.5 -117.5q-1 -85 19.5 -118.5t74.5 -33.5t75 33.5t21 118.5q0 84 -21 117t-75 33zM1057 346
q-54 0 -74 -32.5t-20 -117.5t20 -118.5t74 -33.5t74.5 33t20.5 119q0 85 -20.5 117.5t-74.5 32.5z" />
    <glyph glyph-name="guilsinglleft" unicode="&#x2039;" horiz-adv-x="285" 
d="M241 429l-126 -178l127 -182l-45 -30l-161 202v20l160 198z" />
    <glyph glyph-name="guilsinglright" unicode="&#x203a;" horiz-adv-x="287" 
d="M249 261v-20l-162 -202l-44 30l127 182l-126 178l44 30z" />
    <glyph glyph-name="fraction" unicode="&#x2044;" horiz-adv-x="160" 
d="M-113 0h-61l447 690h61z" />
    <glyph glyph-name="Euro" unicode="&#x20ac;" horiz-adv-x="639" 
d="M578 79l9 -68q-77 -23 -177 -23q-131 0 -195 67t-77 206h-85v53h82v31q0 32 1 47h-83v53h87q15 131 78.5 194t191.5 63q94 0 166 -20l-10 -68q-76 13 -161 9q-78 -3 -119 -46t-54 -132h255l-7 -53h-253q-1 -15 -1 -48v-30h221l-7 -53h-210q11 -98 52 -145t123 -49
q96 -3 173 12z" />
    <glyph glyph-name="trademark" unicode="&#x2122;" horiz-adv-x="964" 
d="M391 696v-51h-131v-329h-62v329h-131v51h324zM890 316h-57l-16 333h-11l-92 -268q-6 -20 -26 -20h-47q-18 0 -25 20l-92 268h-12l-15 -333h-57l16 356q2 24 24 24h63q19 0 25 -20l76 -220q3 -10 8.5 -29.5t6.5 -23.5h11q3 9 8 27t8 27l75 219q6 20 24 20h66q22 0 24 -24z
" />
    <glyph glyph-name="partialdiff" unicode="&#x2202;" horiz-adv-x="572" 
d="M131 638v65q112 1 180.5 -12t118.5 -52.5t68.5 -112t12.5 -189.5q-9 -172 -64 -260.5t-180 -88.5q-61 0 -105 20t-67 55t-33 75.5t-8 87.5q5 101 58.5 162.5t150.5 60.5q103 -2 163 -78q5 160 -55 213.5t-240 53.5zM268 64q43 0 72 18.5t45.5 56t24.5 78.5t13 102
q-64 58 -143 58q-68 0 -103 -40t-38 -111q-3 -73 28.5 -117.5t100.5 -44.5z" />
    <glyph glyph-name="emptyset" unicode="&#x2205;" horiz-adv-x="685" 
d="M343 633q121 0 206.5 -85.5t85.5 -206.5t-85.5 -207t-206.5 -86t-207 86t-86 207t86 206.5t207 85.5zM343 545q-51 0 -122 -11l3 -45q60 9 119 9q66 0 66 -46q0 -21 -15 -44.5t-33.5 -42.5t-33.5 -52t-15 -72h54q0 35 14.5 64.5t32.5 46.5t32.5 43.5t14.5 56.5
q0 93 -117 93zM359 171h-39q-7 0 -7 -8v-37q0 -7 7 -7h39q8 0 8 7v37q0 8 -8 8z" />
    <glyph glyph-name="product" unicode="&#x220f;" horiz-adv-x="722" 
d="M683 618h-104v-721h-84v721h-268v-721h-84v721h-104v72h644v-72z" />
    <glyph glyph-name="summation" unicode="&#x2211;" horiz-adv-x="590" 
d="M528 618h-370l166 -270l-180 -386h394v-71h-489v71l180 386l-168 270v72h467v-72z" />
    <glyph glyph-name="minus" unicode="&#x2212;" horiz-adv-x="585" 
d="M512 263h-438v64h438v-64z" />
    <glyph glyph-name="radical" unicode="&#x221a;" horiz-adv-x="566" 
d="M542 876l-257 -868q-3 -8 -13 -8h-99q-11 0 -13 8l-126 479h72l110 -429h13l240 818h73z" />
    <glyph glyph-name="infinity" unicode="&#x221e;" horiz-adv-x="780" 
d="M583 446q59 0 98 -34.5t39 -100.5q0 -69 -42.5 -107.5t-107.5 -38.5q-95 0 -178 93q-89 -93 -184 -93q-63 0 -105 38.5t-42 107.5q0 67 39.5 101t103.5 34q99 0 187 -97q92 97 192 97zM222 228q40 0 69.5 19t61.5 57q-33 40 -62.5 59.5t-74.5 19.5q-82 0 -82 -74
q0 -81 88 -81zM559 228q41 0 64 20.5t23 60.5q0 74 -79 74q-31 0 -58 -13.5t-42 -27.5t-37 -40q58 -74 129 -74z" />
    <glyph glyph-name="integral" unicode="&#x222b;" horiz-adv-x="371" 
d="M239 714q64 0 99 -4l-6 -61h-65q-38 0 -53 -18t-13 -64l45 -656q4 -68 -23.5 -100.5t-93.5 -32.5q-67 0 -95 4l5 61h64q38 0 53.5 19t12.5 65l-43 654q-4 65 25 99t88 34z" />
    <glyph glyph-name="approxequal" unicode="&#x2248;" horiz-adv-x="587" 
d="M173 447q35 -1 117.5 -29t119.5 -29q25 -1 34 9.5t9 43.5h58q8 -60 -16 -89.5t-82 -28.5q-39 1 -121 29.5t-115 29.5q-24 1 -33.5 -11t-9.5 -45h-57q-9 63 18 92.5t78 27.5zM173 256q35 -1 117.5 -29t119.5 -30q24 -1 33.5 10t9.5 43h58q8 -59 -16 -88.5t-82 -28.5
q-39 1 -121 29.5t-115 29.5q-24 0 -33.5 -11.5t-9.5 -44.5h-57q-9 63 18 92.5t78 27.5z" />
    <glyph glyph-name="notequal" unicode="&#x2260;" horiz-adv-x="616" 
d="M362 367l-90 -148h261v-64h-300l-75 -123l-26 14l66 109h-104v64h143l90 148h-233v63h271l66 109l27 -14l-58 -95h133v-63h-171z" />
    <glyph glyph-name="lessequal" unicode="&#x2264;" horiz-adv-x="567" 
d="M489 467l-335 -106l335 -97v-68l-410 131v68l410 140v-68zM497 79h-428v63h428v-63z" />
    <glyph glyph-name="greaterequal" unicode="&#x2265;" horiz-adv-x="567" 
d="M488 395v-68l-409 -131v68l334 97l-334 106v68zM498 79h-428v63h428v-63z" />
    <glyph glyph-name="lozenge" unicode="&#x25ca;" horiz-adv-x="576" 
d="M297 692l243 -338q5 -8 0 -16l-243 -340q-9 -11 -16 0l-245 340q-5 8 0 16l245 338q7 11 16 0zM106 346l183 -263l182 263l-182 261z" />
    <glyph glyph-name="fi" unicode="&#xfb01;" horiz-adv-x="607" 
d="M524 487v-487h-84v420h-239v-420h-85v420h-88v62l88 5v77q0 76 33 114.5t109 38.5q66 0 114 -7v-63h-84q-48 0 -67.5 -20.5t-19.5 -71.5v-68h323zM461 694h40q26 0 26 -26v-57q0 -26 -26 -26h-40q-25 0 -25 26v57q0 26 25 26z" />
    <glyph glyph-name="fl" unicode="&#xfb02;" horiz-adv-x="669" 
d="M650 58l9 -54q-27 -13 -89 -13q-55 0 -87 30t-32 84v543h-164q-48 1 -67 -20t-19 -73v-68h146v-67h-146v-420h-85v420h-88v62l88 5v77q0 77 33 115.5t108 37.5q206 0 279 -12v-581q0 -66 66 -66h48z" />
    <glyph glyph-name="uni00630074" horiz-adv-x="829" 
d="M647 420v-286q0 -35 15.5 -50t51.5 -15h74l9 -65q-45 -13 -110 -13q-61 0 -92.5 34t-31.5 98v297h-263q-88 0 -122 -37.5t-34 -138.5q0 -106 33 -145t120 -39q74 0 131 10l8 -57q-65 -25 -153 -25q-125 0 -177 57.5t-52 198.5q0 131 55.5 187t176.5 56h277v144h84v-144
h156v-67h-156z" />
    <glyph glyph-name="f_f" horiz-adv-x="711" 
d="M719 647h-101q-48 0 -67 -18.5t-19 -63.5v-78h155v-67h-155v-420h-86v420h-245v-420h-85v420h-88v62l88 5v75q0 142 142 142q74 0 122 -7l-6 -63h-86q-49 0 -68 -17t-19 -65v-65h245v87q0 71 33 107t109 36q84 0 137 -7z" />
    <glyph glyph-name="f_f_i" horiz-adv-x="929" 
d="M847 487v-487h-84v420h-239v-420h-85v420h-245v-420h-85v420h-81v62l81 4v76q0 142 142 142q74 0 122 -7l-7 -63h-85q-49 0 -68 -17t-19 -65v-65h245v77q0 76 33 114.5t109 38.5q70 0 119 -7v-63h-89q-48 0 -67.5 -20.5t-19.5 -71.5v-68h323zM784 694h40q26 0 26 -26v-57
q0 -26 -26 -26h-40q-25 0 -25 26v57q0 26 25 26z" />
    <glyph glyph-name="f_f_l" horiz-adv-x="1000" 
d="M980 58l10 -54q-27 -13 -89 -13q-55 0 -87 30t-32 84v543h-164q-48 1 -67 -20t-19 -73v-68h148v-67h-148v-420h-86v420h-245v-420h-85v420h-88v62l88 5v75q0 142 142 142q74 0 122 -7l-6 -63h-86q-49 0 -68 -17t-19 -65v-65h245v77q0 76 33.5 115t108.5 38q206 0 279 -12
v-581q0 -66 66 -66h47z" />
    <glyph glyph-name="uni006600660079" horiz-adv-x="1204" 
d="M1186 487l-195 -514q-66 -172 -213 -179l-9 56q57 18 89.5 49.5t52.5 79.5l9 21h-19q-24 0 -30 22l-136 355q-16 43 -63 43h-140v-420h-85v420h-246v-420h-85v420h-88v62l88 5v75q0 142 142 142q74 0 122 -7l-6 -63h-86q-49 0 -68 -17t-19 -65v-65h246v87q0 71 33.5 107
t108.5 36q84 0 137 -7l-7 -63h-100q-48 0 -67.5 -18.5t-19.5 -63.5v-78h156q97 0 128 -91l98 -272q11 -33 18 -59h15q3 7 19 59l128 363h92z" />
    <glyph glyph-name="uni00660074" horiz-adv-x="715" 
d="M533 420v-286q0 -35 15.5 -50t50.5 -15h74l10 -65q-46 -13 -110 -13q-61 0 -93 34t-32 98v297h-247v-420h-85v420h-88v62l88 5v87q0 71 33 107t109 36q78 0 130 -7l-7 -63h-93q-48 0 -67.5 -18.5t-19.5 -63.5v-78h247v144h85v-144h155v-67h-155z" />
    <glyph glyph-name="uni00660079" horiz-adv-x="873" 
d="M855 487l-195 -514q-66 -172 -213 -179l-9 56q57 18 90 49.5t52 79.5l9 21h-19q-24 0 -30 22l-136 355q-16 43 -63 43h-140v-420h-85v420h-88v62l88 5v87q0 71 33 107t109 36q84 0 137 -7l-7 -63h-100q-48 0 -67.5 -18.5t-19.5 -63.5v-78h156q97 0 128 -91l98 -272
q11 -33 18 -59h14q12 36 17 52l131 370h92z" />
    <glyph glyph-name="s_t" horiz-adv-x="859" 
d="M677 420v-286q0 -35 15.5 -50t51.5 -15h74l9 -65q-45 -13 -109 -13q-61 0 -93 34t-32 98v297h-340q-74 0 -97 -8.5t-23 -46.5q0 -35 15.5 -48t55.5 -22l142 -32q60 -15 86.5 -44.5t26.5 -89.5q0 -85 -47 -112.5t-161 -27.5q-102 0 -191 14l6 62q85 -5 168 -4q85 0 114 13
t29 55q0 33 -17.5 45.5t-59.5 22.5l-140 32q-60 14 -85 45t-25 91q0 73 42.5 97.5t147.5 24.5h353v144h84v-144h156v-67h-156z" />
    <glyph glyph-name="uni00740074" horiz-adv-x="727" 
d="M546 420v-286q0 -35 15.5 -50t50.5 -15h74l10 -65q-46 -13 -110 -13q-61 0 -93 34t-32 98v297h-261v-286q0 -35 15 -50t51 -15h74l10 -65q-46 -13 -110 -13q-61 0 -93 34t-32 98v297h-88v62l88 5v144h85v-144h261v144h85v-144h155v-67h-155z" />
    <glyph glyph-name="uni00740079" horiz-adv-x="895" 
d="M877 487l-195 -514q-66 -172 -213 -179l-9 56q57 18 89.5 49t53.5 80l8 21h-19q-24 0 -30 22l-136 355q-16 43 -62 43h-164v-286q0 -35 15 -50t51 -15h74l10 -65q-46 -13 -110 -13q-61 0 -93 34t-32 98v297h-88v62l88 5v144h85v-144h180q96 0 127 -91l98 -272
q14 -41 18 -59h14l19 55l129 367h92z" />
    <glyph glyph-name="brevecy" horiz-adv-x="375" 
d="M273 695h65q4 -59 -37 -98t-112 -39q-72 0 -113.5 39t-37.5 98h65q0 -43 22.5 -66.5t63.5 -23.5q40 0 62 23.5t22 66.5z" />
    </font>
</defs>
</svg>
